<?xml version="1.0" encoding="UTF-8" standalone="no"?>
<!-- Created with Inkscape (http://www.inkscape.org/) -->

<svg
   width="11in"
   height="17in"
   viewBox="0 0 279.4 431.8"
   version="1.1"
   id="svg8"
   inkscape:version="1.1.2 (b8e25be8, 2022-02-05)"
   sodipodi:docname="demon-claws.svg"
   xmlns:inkscape="http://www.inkscape.org/namespaces/inkscape"
   xmlns:sodipodi="http://sodipodi.sourceforge.net/DTD/sodipodi-0.dtd"
   xmlns="http://www.w3.org/2000/svg"
   xmlns:svg="http://www.w3.org/2000/svg"
   xmlns:rdf="http://www.w3.org/1999/02/22-rdf-syntax-ns#"
   xmlns:cc="http://creativecommons.org/ns#"
   xmlns:dc="http://purl.org/dc/elements/1.1/"
   xmlns:inkstitch="http://inkstitch.org/namespace">
  <title
     id="title1023">inkStitch - Embroidery Hoops Template</title>
  <defs
     id="defs2">
    <inkscape:path-effect
       effect="taper_stroke"
       id="path-effect2621"
       is_visible="true"
       lpeversion="1"
       stroke_width="3.0833408"
       attach_start="0.7"
       end_offset="0.2"
       start_smoothing="0.5"
       end_smoothing="0.5"
       jointype="extrapolated"
       start_shape="center"
       end_shape="center"
       miter_limit="100" />
    <inkscape:path-effect
       effect="taper_stroke"
       id="path-effect2615"
       is_visible="true"
       lpeversion="1"
       stroke_width="3.6555191"
       attach_start="0.7"
       end_offset="0.2"
       start_smoothing="0.5"
       end_smoothing="0.5"
       jointype="extrapolated"
       start_shape="center"
       end_shape="center"
       miter_limit="100" />
    <inkscape:path-effect
       effect="taper_stroke"
       id="path-effect2609"
       is_visible="true"
       lpeversion="1"
       stroke_width="3.6555191"
       attach_start="0.7"
       end_offset="0.2"
       start_smoothing="0.5"
       end_smoothing="0.5"
       jointype="extrapolated"
       start_shape="center"
       end_shape="center"
       miter_limit="100" />
    <inkscape:path-effect
       effect="taper_stroke"
       id="path-effect2603"
       is_visible="true"
       lpeversion="1"
       stroke_width="3.6555191"
       attach_start="0.7"
       end_offset="0.2"
       start_smoothing="0.5"
       end_smoothing="0.5"
       jointype="extrapolated"
       start_shape="center"
       end_shape="center"
       miter_limit="100" />
    <inkscape:path-effect
       effect="taper_stroke"
       id="path-effect2597"
       is_visible="true"
       lpeversion="1"
       stroke_width="3.6555191"
       attach_start="0.7"
       end_offset="0.2"
       start_smoothing="0.5"
       end_smoothing="0.5"
       jointype="extrapolated"
       start_shape="center"
       end_shape="center"
       miter_limit="100" />
    <inkscape:path-effect
       effect="taper_stroke"
       id="path-effect1371"
       is_visible="true"
       lpeversion="1"
       stroke_width="3.0833408"
       attach_start="0.7"
       end_offset="0.2"
       start_smoothing="0.5"
       end_smoothing="0.5"
       jointype="extrapolated"
       start_shape="center"
       end_shape="center"
       miter_limit="100" />
    <inkscape:path-effect
       effect="taper_stroke"
       id="path-effect1365"
       is_visible="true"
       lpeversion="1"
       stroke_width="3.6555191"
       attach_start="0.7"
       end_offset="0.2"
       start_smoothing="0.5"
       end_smoothing="0.5"
       jointype="extrapolated"
       start_shape="center"
       end_shape="center"
       miter_limit="100" />
    <inkscape:path-effect
       effect="taper_stroke"
       id="path-effect1359"
       is_visible="true"
       lpeversion="1"
       stroke_width="3.6555191"
       attach_start="0.7"
       end_offset="0.2"
       start_smoothing="0.5"
       end_smoothing="0.5"
       jointype="extrapolated"
       start_shape="center"
       end_shape="center"
       miter_limit="100" />
    <inkscape:path-effect
       effect="taper_stroke"
       id="path-effect1353"
       is_visible="true"
       lpeversion="1"
       stroke_width="3.6555191"
       attach_start="0.7"
       end_offset="0.2"
       start_smoothing="0.5"
       end_smoothing="0.5"
       jointype="extrapolated"
       start_shape="center"
       end_shape="center"
       miter_limit="100" />
    <inkscape:path-effect
       effect="taper_stroke"
       id="path-effect6634"
       is_visible="true"
       lpeversion="1"
       stroke_width="3.6555191"
       attach_start="0.7"
       end_offset="0.2"
       start_smoothing="0.5"
       end_smoothing="0.5"
       jointype="extrapolated"
       start_shape="center"
       end_shape="center"
       miter_limit="100" />
    <inkscape:path-effect
       effect="join_type"
       id="path-effect9780"
       is_visible="true"
       lpeversion="1"
       linecap_type="square"
       line_width="2.5"
       linejoin_type="extrp_arc"
       miter_limit="100"
       attempt_force_join="true" />
    <inkscape:path-effect
       effect="taper_stroke"
       id="path-effect9528"
       is_visible="true"
       lpeversion="1"
       stroke_width="1.8456967"
       attach_start="0.2"
       end_offset="0.2"
       start_smoothing="0.8"
       end_smoothing="0.8"
       jointype="extrapolated"
       start_shape="center"
       end_shape="center"
       miter_limit="100" />
    <inkscape:path-effect
       effect="taper_stroke"
       id="path-effect9522"
       is_visible="true"
       lpeversion="1"
       stroke_width="1.3185165"
       attach_start="0.2"
       end_offset="0.2"
       start_smoothing="0.5"
       end_smoothing="0.5"
       jointype="extrapolated"
       start_shape="center"
       end_shape="center"
       miter_limit="100" />
    <inkscape:path-effect
       effect="taper_stroke"
       id="path-effect9516"
       is_visible="true"
       lpeversion="1"
       stroke_width="3.8085804"
       attach_start="0.2"
       end_offset="0.8"
       start_smoothing="0.5"
       end_smoothing="0.5"
       jointype="extrapolated"
       start_shape="center"
       end_shape="center"
       miter_limit="100" />
    <inkscape:path-effect
       effect="taper_stroke"
       id="path-effect9350"
       is_visible="true"
       lpeversion="1"
       stroke_width="4.887397"
       attach_start="0.2"
       end_offset="0.8"
       start_smoothing="0.5"
       end_smoothing="0.5"
       jointype="extrapolated"
       start_shape="center"
       end_shape="center"
       miter_limit="100" />
    <inkscape:path-effect
       effect="taper_stroke"
       id="path-effect6889"
       is_visible="true"
       lpeversion="1"
       stroke_width="8"
       attach_start="0.2"
       end_offset="0"
       start_smoothing="0.5"
       end_smoothing="0.5"
       jointype="extrapolated"
       start_shape="left"
       end_shape="center"
       miter_limit="100" />
    <inkscape:path-effect
       effect="taper_stroke"
       id="path-effect6883"
       is_visible="true"
       lpeversion="1"
       stroke_width="8"
       attach_start="0.2"
       end_offset="0"
       start_smoothing="0.5"
       end_smoothing="0.5"
       jointype="extrapolated"
       start_shape="left"
       end_shape="center"
       miter_limit="100" />
    <inkscape:path-effect
       effect="taper_stroke"
       id="path-effect5435"
       is_visible="true"
       lpeversion="1"
       stroke_width="2.59115"
       attach_start="0.2"
       end_offset="0.2"
       start_smoothing="0.5"
       end_smoothing="0.5"
       jointype="extrapolated"
       start_shape="center"
       end_shape="center"
       miter_limit="100" />
    <inkscape:path-effect
       effect="taper_stroke"
       id="path-effect5433"
       is_visible="true"
       lpeversion="1"
       stroke_width="1.3183547"
       attach_start="0.2"
       end_offset="0.2"
       start_smoothing="0.5"
       end_smoothing="0.5"
       jointype="extrapolated"
       start_shape="center"
       end_shape="center"
       miter_limit="100" />
    <inkscape:path-effect
       effect="taper_stroke"
       id="path-effect5431"
       is_visible="true"
       lpeversion="1"
       stroke_width="1.8456967"
       attach_start="0.2"
       end_offset="0.2"
       start_smoothing="0.8"
       end_smoothing="0.8"
       jointype="extrapolated"
       start_shape="center"
       end_shape="center"
       miter_limit="100" />
    <inkscape:path-effect
       effect="taper_stroke"
       id="path-effect1563"
       is_visible="true"
       lpeversion="1"
       stroke_width="2.8712699"
       attach_start="0.2"
       end_offset="0.2"
       start_smoothing="0.5"
       end_smoothing="0.5"
       jointype="extrapolated"
       start_shape="center"
       end_shape="center"
       miter_limit="100" />
    <inkscape:path-effect
       effect="taper_stroke"
       id="path-effect1398"
       is_visible="true"
       lpeversion="1"
       stroke_width="3.8085804"
       attach_start="0.2"
       end_offset="0.8"
       start_smoothing="0.5"
       end_smoothing="0.5"
       jointype="extrapolated"
       start_shape="center"
       end_shape="center"
       miter_limit="100" />
    <marker
       style="overflow:visible"
       id="Arrow1Lstart"
       refX="0"
       refY="0"
       orient="auto"
       inkscape:stockid="Arrow1Lstart"
       inkscape:isstock="true">
      <path
         transform="matrix(0.8,0,0,0.8,10,0)"
         style="fill:context-stroke;fill-rule:evenodd;stroke:context-stroke;stroke-width:1pt"
         d="M 0,0 5,-5 -12.5,0 5,5 Z"
         id="path1667" />
    </marker>
    <style
       id="style824"
       type="text/css"><![CDATA[
    .fil0 {fill:none}
    .fil1 {fill:#003399}
   ]]></style>
    <symbol
       id="inkstitch_fill_start">
      <title
         id="inkstitch_title9432">Fill stitch starting point</title>
      <path
         id="inkstitch_circle13166-6"
         d="m 9.2465269,-2.6e-6 c -1.9e-6,5.106729 -4.1398247,9.24655 -9.246554026709,9.24655 C -5.106756,9.2465474 -9.2465782,5.1067264 -9.2465801,-2.6e-6 c 2e-7,-5.10673 4.1398229,-9.246553 9.246552973291,-9.246553 2.452338526709,0 4.804235626709,0.974187 6.538300926709,2.708252 1.7340652,1.734066 2.708253,4.085963 2.7082531,6.538301 0,0 0,0 0,0"
         style="opacity:1;vector-effect:none;fill:#fafafa;fill-opacity:1;fill-rule:evenodd;stroke:#003399;stroke-width:1.06501;stroke-linecap:round;stroke-linejoin:miter;stroke-miterlimit:4;stroke-dasharray:3.19504, 3.19504;stroke-dashoffset:0;stroke-opacity:1"
         inkscape:connector-curvature="0" />
      <path
         style="opacity:1;vector-effect:none;fill:#000000;fill-opacity:1;fill-rule:evenodd;stroke:none;stroke-width:2.74181;stroke-linecap:butt;stroke-linejoin:miter;stroke-miterlimit:4;stroke-dasharray:none;stroke-dashoffset:0;stroke-opacity:1"
         d="m 6.5728129,0.0035574 c 0,0 -10.4514,6.03412 -10.4514,6.03412 0,0 0,-12.06823 0,-12.06823 0,0 10.4514,6.03411 10.4514,6.03411"
         id="inkstitch_path4183"
         inkscape:connector-curvature="0" />
    </symbol>
    <symbol
       id="inkstitch_fill_end">
      <title
         id="inkstitch_title9427">Fill stitch ending point</title>
      <path
         id="inkstitch_circle13166"
         d="m 9.220113,0.0792309 c -1.9e-6,5.106729 -4.1398241,9.24655 -9.246553,9.24655 -5.1067293,0 -9.2465521,-4.139821 -9.246554,-9.24655 1e-7,-2.452338 0.9741879,-4.804235 2.7082531,-6.538301 1.7340653,-1.734065 4.0859624,-2.708252 6.5383009,-2.708252 5.1067301,0 9.2465528,4.139823 9.246553,9.246553 0,0 0,0 0,0"
         style="opacity:1;vector-effect:none;fill:#fafafa;fill-opacity:1;fill-rule:evenodd;stroke:#003399;stroke-width:1.065;stroke-linecap:round;stroke-linejoin:miter;stroke-miterlimit:4;stroke-dasharray:3.195, 3.195;stroke-dashoffset:0;stroke-opacity:1"
         inkscape:connector-curvature="0" />
      <path
         style="opacity:1;fill:#000000;fill-opacity:1;fill-rule:nonzero;stroke:none;stroke-width:2.27154;stroke-linecap:round;stroke-linejoin:round;stroke-miterlimit:4;stroke-dasharray:4.81867, 4.81867;stroke-dashoffset:0;stroke-opacity:1;paint-order:fill markers stroke"
         d="m -4.570439,-4.5704391 c 0,0 9.140878,0 9.140878,0 0,0 0,9.14087 0,9.14087 0,0 -9.140878,0 -9.140878,0 0,0 0,-9.14087 0,-9.14087"
         id="inkstitch_rect5371-2"
         inkscape:connector-curvature="0" />
    </symbol>
  </defs>
  <sodipodi:namedview
     id="base"
     pagecolor="#fafafa"
     bordercolor="#666666"
     borderopacity="1.0"
     inkscape:pageopacity="0.78431373"
     inkscape:pageshadow="2"
     inkscape:zoom="1.4142136"
     inkscape:cx="648.06335"
     inkscape:cy="752.71515"
     inkscape:document-units="in"
     inkscape:current-layer="layer2"
     showgrid="true"
     inkscape:window-width="1440"
     inkscape:window-height="783"
     inkscape:window-x="0"
     inkscape:window-y="25"
     inkscape:window-maximized="0"
     objecttolerance="3"
     gridtolerance="3"
     guidetolerance="3"
     inkscape:snap-perpendicular="true"
     inkscape:snap-tangential="true"
     inkscape:showpageshadow="true"
     borderlayer="false"
     inkscape:snap-path-clip="false"
     inkscape:pagecheckerboard="false"
     fit-margin-top="10"
     fit-margin-left="10"
     fit-margin-right="10"
     fit-margin-bottom="10"
     units="in">
    <inkscape:grid
       type="xygrid"
       id="grid3702"
       units="in"
       spacingx="0.50000002"
       spacingy="0.50000002"
       dotted="false"
       originx="0"
       originy="0"
       empspacing="20"
       color="#ff7300"
       opacity="0.09803922"
       empcolor="#0000ff"
       empopacity="0.09803922" />
  </sodipodi:namedview>
  <metadata
     id="metadata5">
    <rdf:RDF>
      <cc:Work
         rdf:about="">
        <dc:format>image/svg+xml</dc:format>
        <dc:type
           rdf:resource="http://purl.org/dc/dcmitype/StillImage" />
        <dc:title>inkStitch - Embroidery Hoops Template</dc:title>
        <cc:license
           rdf:resource="http://creativecommons.org/publicdomain/zero/1.0/" />
        <dc:date>180404</dc:date>
        <dc:creator>
          <cc:Agent>
            <dc:title>X3msnake</dc:title>
          </cc:Agent>
        </dc:creator>
        <dc:rights>
          <cc:Agent>
            <dc:title>CC0</dc:title>
          </cc:Agent>
        </dc:rights>
      </cc:Work>
      <cc:License
         rdf:about="http://creativecommons.org/publicdomain/zero/1.0/">
        <cc:permits
           rdf:resource="http://creativecommons.org/ns#Reproduction" />
        <cc:permits
           rdf:resource="http://creativecommons.org/ns#Distribution" />
        <cc:permits
           rdf:resource="http://creativecommons.org/ns#DerivativeWorks" />
      </cc:License>
    </rdf:RDF>
  </metadata>
  <g
     inkscape:label="HOOPS REF"
     inkscape:groupmode="layer"
     id="layer1"
     transform="translate(-9.3905029,72.390505)"
     style="display:none;opacity:0.5"
     sodipodi:insensitive="true">
    <circle
       id="path3704-5-2"
       cx="189.3905"
       cy="107.6095"
       r="49.952381"
       style="opacity:0.335;fill:none;stroke:#000000;stroke-width:1;stroke-linecap:butt;stroke-linejoin:round;stroke-miterlimit:4;stroke-dasharray:0.5, 0.5;stroke-dashoffset:0"
       sodipodi:insensitive="true"
       inkscape:label="100x100" />
    <circle
       id="path3704-5"
       cx="189.3905"
       cy="107.6095"
       r="69.933334"
       style="display:none;opacity:0.335;fill:none;stroke:#000000;stroke-width:1;stroke-linecap:butt;stroke-linejoin:round;stroke-miterlimit:4;stroke-dasharray:0.5, 0.5;stroke-dashoffset:0"
       sodipodi:insensitive="true"
       inkscape:label="140x140" />
    <circle
       id="path3704-4"
       cx="189.3905"
       cy="107.6095"
       r="84.919044"
       style="display:none;opacity:0.335;fill:none;stroke:#000000;stroke-width:1;stroke-linecap:butt;stroke-linejoin:round;stroke-miterlimit:4;stroke-dasharray:0.5, 0.5;stroke-dashoffset:0"
       sodipodi:insensitive="true"
       inkscape:label="170x170" />
    <circle
       id="path3704"
       cx="189.3905"
       cy="107.6095"
       r="99.904762"
       style="display:none;opacity:0.335;fill:none;stroke:#000000;stroke-width:1;stroke-linecap:butt;stroke-linejoin:round;stroke-miterlimit:4;stroke-dasharray:0.5, 0.5;stroke-dashoffset:0"
       inkscape:label="200x200"
       sodipodi:insensitive="true" />
    <rect
       style="display:none;opacity:0.335;fill:none;stroke:#000000;stroke-width:1;stroke-linecap:butt;stroke-linejoin:round;stroke-miterlimit:4;stroke-dasharray:0.5, 0.5;stroke-dashoffset:0"
       id="rect3742"
       width="319.6095"
       height="319.6095"
       x="29.585754"
       y="-52.195255"
       ry="44.043102"
       sodipodi:insensitive="true"
       inkscape:label="320x320" />
    <g
       style="clip-rule:evenodd;display:inline;fill:#f9f9f9;fill-opacity:1;fill-rule:evenodd;stroke:#999999;stroke-width:20.97;stroke-miterlimit:4;stroke-dasharray:none;stroke-opacity:1;image-rendering:optimizeQuality;shape-rendering:geometricPrecision;text-rendering:geometricPrecision"
       id="g845"
       transform="matrix(0,0.0056763,-0.0056763,0,341.03436,-359.15659)"
       inkscape:label="inkStitch-logo"
       sodipodi:insensitive="true">
      <path
         style="fill:#f9f9f9;fill-opacity:1;stroke:none;stroke-width:25.7694;stroke-miterlimit:4;stroke-dasharray:none;stroke-opacity:1"
         d="m 53158.869,23350.193 h 1826.028 266.315 c 998.46,0 1815.618,892.05 1815.618,1982.018 v 2766.111 c 0,1089.966 -817.159,1982.014 -1815.618,1982.014 h -242.024 -2001.257 -290.607 c -999.324,0 -1816.482,-892.048 -1816.482,-1982.014 v -2766.111 c 0,-1089.968 817.158,-1982.018 1816.482,-1982.018 z"
         id="path992"
         inkscape:connector-curvature="0"
         sodipodi:nodetypes="ccssssccssssc"
         inkscape:label="bkg" />
      <path
         id="path912"
         d="m 54083.958,25539.209 h -26.503 c -7.363,0 -13.988,-5.89 -13.988,-13.985 v -150.92 c 0,-7.362 6.625,-13.252 13.988,-13.252 h 26.503 c 7.36,0 13.989,5.89 13.989,13.252 v 150.92 c 0,8.095 -6.629,13.985 -13.989,13.985 z m -800.235,-1439.978 c 33.129,-5.153 58.895,-34.602 58.895,-69.2 v 0 c 0,-38.282 -30.919,-69.938 -69.2,-69.938 h -73.619 c -19.139,0 -35.337,-8.835 -44.907,-25.032 -10.308,-16.195 -10.308,-34.6 -1.474,-51.531 22.087,-41.963 64.05,-70.675 118.526,-70.675 h 1423.783 c 75.827,0 137.666,61.84 137.666,137.669 v 148.707 h 226.01 c 847.349,0 1540.835,693.488 1540.835,1540.837 v 2150.396 c 0,847.35 -693.487,1540.835 -1540.835,1540.835 h -205.396 v 146.502 c 0,77.299 -62.575,139.874 -139.876,139.874 h -1418.629 c -76.563,0 -139.874,-62.575 -139.874,-139.874 v -146.502 h -246.624 c -848.083,0 -1541.57,-693.485 -1541.57,-1540.835 v -2150.396 c 0,-847.349 693.487,-1540.837 1541.57,-1540.837 z m 861.339,5341.024 v -54.477 c 0,-22.087 10.305,-41.226 26.503,-54.479 h 86.868 c 16.195,13.253 26.503,32.392 26.503,54.479 v 54.477 c 0,38.281 -31.656,69.938 -69.938,69.938 v 0 c -38.282,0 -69.936,-31.657 -69.936,-69.938 z m 362.201,-27.239 c 0,-38.281 31.657,-69.938 69.938,-69.938 38.282,0 69.939,31.657 69.939,69.938 0,39.018 -31.657,69.938 -69.939,69.938 -38.281,0 -69.938,-30.92 -69.938,-69.938 z m -362.201,-5371.944 v -54.476 c 0,-38.282 31.654,-69.939 69.936,-69.939 v 0 c 38.282,0 69.938,31.657 69.938,69.939 v 54.476 c 0,24.295 -12.515,45.644 -30.921,58.159 h -78.034 c -18.404,-12.515 -30.919,-33.864 -30.919,-58.159 z m 362.939,-27.239 c 0,-38.282 30.919,-69.199 69.2,-69.199 38.282,0 69.203,30.917 69.203,69.199 0,38.282 -30.921,69.203 -69.203,69.203 -38.281,0 -69.2,-30.921 -69.2,-69.203 z m -427.724,999.74 c 78.036,345.27 84.66,396.805 37.544,800.233 l 9.572,943.79 c 1.471,191.407 58.893,336.438 58.893,525.637 v 1057.897 l -38.279,69.938 h -154.601 l -38.282,-69.938 v -1057.897 c 0,-189.199 57.424,-334.229 58.895,-525.637 l 9.57,-943.79 c -47.115,-403.428 -40.489,-454.963 37.547,-800.233 0.735,-4.416 5.153,-7.36 9.57,-7.36 4.418,0 8.098,2.944 9.571,7.36 z m -424.778,3231.118 h -1105.751 v -264.292 h 1105.751 z m 0,-798.761 h -1141.825 v -25.032 l 645.634,-688.332 h -609.56 v -243.678 h 1147.713 v 22.822 l -644.9,690.543 h 602.938 z m 0,-1462.8 h -1105.751 v -260.609 h 481.465 l -481.465,-365.149 v -314.351 l 525.636,416.68 580.115,-449.808 v 318.768 l -509.441,393.86 h 509.441 z m 1420.099,2455.914 c 26.503,-44.171 45.646,-80.982 56.686,-111.9 10.308,-30.921 16.198,-61.104 16.198,-90.552 0,-29.447 -6.625,-53.005 -19.878,-71.409 -12.515,-17.669 -29.447,-26.503 -50.061,-26.503 -28.711,0 -61.839,31.657 -98.647,95.703 -5.889,10.308 -10.308,18.404 -13.988,23.558 l -27.239,48.59 c -26.503,47.116 -56.688,81.714 -90.551,104.537 -33.128,22.822 -71.41,33.866 -114.11,33.866 -57.421,0 -104.537,-21.351 -141.347,-64.784 -37.544,-43.436 -55.951,-99.386 -55.951,-168.588 0,-25.03 3.681,-53.003 9.573,-82.45 5.889,-29.448 14.723,-62.578 27.238,-98.652 h 167.851 c -21.351,34.601 -38.282,66.994 -50.061,97.912 -11.779,31.657 -17.67,57.424 -17.67,79.509 0,24.294 5.153,42.699 15.461,56.686 10.305,13.989 24.294,20.613 41.962,20.613 12.514,0 24.293,-3.681 35.337,-11.779 11.043,-8.833 20.612,-20.613 29.447,-37.543 l 46.38,-83.927 c 39.018,-70.673 75.09,-117.79 108.22,-142.082 32.392,-24.294 71.409,-36.073 117.051,-36.073 69.939,0 125.889,23.558 169.326,71.409 42.696,47.85 64.045,110.428 64.045,189.199 0,26.502 -2.206,55.95 -8.096,87.607 -5.889,30.919 -14.724,65.52 -26.503,103.066 z m 202.452,-735.451 h -566.864 v 227.481 h -150.18 v -625.021 h 150.18 v 226.745 h 566.864 z m 0,-503.548 h -717.044 v -170.796 h 717.044 z m 0,-505.025 h -566.864 v 227.481 h -150.18 v -625.757 h 150.18 v 226.746 h 566.864 z m -490.3,-1013.725 c -31.655,31.654 -55.213,62.575 -70.674,94.229 -15.459,32.393 -22.821,65.522 -22.821,100.121 0,61.104 20.614,110.43 62.575,148.711 41.964,39.017 95.704,58.159 161.225,58.159 65.521,0 118.527,-19.142 159.018,-57.424 40.488,-38.282 61.1,-87.606 61.1,-149.446 0,-36.073 -7.36,-72.145 -22.819,-108.217 -15.462,-36.073 -37.547,-72.148 -68.466,-108.219 l 190.671,11.042 c 20.614,30.919 36.809,64.049 47.117,100.857 11.043,36.073 16.194,73.619 16.194,113.372 0,41.964 -6.625,82.453 -19.14,121.472 -13.251,38.282 -33.127,74.354 -58.893,106.746 -36.074,46.381 -80.245,81.718 -132.515,106.012 -52.269,24.293 -108.955,36.807 -170.795,36.807 -53.005,0 -103.065,-8.834 -149.446,-27.237 -46.378,-18.405 -87.605,-44.172 -122.941,-78.774 -35.338,-35.337 -62.575,-75.825 -81.717,-121.47 -19.14,-45.641 -28.713,-94.231 -28.713,-145.027 0,-39.756 5.89,-78.038 16.934,-114.846 11.042,-36.808 28.712,-71.409 51.533,-104.537 z m 490.3,-133.252 h -717.044 v -168.586 h 263.554 v -276.806 h -263.554 V 24934.8 h 717.044 v 167.851 h -301.099 v 276.806 h 301.099 z m -3648.533,2242.421 c 0,703.056 576.432,1279.491 1279.488,1279.491 h 2150.398 c 703.057,0 1279.489,-576.435 1279.489,-1279.491 v -2150.396 c 0,-703.058 -576.432,-1279.49 -1279.489,-1279.49 h -2150.398 c -703.056,0 -1279.488,576.432 -1279.488,1279.49 z"
         class="fil1"
         inkscape:connector-curvature="0"
         style="fill:#f9f9f9;fill-opacity:1;stroke:#999999;stroke-width:52.328;stroke-miterlimit:4;stroke-dasharray:none;stroke-opacity:1;paint-order:stroke fill markers"
         inkscape:label="logo" />
    </g>
    <path
       id="path1018"
       style="fill:#999999;stroke:#b3b3b3;stroke-width:0.1;stroke-linecap:butt;stroke-linejoin:miter;stroke-miterlimit:4;stroke-dasharray:none;stroke-opacity:1"
       d="m 192.92603,111.14502 -7.07107,-7.07106 m 7.07106,1e-5 -7.07106,7.07107"
       inkscape:connector-curvature="0"
       inkscape:label="default-origin"
       sodipodi:insensitive="true" />
  </g>
  <g
     inkscape:groupmode="layer"
     id="layer3"
     inkscape:label="hand ref"
     style="display:none">
    <path
       style="display:inline;fill:none;stroke:#000000;stroke-width:0.394336px;stroke-linecap:butt;stroke-linejoin:miter;stroke-opacity:1"
       d="m 142.71828,166.57958 c 0,0 -7.09187,37.82366 -6.24084,49.60929 0.85103,11.78562 13.61975,13.43013 13.61975,13.43013 0,0 17.3008,1.9186 24.39265,-6.30393 7.09187,-8.22254 -11.0633,-58.65408 -11.0633,-58.65408"
       id="path998"
       sodipodi:nodetypes="cscsc" />
    <path
       style="display:inline;fill:none;stroke:#000000;stroke-width:0.394336px;stroke-linecap:butt;stroke-linejoin:miter;stroke-opacity:1"
       d="m 194.72893,163.77325 c 0,0 -7.09187,37.82366 -6.24084,49.60929 0.85103,11.78562 13.61975,13.43013 13.61975,13.43013 0,0 17.3008,1.9186 24.39265,-6.30393 7.09187,-8.22254 -11.0633,-58.65408 -11.0633,-58.65408"
       id="path1373"
       sodipodi:nodetypes="cscsc" />
  </g>
  <g
     id="layer2"
     inkscape:label="DESIGN LAYER"
     transform="translate(-9.3905,19.3905)">
    <path
       style="fill:#000000;fill-rule:nonzero;stroke:none;stroke-width:4.02107;stroke-linecap:butt;stroke-linejoin:miter;stroke-miterlimit:4;stroke-dasharray:none;stroke-opacity:1"
       d="m 145.37957,190.00259 c -1.72602,2.24071 -2.00407,5.5968 -2.00407,5.5968 0,0 3.174,-1.12533 4.90003,-3.36604 l 0.49315,-0.6402 c 0.49315,-0.64021 -0.46168,-2.39579 -0.46168,-2.39579 0,0 -1.94113,-0.47518 -2.43428,0.16503 z"
       id="path6329"
       inkscape:path-effect="#path-effect6634"
       inkscape:original-d="m 143.3755,195.59939 4.9315,-6.40203"
       inkscape:label="thumb"
       inkstitch:angle="-30"
       inkstitch:row_spacing_mm="0.15" />
    <path
       style="display:inline;fill:#000000;fill-rule:nonzero;stroke:none;stroke-width:4.02107;stroke-linecap:butt;stroke-linejoin:miter;stroke-miterlimit:4;stroke-dasharray:none;stroke-opacity:1"
       d="m 154.31676,200.60951 c -0.37443,2.80353 1.06282,5.84901 1.06282,5.84901 0,0 2.1861,-2.56157 2.56053,-5.36509 l 0.10698,-0.80101 c 0.10697,-0.801 -1.59772,-1.84397 -1.59772,-1.84397 0,0 -1.91865,0.55905 -2.02563,1.36005 z"
       id="path1349"
       inkscape:path-effect="#path-effect1353"
       inkscape:original-d="m 155.37958,206.45852 1.06979,-8.01007"
       inkscape:label="index"
       inkstitch:angle="0"
       inkstitch:row_spacing_mm="0.15" />
    <path
       style="fill:#000000;fill-rule:nonzero;stroke:none;stroke-width:4.02107;stroke-linecap:butt;stroke-linejoin:miter;stroke-miterlimit:4;stroke-dasharray:none;stroke-opacity:1"
       d="m 160.91604,202.46904 c 0.21664,2.82011 2.25567,5.50023 2.25567,5.50023 0,0 1.60575,-2.96011 1.38911,-5.78022 l -0.0619,-0.80574 c -0.0619,-0.80575 -1.94618,-1.4715 -1.94618,-1.4715 0,0 -1.76049,0.94574 -1.6986,1.75149 z"
       id="path1355"
       inkscape:path-effect="#path-effect1359"
       inkscape:original-d="m 163.17171,207.96927 -0.61897,-8.05746"
       inkscape:label="middle"
       inkstitch:row_spacing_mm="0.15" />
    <path
       style="fill:#000000;fill-rule:nonzero;stroke:none;stroke-width:4.02107;stroke-linecap:butt;stroke-linejoin:miter;stroke-miterlimit:4;stroke-dasharray:none;stroke-opacity:1"
       d="m 167.04916,200.95894 c 0.70305,2.73966 3.1765,5.02499 3.1765,5.02499 0,0 1.06734,-3.19397 0.36429,-5.93363 l -0.20087,-0.78275 c -0.20087,-0.78276 -2.17214,-1.1112 -2.17214,-1.1112 0,0 -1.56952,1.23708 -1.36865,2.01984 z"
       id="path1361"
       inkscape:path-effect="#path-effect1365"
       inkscape:original-d="m 170.22566,205.98393 -2.00872,-7.82758"
       inkscape:label="ring"
       inkstitch:row_spacing_mm="0.15"
       inkstitch:angle="15" />
    <path
       style="fill:#000000;fill-rule:nonzero;stroke:none;stroke-width:3.39167;stroke-linecap:butt;stroke-linejoin:miter;stroke-miterlimit:4;stroke-dasharray:none;stroke-opacity:1"
       d="m 172.62692,195.72421 c 0.63727,2.15032 2.75266,3.86259 2.75266,3.86259 0,0 0.84086,-2.58838 0.20359,-4.7387 l -0.18208,-0.61438 c -0.18208,-0.61438 -1.84228,-0.7907 -1.84228,-0.7907 0,0 -1.29605,1.05243 -1.11397,1.66681 z"
       id="path1367"
       inkscape:path-effect="#path-effect1371"
       inkscape:original-d="m 175.37958,199.5868 -1.82077,-6.14378"
       inkscape:label="pinky"
       inkstitch:row_spacing_mm="0.15"
       inkstitch:angle="25" />
    <path
       style="fill:#000000;fill-rule:nonzero;stroke:none;stroke-width:4.02107;stroke-linecap:butt;stroke-linejoin:miter;stroke-miterlimit:4;stroke-dasharray:none;stroke-opacity:1"
       d="m 231.73555,190.60951 c 1.72603,2.24071 4.90003,3.36604 4.90003,3.36604 0,0 -0.27805,-3.35609 -2.00407,-5.5968 l -0.49315,-0.6402 c -0.49315,-0.64021 -2.43428,-0.16503 -2.43428,-0.16503 0,0 -0.95483,1.75558 -0.46168,2.39579 z"
       id="path2593"
       inkscape:path-effect="#path-effect2597"
       inkscape:original-d="m 236.63558,193.97555 -4.9315,-6.40203"
       inkscape:label="thumb"
       inkstitch:angle="-30"
       inkstitch:row_spacing_mm="0.15" />
    <path
       style="display:inline;fill:#000000;fill-rule:nonzero;stroke:none;stroke-width:4.02107;stroke-linecap:butt;stroke-linejoin:miter;stroke-miterlimit:4;stroke-dasharray:none;stroke-opacity:1"
       d="m 222.07097,199.46959 c 0.37443,2.80352 2.56053,5.36509 2.56053,5.36509 0,0 1.43725,-3.04548 1.06282,-5.84901 l -0.10698,-0.80101 c -0.10698,-0.801 -2.02563,-1.36005 -2.02563,-1.36005 0,0 -1.70469,1.04297 -1.59772,1.84397 z"
       id="path2599"
       inkscape:path-effect="#path-effect2603"
       inkscape:original-d="m 224.6315,204.83468 -1.06979,-8.01007"
       inkscape:label="index"
       inkstitch:angle="0"
       inkstitch:row_spacing_mm="0.15" />
    <path
       style="fill:#000000;fill-rule:nonzero;stroke:none;stroke-width:4.02107;stroke-linecap:butt;stroke-linejoin:miter;stroke-miterlimit:4;stroke-dasharray:none;stroke-opacity:1"
       d="m 215.45026,200.56521 c -0.21664,2.82011 1.38911,5.78022 1.38911,5.78022 0,0 2.03903,-2.68012 2.25567,-5.50023 l 0.0619,-0.80574 c 0.0619,-0.80575 -1.6986,-1.75149 -1.6986,-1.75149 0,0 -1.88429,0.66575 -1.94618,1.4715 z"
       id="path2605"
       inkscape:path-effect="#path-effect2609"
       inkscape:original-d="m 216.83937,206.34543 0.61897,-8.05746"
       inkscape:label="middle"
       inkstitch:row_spacing_mm="0.15" />
    <path
       style="fill:#000000;fill-rule:nonzero;stroke:none;stroke-width:4.02107;stroke-linecap:butt;stroke-linejoin:miter;stroke-miterlimit:4;stroke-dasharray:none;stroke-opacity:1"
       d="m 209.42113,198.42646 c -0.70305,2.73966 0.36429,5.93363 0.36429,5.93363 0,0 2.47345,-2.28533 3.1765,-5.02499 l 0.20087,-0.78275 c 0.20087,-0.78276 -1.36865,-2.01984 -1.36865,-2.01984 0,0 -1.97127,0.32844 -2.17214,1.1112 z"
       id="path2611"
       inkscape:path-effect="#path-effect2615"
       inkscape:original-d="m 209.78542,204.36009 2.00872,-7.82758"
       inkscape:label="ring"
       inkstitch:row_spacing_mm="0.15"
       inkstitch:angle="15" />
    <path
       style="fill:#000000;fill-rule:nonzero;stroke:none;stroke-width:3.39167;stroke-linecap:butt;stroke-linejoin:miter;stroke-miterlimit:4;stroke-dasharray:none;stroke-opacity:1"
       d="m 204.42791,193.22426 c -0.63727,2.15032 0.20359,4.7387 0.20359,4.7387 0,0 2.11539,-1.71227 2.75266,-3.86259 l 0.18208,-0.61438 c 0.18208,-0.61438 -1.11397,-1.66681 -1.11397,-1.66681 0,0 -1.6602,0.17632 -1.84228,0.7907 z"
       id="path2617"
       inkscape:path-effect="#path-effect2621"
       inkscape:original-d="m 204.6315,197.96296 1.82077,-6.14378"
       inkscape:label="pinky"
       inkstitch:row_spacing_mm="0.15"
       inkstitch:angle="25" />
    <path
       style="display:none;fill:none;stroke:#c42525;stroke-width:1;stroke-linecap:butt;stroke-linejoin:miter;stroke-miterlimit:4;stroke-dasharray:none;stroke-opacity:1"
       d="m 174.58979,113.25536 c 0,0 -15.52836,1.30962 -19.27014,5.61266 -3.74177,4.30304 7.67064,-2.43215 5.05139,6.54811"
       id="path2656"
       sodipodi:nodetypes="csc"
       inkscape:label="ear1"
       inkstitch:repeats="2" />
    <path
       style="display:none;fill:none;stroke:#c42525;stroke-width:1;stroke-linecap:butt;stroke-linejoin:miter;stroke-miterlimit:4;stroke-dasharray:none;stroke-opacity:1"
       d="m 204.05935,113.25536 c 0,0 15.52836,1.30962 19.27014,5.61266 3.74177,4.30304 -7.67064,-2.43215 -5.05139,6.54811"
       id="path2955"
       sodipodi:nodetypes="csc"
       inkscape:label="ear2"
       inkstitch:repeats="2" />
  </g>
</svg>
