<?xml version="1.0" encoding="UTF-8" standalone="no"?>
<!-- Created with Inkscape (http://www.inkscape.org/) -->

<svg
   width="360mm"
   height="360mm"
   viewBox="0 0 360 360"
   version="1.1"
   id="svg8"
   inkscape:version="1.1.2 (b8e25be8, 2022-02-05)"
   sodipodi:docname="demon-dog-face.svg"
   xmlns:inkscape="http://www.inkscape.org/namespaces/inkscape"
   xmlns:sodipodi="http://sodipodi.sourceforge.net/DTD/sodipodi-0.dtd"
   xmlns:xlink="http://www.w3.org/1999/xlink"
   xmlns="http://www.w3.org/2000/svg"
   xmlns:svg="http://www.w3.org/2000/svg"
   xmlns:rdf="http://www.w3.org/1999/02/22-rdf-syntax-ns#"
   xmlns:cc="http://creativecommons.org/ns#"
   xmlns:dc="http://purl.org/dc/elements/1.1/"
   xmlns:inkstitch="http://inkstitch.org/namespace">
  <title
     id="title1023">inkStitch - Embroidery Hoops Template</title>
  <defs
     id="defs2">
    <inkscape:path-effect
       effect="taper_stroke"
       id="path-effect3466"
       is_visible="true"
       lpeversion="1"
       stroke_width="3.5"
       attach_start="0"
       end_offset="0.4"
       start_smoothing="0.5"
       end_smoothing="0.5"
       jointype="extrapolated"
       start_shape="center"
       end_shape="center"
       miter_limit="100" />
    <inkscape:path-effect
       effect="taper_stroke"
       id="path-effect2874"
       is_visible="true"
       lpeversion="1"
       stroke_width="3.5"
       attach_start="0"
       end_offset="0.4"
       start_smoothing="0.5"
       end_smoothing="0.5"
       jointype="extrapolated"
       start_shape="center"
       end_shape="center"
       miter_limit="100" />
    <inkscape:path-effect
       effect="join_type"
       id="path-effect9780"
       is_visible="true"
       lpeversion="1"
       linecap_type="square"
       line_width="2.5"
       linejoin_type="extrp_arc"
       miter_limit="100"
       attempt_force_join="true" />
    <inkscape:path-effect
       effect="taper_stroke"
       id="path-effect9528"
       is_visible="true"
       lpeversion="1"
       stroke_width="1.8456967"
       attach_start="0.2"
       end_offset="0.2"
       start_smoothing="0.8"
       end_smoothing="0.8"
       jointype="extrapolated"
       start_shape="center"
       end_shape="center"
       miter_limit="100" />
    <inkscape:path-effect
       effect="taper_stroke"
       id="path-effect9522"
       is_visible="true"
       lpeversion="1"
       stroke_width="1.3185165"
       attach_start="0.2"
       end_offset="0.2"
       start_smoothing="0.5"
       end_smoothing="0.5"
       jointype="extrapolated"
       start_shape="center"
       end_shape="center"
       miter_limit="100" />
    <inkscape:path-effect
       effect="taper_stroke"
       id="path-effect9516"
       is_visible="true"
       lpeversion="1"
       stroke_width="4.8"
       attach_start="0.32558277"
       end_offset="0.8"
       start_smoothing="0.5"
       end_smoothing="0.5"
       jointype="extrapolated"
       start_shape="center"
       end_shape="center"
       miter_limit="100" />
    <inkscape:path-effect
       effect="taper_stroke"
       id="path-effect9350"
       is_visible="true"
       lpeversion="1"
       stroke_width="4.887397"
       attach_start="0.2"
       end_offset="0.8"
       start_smoothing="0.5"
       end_smoothing="0.5"
       jointype="extrapolated"
       start_shape="center"
       end_shape="center"
       miter_limit="100" />
    <inkscape:path-effect
       effect="taper_stroke"
       id="path-effect6889"
       is_visible="true"
       lpeversion="1"
       stroke_width="8"
       attach_start="0.2"
       end_offset="0"
       start_smoothing="0.5"
       end_smoothing="0.5"
       jointype="extrapolated"
       start_shape="left"
       end_shape="center"
       miter_limit="100" />
    <inkscape:path-effect
       effect="taper_stroke"
       id="path-effect6883"
       is_visible="true"
       lpeversion="1"
       stroke_width="8"
       attach_start="0.2"
       end_offset="0"
       start_smoothing="0.5"
       end_smoothing="0.5"
       jointype="extrapolated"
       start_shape="left"
       end_shape="center"
       miter_limit="100" />
    <inkscape:path-effect
       effect="taper_stroke"
       id="path-effect5435"
       is_visible="true"
       lpeversion="1"
       stroke_width="2.59115"
       attach_start="0.2"
       end_offset="0.2"
       start_smoothing="0.5"
       end_smoothing="0.5"
       jointype="extrapolated"
       start_shape="center"
       end_shape="center"
       miter_limit="100" />
    <inkscape:path-effect
       effect="taper_stroke"
       id="path-effect5433"
       is_visible="true"
       lpeversion="1"
       stroke_width="1.3183547"
       attach_start="0.2"
       end_offset="0.2"
       start_smoothing="0.5"
       end_smoothing="0.5"
       jointype="extrapolated"
       start_shape="center"
       end_shape="center"
       miter_limit="100" />
    <inkscape:path-effect
       effect="taper_stroke"
       id="path-effect5431"
       is_visible="true"
       lpeversion="1"
       stroke_width="1.8456967"
       attach_start="0.2"
       end_offset="0.2"
       start_smoothing="0.8"
       end_smoothing="0.8"
       jointype="extrapolated"
       start_shape="center"
       end_shape="center"
       miter_limit="100" />
    <inkscape:path-effect
       effect="taper_stroke"
       id="path-effect1563"
       is_visible="true"
       lpeversion="1"
       stroke_width="2.8712699"
       attach_start="0.2"
       end_offset="0.2"
       start_smoothing="0.5"
       end_smoothing="0.5"
       jointype="extrapolated"
       start_shape="center"
       end_shape="center"
       miter_limit="100" />
    <inkscape:path-effect
       effect="taper_stroke"
       id="path-effect1398"
       is_visible="true"
       lpeversion="1"
       stroke_width="4.8"
       attach_start="0.30448395"
       end_offset="0.8"
       start_smoothing="0.5"
       end_smoothing="0.5"
       jointype="extrapolated"
       start_shape="center"
       end_shape="center"
       miter_limit="100" />
    <marker
       style="overflow:visible"
       id="Arrow1Lstart"
       refX="0.0"
       refY="0.0"
       orient="auto"
       inkscape:stockid="Arrow1Lstart"
       inkscape:isstock="true">
      <path
         transform="scale(0.8) translate(12.5,0)"
         style="fill-rule:evenodd;fill:context-stroke;stroke:context-stroke;stroke-width:1.0pt"
         d="M 0.0,0.0 L 5.0,-5.0 L -12.5,0.0 L 5.0,5.0 L 0.0,0.0 z "
         id="path1667" />
    </marker>
    <style
       id="style824"
       type="text/css"><![CDATA[
    .fil0 {fill:none}
    .fil1 {fill:#003399}
   ]]></style>
    <symbol
       id="inkstitch_fill_start">
      <title
         id="inkstitch_title9432">Fill stitch starting point</title>
      <path
         id="inkstitch_circle13166-6"
         d="m 9.2465269,-2.6e-6 c -1.9e-6,5.106729 -4.1398247,9.24655 -9.246554026709,9.24655 C -5.106756,9.2465474 -9.2465782,5.1067264 -9.2465801,-2.6e-6 c 2e-7,-5.10673 4.1398229,-9.246553 9.246552973291,-9.246553 2.452338526709,0 4.804235626709,0.974187 6.538300926709,2.708252 1.7340652,1.734066 2.708253,4.085963 2.7082531,6.538301 0,0 0,0 0,0"
         style="opacity:1;vector-effect:none;fill:#fafafa;fill-opacity:1;fill-rule:evenodd;stroke:#003399;stroke-width:1.06501234;stroke-linecap:round;stroke-linejoin:miter;stroke-miterlimit:4;stroke-dasharray:3.19503705, 3.19503705;stroke-dashoffset:0;stroke-opacity:1"
         inkscape:connector-curvature="0" />
      <path
         style="opacity:1;vector-effect:none;fill:#000000;fill-opacity:1;fill-rule:evenodd;stroke:none;stroke-width:2.74180555;stroke-linecap:butt;stroke-linejoin:miter;stroke-miterlimit:4;stroke-dasharray:none;stroke-dashoffset:0;stroke-opacity:1"
         d="m 6.5728129,0.0035574 c 0,0 -10.4514,6.03412 -10.4514,6.03412 0,0 0,-12.06823 0,-12.06823 0,0 10.4514,6.03411 10.4514,6.03411"
         id="inkstitch_path4183"
         inkscape:connector-curvature="0" />
    </symbol>
    <symbol
       id="inkstitch_fill_end">
      <title
         id="inkstitch_title9427">Fill stitch ending point</title>
      <path
         id="inkstitch_circle13166"
         d="m 9.220113,0.0792309 c -1.9e-6,5.106729 -4.1398241,9.24655 -9.246553,9.24655 -5.1067293,0 -9.2465521,-4.139821 -9.246554,-9.24655 1e-7,-2.452338 0.9741879,-4.804235 2.7082531,-6.538301 1.7340653,-1.734065 4.0859624,-2.708252 6.5383009,-2.708252 5.1067301,0 9.2465528,4.139823 9.246553,9.246553 0,0 0,0 0,0"
         style="opacity:1;vector-effect:none;fill:#fafafa;fill-opacity:1;fill-rule:evenodd;stroke:#003399;stroke-width:1.06500006;stroke-linecap:round;stroke-linejoin:miter;stroke-miterlimit:4;stroke-dasharray:3.19500017, 3.19500017;stroke-dashoffset:0;stroke-opacity:1"
         inkscape:connector-curvature="0" />
      <path
         style="opacity:1;fill:#000000;fill-opacity:1;fill-rule:nonzero;stroke:none;stroke-width:2.27154255;stroke-linecap:round;stroke-linejoin:round;stroke-miterlimit:4;stroke-dasharray:4.81866985, 4.81866985;stroke-dashoffset:0;stroke-opacity:1;paint-order:fill markers stroke"
         d="m -4.570439,-4.5704391 c 0,0 9.140878,0 9.140878,0 0,0 0,9.14087 0,9.14087 0,0 -9.140878,0 -9.140878,0 0,0 0,-9.14087 0,-9.14087"
         id="inkstitch_rect5371-2"
         inkscape:connector-curvature="0" />
    </symbol>
  </defs>
  <sodipodi:namedview
     id="base"
     pagecolor="#fafafa"
     bordercolor="#666666"
     borderopacity="1.0"
     inkscape:pageopacity="0.78431373"
     inkscape:pageshadow="2"
     inkscape:zoom="1.2674181"
     inkscape:cx="718.38962"
     inkscape:cy="693.93045"
     inkscape:document-units="cm"
     inkscape:current-layer="layer2"
     showgrid="true"
     inkscape:window-width="1440"
     inkscape:window-height="783"
     inkscape:window-x="5"
     inkscape:window-y="35"
     inkscape:window-maximized="0"
     objecttolerance="3"
     gridtolerance="3"
     guidetolerance="3"
     inkscape:snap-perpendicular="true"
     inkscape:snap-tangential="true"
     inkscape:showpageshadow="true"
     borderlayer="false"
     inkscape:snap-path-clip="false"
     inkscape:pagecheckerboard="false"
     fit-margin-top="10"
     fit-margin-left="10"
     fit-margin-right="10"
     fit-margin-bottom="10">
    <inkscape:grid
       type="xygrid"
       id="grid3702"
       units="mm"
       spacingx="0.50000002"
       spacingy="0.50000002"
       dotted="false"
       originx="0"
       originy="0"
       empspacing="20"
       color="#ff7300"
       opacity="0.09803922"
       empcolor="#0000ff"
       empopacity="0.09803922" />
  </sodipodi:namedview>
  <metadata
     id="metadata5">
    <rdf:RDF>
      <cc:Work
         rdf:about="">
        <dc:format>image/svg+xml</dc:format>
        <dc:type
           rdf:resource="http://purl.org/dc/dcmitype/StillImage" />
        <dc:title>inkStitch - Embroidery Hoops Template</dc:title>
        <cc:license
           rdf:resource="http://creativecommons.org/publicdomain/zero/1.0/" />
        <dc:date>180404</dc:date>
        <dc:creator>
          <cc:Agent>
            <dc:title>X3msnake</dc:title>
          </cc:Agent>
        </dc:creator>
        <dc:rights>
          <cc:Agent>
            <dc:title>CC0</dc:title>
          </cc:Agent>
        </dc:rights>
      </cc:Work>
      <cc:License
         rdf:about="http://creativecommons.org/publicdomain/zero/1.0/">
        <cc:permits
           rdf:resource="http://creativecommons.org/ns#Reproduction" />
        <cc:permits
           rdf:resource="http://creativecommons.org/ns#Distribution" />
        <cc:permits
           rdf:resource="http://creativecommons.org/ns#DerivativeWorks" />
      </cc:License>
    </rdf:RDF>
  </metadata>
  <g
     inkscape:label="HOOPS REF"
     inkscape:groupmode="layer"
     id="layer1"
     transform="translate(-9.3905029,72.390505)"
     style="display:none;opacity:0.5"
     sodipodi:insensitive="true">
    <circle
       id="path3704-5-2"
       cx="189.3905"
       cy="107.6095"
       r="49.952381"
       style="opacity:0.335;fill:none;stroke:#000000;stroke-width:1;stroke-linecap:butt;stroke-linejoin:round;stroke-miterlimit:4;stroke-dasharray:0.5, 0.5;stroke-dashoffset:0"
       sodipodi:insensitive="true"
       inkscape:label="100x100" />
    <circle
       id="path3704-5"
       cx="189.3905"
       cy="107.6095"
       r="69.933334"
       style="opacity:0.335;fill:none;stroke:#000000;stroke-width:1;stroke-linecap:butt;stroke-linejoin:round;stroke-miterlimit:4;stroke-dasharray:0.5, 0.5;stroke-dashoffset:0"
       sodipodi:insensitive="true"
       inkscape:label="140x140" />
    <circle
       id="path3704-4"
       cx="189.3905"
       cy="107.6095"
       r="84.919044"
       style="opacity:0.335;fill:none;stroke:#000000;stroke-width:1;stroke-linecap:butt;stroke-linejoin:round;stroke-miterlimit:4;stroke-dasharray:0.5, 0.5;stroke-dashoffset:0"
       sodipodi:insensitive="true"
       inkscape:label="170x170" />
    <circle
       id="path3704"
       cx="189.3905"
       cy="107.6095"
       r="99.904762"
       style="opacity:0.335;fill:none;stroke:#000000;stroke-width:1;stroke-linecap:butt;stroke-linejoin:round;stroke-miterlimit:4;stroke-dasharray:0.5, 0.5;stroke-dashoffset:0"
       inkscape:label="200x200"
       sodipodi:insensitive="true" />
    <rect
       style="opacity:0.335;fill:none;stroke:#000000;stroke-width:1;stroke-linecap:butt;stroke-linejoin:round;stroke-miterlimit:4;stroke-dasharray:0.5, 0.5;stroke-dashoffset:0"
       id="rect3742"
       width="319.6095"
       height="319.6095"
       x="29.585754"
       y="-52.195255"
       ry="44.043102"
       sodipodi:insensitive="true"
       inkscape:label="320x320" />
    <g
       style="clip-rule:evenodd;fill:#f9f9f9;fill-opacity:1;fill-rule:evenodd;stroke:#999999;stroke-width:20.97;stroke-miterlimit:4;stroke-dasharray:none;stroke-opacity:1;image-rendering:optimizeQuality;shape-rendering:geometricPrecision;text-rendering:geometricPrecision"
       id="g845"
       transform="matrix(0,0.0056763,-0.0056763,0,341.03436,-359.15659)"
       inkscape:label="inkStitch-logo"
       sodipodi:insensitive="true">
      <path
         style="fill:#f9f9f9;fill-opacity:1;stroke:none;stroke-width:25.7694;stroke-miterlimit:4;stroke-dasharray:none;stroke-opacity:1"
         d="m 53158.869,23350.193 h 1826.028 266.315 c 998.46,0 1815.618,892.05 1815.618,1982.018 v 2766.111 c 0,1089.966 -817.159,1982.014 -1815.618,1982.014 h -242.024 -2001.257 -290.607 c -999.324,0 -1816.482,-892.048 -1816.482,-1982.014 v -2766.111 c 0,-1089.968 817.158,-1982.018 1816.482,-1982.018 z"
         id="path992"
         inkscape:connector-curvature="0"
         sodipodi:nodetypes="ccssssccssssc"
         inkscape:label="bkg" />
      <path
         id="path912"
         d="m 54083.958,25539.209 h -26.503 c -7.363,0 -13.988,-5.89 -13.988,-13.985 v -150.92 c 0,-7.362 6.625,-13.252 13.988,-13.252 h 26.503 c 7.36,0 13.989,5.89 13.989,13.252 v 150.92 c 0,8.095 -6.629,13.985 -13.989,13.985 z m -800.235,-1439.978 c 33.129,-5.153 58.895,-34.602 58.895,-69.2 v 0 c 0,-38.282 -30.919,-69.938 -69.2,-69.938 h -73.619 c -19.139,0 -35.337,-8.835 -44.907,-25.032 -10.308,-16.195 -10.308,-34.6 -1.474,-51.531 22.087,-41.963 64.05,-70.675 118.526,-70.675 h 1423.783 c 75.827,0 137.666,61.84 137.666,137.669 v 148.707 h 226.01 c 847.349,0 1540.835,693.488 1540.835,1540.837 v 2150.396 c 0,847.35 -693.487,1540.835 -1540.835,1540.835 h -205.396 v 146.502 c 0,77.299 -62.575,139.874 -139.876,139.874 h -1418.629 c -76.563,0 -139.874,-62.575 -139.874,-139.874 v -146.502 h -246.624 c -848.083,0 -1541.57,-693.485 -1541.57,-1540.835 v -2150.396 c 0,-847.349 693.487,-1540.837 1541.57,-1540.837 z m 861.339,5341.024 v -54.477 c 0,-22.087 10.305,-41.226 26.503,-54.479 h 86.868 c 16.195,13.253 26.503,32.392 26.503,54.479 v 54.477 c 0,38.281 -31.656,69.938 -69.938,69.938 v 0 c -38.282,0 -69.936,-31.657 -69.936,-69.938 z m 362.201,-27.239 c 0,-38.281 31.657,-69.938 69.938,-69.938 38.282,0 69.939,31.657 69.939,69.938 0,39.018 -31.657,69.938 -69.939,69.938 -38.281,0 -69.938,-30.92 -69.938,-69.938 z m -362.201,-5371.944 v -54.476 c 0,-38.282 31.654,-69.939 69.936,-69.939 v 0 c 38.282,0 69.938,31.657 69.938,69.939 v 54.476 c 0,24.295 -12.515,45.644 -30.921,58.159 h -78.034 c -18.404,-12.515 -30.919,-33.864 -30.919,-58.159 z m 362.939,-27.239 c 0,-38.282 30.919,-69.199 69.2,-69.199 38.282,0 69.203,30.917 69.203,69.199 0,38.282 -30.921,69.203 -69.203,69.203 -38.281,0 -69.2,-30.921 -69.2,-69.203 z m -427.724,999.74 c 78.036,345.27 84.66,396.805 37.544,800.233 l 9.572,943.79 c 1.471,191.407 58.893,336.438 58.893,525.637 v 1057.897 l -38.279,69.938 h -154.601 l -38.282,-69.938 v -1057.897 c 0,-189.199 57.424,-334.229 58.895,-525.637 l 9.57,-943.79 c -47.115,-403.428 -40.489,-454.963 37.547,-800.233 0.735,-4.416 5.153,-7.36 9.57,-7.36 4.418,0 8.098,2.944 9.571,7.36 z m -424.778,3231.118 h -1105.751 v -264.292 h 1105.751 z m 0,-798.761 h -1141.825 v -25.032 l 645.634,-688.332 h -609.56 v -243.678 h 1147.713 v 22.822 l -644.9,690.543 h 602.938 z m 0,-1462.8 h -1105.751 v -260.609 h 481.465 l -481.465,-365.149 v -314.351 l 525.636,416.68 580.115,-449.808 v 318.768 l -509.441,393.86 h 509.441 z m 1420.099,2455.914 c 26.503,-44.171 45.646,-80.982 56.686,-111.9 10.308,-30.921 16.198,-61.104 16.198,-90.552 0,-29.447 -6.625,-53.005 -19.878,-71.409 -12.515,-17.669 -29.447,-26.503 -50.061,-26.503 -28.711,0 -61.839,31.657 -98.647,95.703 -5.889,10.308 -10.308,18.404 -13.988,23.558 l -27.239,48.59 c -26.503,47.116 -56.688,81.714 -90.551,104.537 -33.128,22.822 -71.41,33.866 -114.11,33.866 -57.421,0 -104.537,-21.351 -141.347,-64.784 -37.544,-43.436 -55.951,-99.386 -55.951,-168.588 0,-25.03 3.681,-53.003 9.573,-82.45 5.889,-29.448 14.723,-62.578 27.238,-98.652 h 167.851 c -21.351,34.601 -38.282,66.994 -50.061,97.912 -11.779,31.657 -17.67,57.424 -17.67,79.509 0,24.294 5.153,42.699 15.461,56.686 10.305,13.989 24.294,20.613 41.962,20.613 12.514,0 24.293,-3.681 35.337,-11.779 11.043,-8.833 20.612,-20.613 29.447,-37.543 l 46.38,-83.927 c 39.018,-70.673 75.09,-117.79 108.22,-142.082 32.392,-24.294 71.409,-36.073 117.051,-36.073 69.939,0 125.889,23.558 169.326,71.409 42.696,47.85 64.045,110.428 64.045,189.199 0,26.502 -2.206,55.95 -8.096,87.607 -5.889,30.919 -14.724,65.52 -26.503,103.066 z m 202.452,-735.451 h -566.864 v 227.481 h -150.18 v -625.021 h 150.18 v 226.745 h 566.864 z m 0,-503.548 h -717.044 v -170.796 h 717.044 z m 0,-505.025 h -566.864 v 227.481 h -150.18 v -625.757 h 150.18 v 226.746 h 566.864 z m -490.3,-1013.725 c -31.655,31.654 -55.213,62.575 -70.674,94.229 -15.459,32.393 -22.821,65.522 -22.821,100.121 0,61.104 20.614,110.43 62.575,148.711 41.964,39.017 95.704,58.159 161.225,58.159 65.521,0 118.527,-19.142 159.018,-57.424 40.488,-38.282 61.1,-87.606 61.1,-149.446 0,-36.073 -7.36,-72.145 -22.819,-108.217 -15.462,-36.073 -37.547,-72.148 -68.466,-108.219 l 190.671,11.042 c 20.614,30.919 36.809,64.049 47.117,100.857 11.043,36.073 16.194,73.619 16.194,113.372 0,41.964 -6.625,82.453 -19.14,121.472 -13.251,38.282 -33.127,74.354 -58.893,106.746 -36.074,46.381 -80.245,81.718 -132.515,106.012 -52.269,24.293 -108.955,36.807 -170.795,36.807 -53.005,0 -103.065,-8.834 -149.446,-27.237 -46.378,-18.405 -87.605,-44.172 -122.941,-78.774 -35.338,-35.337 -62.575,-75.825 -81.717,-121.47 -19.14,-45.641 -28.713,-94.231 -28.713,-145.027 0,-39.756 5.89,-78.038 16.934,-114.846 11.042,-36.808 28.712,-71.409 51.533,-104.537 z m 490.3,-133.252 h -717.044 v -168.586 h 263.554 v -276.806 h -263.554 V 24934.8 h 717.044 v 167.851 h -301.099 v 276.806 h 301.099 z m -3648.533,2242.421 c 0,703.056 576.432,1279.491 1279.488,1279.491 h 2150.398 c 703.057,0 1279.489,-576.435 1279.489,-1279.491 v -2150.396 c 0,-703.058 -576.432,-1279.49 -1279.489,-1279.49 h -2150.398 c -703.056,0 -1279.488,576.432 -1279.488,1279.49 z"
         class="fil1"
         inkscape:connector-curvature="0"
         style="fill:#f9f9f9;fill-opacity:1;stroke:#999999;stroke-width:52.328;stroke-miterlimit:4;stroke-dasharray:none;stroke-opacity:1;paint-order:stroke fill markers"
         inkscape:label="logo" />
    </g>
    <path
       id="path1018"
       style="fill:#999999;stroke:#b3b3b3;stroke-width:0.1;stroke-linecap:butt;stroke-linejoin:miter;stroke-miterlimit:4;stroke-dasharray:none;stroke-opacity:1"
       d="m 192.92603,111.14502 -7.07107,-7.07106 m 7.07106,1e-5 -7.07106,7.07107"
       inkscape:connector-curvature="0"
       inkscape:label="default-origin"
       sodipodi:insensitive="true" />
  </g>
  <g
     id="layer2"
     inkscape:label="DESIGN LAYER"
     transform="translate(-9.3905,19.3905)">
    <path
       id="ellipse136"
       style="display:inline;fill:#f4d7d7;fill-opacity:1;stroke:none;stroke-width:1.65658;stroke-miterlimit:4;stroke-dasharray:none;stroke-opacity:1"
       inkscape:label="sclera_fill_L"
       d="m 160.67533,143.74746 c -7.33657,2e-5 -13.28357,5.5663 -13.28343,12.43252 1e-5,6.86613 5.94697,12.43251 13.28343,12.43252 2.02327,0 3.94065,-0.42421 5.65702,-1.18141 a 9.6572924,8.4564264 0 0 0 3.83697,-2.55665 c 2.34418,-2.2418 3.78995,-5.30998 3.78995,-8.69446 1.3e-4,-6.86622 -5.94738,-12.4325 -13.28394,-12.43252 z" />
    <path
       id="path9123"
       style="display:inline;fill:#f4d7d7;fill-opacity:1;stroke:none;stroke-width:1.65658;stroke-miterlimit:4;stroke-dasharray:none;stroke-opacity:1"
       inkscape:label="sclera_fill_R"
       d="m 218.49867,143.74211 c -7.33657,2e-5 -13.28357,5.56629 -13.28343,12.43253 2e-5,6.86613 5.94697,12.43202 13.28343,12.43203 7.33645,-1e-5 13.28392,-5.5659 13.28395,-12.43203 1.3e-4,-6.86624 -5.94739,-12.43251 -13.28395,-12.43253 z" />
    <path
       id="path1549"
       style="display:inline;fill:none;fill-opacity:1;stroke:#f4d7d7;stroke-width:1.01803;stroke-miterlimit:4;stroke-dasharray:none;stroke-opacity:1"
       d="m 173.95951,156.17998 a 13.283876,12.432273 0 0 1 -13.28387,12.43228 13.283876,12.432273 0 0 1 -13.28388,-12.43228 13.283876,12.432273 0 0 1 13.28388,-12.43227 13.283876,12.432273 0 0 1 13.28387,12.43227 z"
       inkscape:label="sclera_outline_L" />
    <path
       id="path9125"
       style="display:inline;fill:none;fill-opacity:1;stroke:#f4d7d7;stroke-width:1.02257;stroke-miterlimit:4;stroke-dasharray:none;stroke-opacity:1"
       d="m 205.21499,156.17455 a 13.283876,12.432273 0 0 0 13.28386,12.43227 13.283876,12.432273 0 0 0 13.28389,-12.43227 13.283876,12.432273 0 0 0 -13.28389,-12.43228 13.283876,12.432273 0 0 0 -13.28386,12.43228 z"
       inkscape:label="sclera_outline_R" />
    <path
       style="display:inline;fill:#ff2a2a;fill-opacity:1;stroke:none;stroke-width:2;stroke-linecap:butt;stroke-linejoin:miter;stroke-miterlimit:4;stroke-dasharray:none;stroke-opacity:1"
       d="m 174.50608,178.79461 c 0,0 2.83369,-7.80547 7.36759,-7.80547 4.5339,0 6.69599,1.17818 8.44863,1.17818 1.75264,0 4.44838,-1.06087 9.38709,-1.01593 1.18744,0.0108 7.66747,6.75958 5.96725,7.64322 -1.70021,0.88363 -9.31434,2.20909 -15.35434,2.35637 -6.04,0.14727 -13.70974,-1.2531 -15.81622,-2.35637 z"
       id="path2557"
       sodipodi:nodetypes="csssssc"
       inkscape:label="mouth_fill" />
    <path
       style="display:inline;fill:#b33434;fill-opacity:1;stroke:none;stroke-width:0.152343;stroke-linecap:butt;stroke-linejoin:miter;stroke-miterlimit:4;stroke-dasharray:none;stroke-opacity:1"
       d="m 190.41773,177.46818 c 0,0 -8.69129,1.24755 -6.74376,2.1704 7.65778,3.62863 13.64255,0.85266 13.64255,0.85266 0,0 -2.40295,-3.2556 -6.89879,-3.02306 z"
       id="path7235"
       inkscape:label="tongue_fill"
       sodipodi:nodetypes="cscc" />
    <path
       style="display:inline;fill:none;stroke:#b33434;stroke-width:1.17187;stroke-linecap:butt;stroke-linejoin:miter;stroke-miterlimit:4;stroke-dasharray:none;stroke-opacity:1"
       d="m 183.57646,179.85529 c 0,0 5.85288,-5.8235 13.73297,0.27405"
       id="path7084"
       inkscape:label="tongue_outline"
       sodipodi:nodetypes="cc" />
    <path
       style="display:inline;fill:#ffffff;fill-rule:nonzero;stroke:none;stroke-width:3.5;stroke-linecap:butt;stroke-linejoin:miter;stroke-miterlimit:4;stroke-dasharray:none;stroke-opacity:1"
       d="m 180.35516,171.98486 0.4899,3.23454 c 0.1633,1.07817 2.05686,1.89429 2.05686,1.89429 0,0 1.56697,-1.34024 1.40367,-2.41842 l -0.48989,-3.23453 z"
       id="path8512"
       inkscape:label="tooth1"
       sodipodi:nodetypes="cc"
       inkscape:path-effect="#path-effect2874"
       inkscape:original-d="m 182.08543,171.7228 0.81649,5.39089" />
    <path
       style="display:inline;fill:none;stroke:#ffffff;stroke-width:3.43047;stroke-linecap:butt;stroke-linejoin:miter;stroke-miterlimit:4;stroke-dasharray:none;stroke-opacity:1"
       d="m 182.37505,172.50963 11.1798,1.98789"
       id="path8703"
       inkscape:label="tooth2"
       sodipodi:nodetypes="cc" />
    <path
       style="display:inline;fill:#ffffff;fill-rule:nonzero;stroke:none;stroke-width:3.5;stroke-linecap:butt;stroke-linejoin:miter;stroke-miterlimit:4;stroke-dasharray:none;stroke-opacity:1"
       d="m 196.28723,171.19616 -0.48989,3.23453 c -0.1633,1.07818 1.40367,2.41842 1.40367,2.41842 0,0 1.89356,-0.81612 2.05686,-1.89429 l 0.4899,-3.23454 z"
       id="path3462"
       inkscape:label="tooth3"
       sodipodi:nodetypes="cc"
       inkscape:path-effect="#path-effect3466"
       inkscape:original-d="m 198.0175,171.45822 -0.81649,5.39089" />
    <path
       style="fill:#000000;fill-rule:nonzero;stroke:none;stroke-width:1.31835;stroke-linecap:butt;stroke-linejoin:miter;stroke-miterlimit:4;stroke-dasharray:none;stroke-opacity:1"
       d="m 169.98056,167.44077 c 0.29756,-0.0329 0.26261,-0.81924 0.26261,-0.81924 0,0 -0.5522,-0.55043 -0.76055,-0.37996 l -0.004,-0.009 c -1.29661,0.53839 -4.72901,1.85655 -7.46126,1.85655 -2.71115,0 -8.13456,-1.60678 -10.20737,-2.25802 -0.21314,-0.067 -0.48048,0.0353 -0.68869,0.1478 -0.14206,0.0612 -0.32476,0.20364 -0.33166,0.20895 0,0 0,0 0,0 -0.006,0.008 -0.005,0.007 -0.005,0.007 0,0 -3e-5,-0.001 4e-5,0.008 0,0 0,0 0,0 0.004,0.013 0.0633,0.22726 0.14609,0.36497 0.10454,0.21393 0.26686,0.45315 0.48396,0.52136 2.08916,0.65638 7.63826,2.31864 10.60253,2.31864 2.94319,0 6.63912,-1.40605 7.96682,-1.95735 z"
       id="path5189"
       inkscape:path-effect="#path-effect5433"
       inkscape:original-d="m 170.24692,166.61983 c 0,0 -4.68222,2.12829 -8.22937,2.12829 -3.54714,0 -11.23262,-2.55394 -11.23262,-2.55394"
       inkscape:label="eye_bottom" />
    <path
       style="fill:#000000;fill-rule:nonzero;stroke:none;stroke-width:2.63671;stroke-linecap:butt;stroke-linejoin:miter;stroke-miterlimit:4;stroke-dasharray:none;stroke-opacity:1"
       d="m 171.95667,148.63104 c 0.17353,0.12714 0.38608,0.10053 0.57995,0.0296 0,0 0,0 0,0 0.28395,-0.0833 0.53019,-0.30901 0.53019,-0.30901 0,0 0.19271,-0.27062 0.21944,-0.57855 0,0 0,0 0,0 0.0283,-0.21068 -0.006,-0.4421 -0.19403,-0.5971 -1.49529,-1.16697 -5.76708,-4.07596 -11.22445,-4.08521 -5.51231,-0.009 -8.41523,1.55803 -12.54207,5.75252 -2.74843,2.79452 -2.62355,4.19277 -2.62355,4.19277 0,0 1.26737,-0.18372 3.93922,-2.89832 3.84184,-3.90481 6.3968,-5.20949 11.22327,-5.20127 4.88137,0.008 8.74622,2.64423 10.09203,3.69455 z"
       id="path5074"
       inkscape:path-effect="#path-effect5431"
       inkscape:original-d="m 173.06924,148.35385 c 0,0 -4.74132,-4.32926 -11.20304,-4.34021 -6.46173,-0.011 -9.11027,2.23557 -15.16405,9.02244"
       inkscape:label="eye_top" />
    <path
       style="display:inline;fill:#000000;fill-opacity:1;fill-rule:nonzero;stroke:none;stroke-width:7.55;stroke-linecap:butt;stroke-linejoin:miter;stroke-miterlimit:4;stroke-dasharray:none;stroke-opacity:1"
       d="m 172.18621,143.65219 c 1.07718,0.65486 3.40024,-0.73962 3.40024,-0.73962 0,0 0.16871,-2.70421 -0.90847,-3.35907 l -0.0239,-0.0163 c -3.02116,-1.78726 -8.68181,-4.9681 -12.34821,-5.77146 -1.38279,-0.30299 -2.65828,-0.53703 -3.85724,-0.65307 -2.53709,-0.23898 -4.98107,0.34282 -7.00649,1.43328 0,0 0,0 0,0 -2.4551,1.36743 -4.30628,3.15429 -5.46296,4.36427 -1.20154,1.25693 -1.86864,2.09595 -1.86864,2.09595 0,0 1.02773,-0.31366 2.65379,-0.88018 1.45069,-0.50542 3.98844,-1.43127 6.14142,-1.93732 0,0 0,0 0,0 1.63994,-0.38331 3.36559,-0.47078 5.08048,-0.29832 0.94482,0.0914 1.99426,0.27974 3.29227,0.56415 2.82636,0.6193 7.97327,3.46383 10.93162,5.21393 z"
       id="path542"
       sodipodi:nodetypes="csc"
       inkscape:label="eyebrow_L"
       inkscape:original-d="m 175.58716,142.91302 c 0,0 -9.12739,-5.78014 -13.79498,-6.80287 -6.70198,-1.4685 -8.95563,-0.87368 -17.68164,4.89605"
       inkscape:path-effect="#path-effect1398" />
    <path
       style="display:inline;fill:none;stroke:#000000;stroke-width:2;stroke-linecap:butt;stroke-linejoin:miter;stroke-miterlimit:4;stroke-dasharray:none;stroke-opacity:1"
       d="m 174.50608,178.79461 c 0,0 2.83369,-7.80547 7.36759,-7.80547 4.5339,0 6.69599,1.17818 8.44863,1.17818 1.75264,0 4.44838,-1.06087 9.38709,-1.01593 1.18744,0.0108 7.66747,6.75958 5.96725,7.64322 -1.70021,0.88363 -9.31434,2.20909 -15.35434,2.35637 -6.04,0.14727 -13.70974,-1.2531 -15.81622,-2.35637 z"
       id="path1616"
       sodipodi:nodetypes="csssssc"
       inkscape:label="mouth_outline" />
    <path
       style="fill:#000000;fill-rule:nonzero;stroke:none;stroke-width:1.31851;stroke-linecap:butt;stroke-linejoin:miter;stroke-miterlimit:4;stroke-dasharray:none;stroke-opacity:1"
       d="m 209.89811,166.24112 c -0.24377,-0.1013 -0.7608,0.38041 -0.7608,0.38041 0,0 -0.008,0.70745 0.26261,0.81969 l -0.004,0.009 c 1.32802,0.5513 5.02483,1.95733 7.9687,1.95733 2.96495,0 8.51539,-1.66225 10.60506,-2.31863 0.21715,-0.0682 0.37953,-0.30746 0.48411,-0.52142 0.0828,-0.13772 0.14248,-0.35199 0.14616,-0.365 0,0 0,0 0,0 7e-5,-0.009 4e-5,-0.008 4e-5,-0.008 0,0 8e-4,0.001 -0.005,-0.007 0,0 0,0 0,0 -0.007,-0.005 -0.18962,-0.14775 -0.3317,-0.20899 -0.20825,-0.11256 -0.47564,-0.21482 -0.68883,-0.14785 -2.07333,0.65124 -7.49808,2.25803 -10.20994,2.25803 -2.73296,0 -6.16624,-1.31818 -7.46318,-1.85657 z"
       id="path9518"
       inkscape:path-effect="#path-effect9522"
       inkscape:original-d="m 209.13356,166.61983 c 0,0 4.68338,2.12829 8.2314,2.12829 3.54801,0 11.23537,-2.55394 11.23537,-2.55394"
       inkscape:label="eye_bottom" />
    <path
       style="fill:#000000;fill-rule:nonzero;stroke:none;stroke-width:4.22;stroke-linecap:butt;stroke-linejoin:miter;stroke-miterlimit:2;stroke-dasharray:none;stroke-opacity:1"
       d="m 207.08707,147.31495 c -0.49307,0.38276 0.02,1.16901 0.02,1.16901 0,0 0.70977,0.58274 1.10496,0.27275 l 0.005,0.007 c 1.34617,-1.05032 5.21204,-3.68635 10.09476,-3.69462 4.8278,-0.008 7.38345,1.29652 11.22625,5.20135 2.6725,2.7146 3.93995,2.89825 3.93995,2.89825 0,0 0.12464,-1.39836 -2.62444,-4.19286 -4.12785,-4.19447 -7.03142,-5.76182 -12.54489,-5.75244 -5.45858,0.009 -9.73136,2.91819 -11.227,4.08515 z"
       id="path9524"
       inkscape:path-effect="#path-effect9528"
       inkscape:original-d="m 207.1046,148.48616 c 0,0 4.74249,-4.32927 11.2058,-4.34022 6.4633,-0.011 9.11249,2.23557 15.16777,9.02245"
       inkscape:label="eye_top" />
    <path
       style="display:inline;fill:#000000;fill-opacity:1;fill-rule:nonzero;stroke:none;stroke-width:7.55335;stroke-linecap:butt;stroke-linejoin:miter;stroke-miterlimit:4;stroke-dasharray:none;stroke-opacity:1"
       d="m 205.13259,138.84022 c -1.23298,0.65741 -1.33743,3.43142 -1.33743,3.43142 0,0 2.36153,1.45917 3.59452,0.80176 l -0.0235,0.0139 c 3.04825,-1.5811 8.05661,-4.01775 10.86927,-4.63404 1.298,-0.28441 2.34745,-0.47271 3.29227,-0.56415 1.71489,-0.17246 3.44054,-0.085 5.08049,0.29831 0,0 0,0 0,0 2.15298,0.50604 4.69073,1.43189 6.14142,1.93731 1.62606,0.56652 2.65379,0.88018 2.65379,0.88018 0,0 -0.6671,-0.83902 -1.86864,-2.09594 -1.15668,-1.20999 -3.00786,-2.99684 -5.46297,-4.36427 0,0 0,0 0,0 -2.02543,-1.09045 -4.46941,-1.67226 -7.00649,-1.43327 -1.19896,0.11604 -2.47445,0.35008 -3.85724,0.65307 -3.48313,0.76319 -8.94789,3.45181 -12.052,5.06188 z"
       id="path9512"
       sodipodi:nodetypes="csc"
       inkscape:label="eyebrow_R"
       inkscape:original-d="m 203.79451,142.272 c 0,0 9.25969,-5.14043 13.92726,-6.16315 6.702,-1.4685 8.95564,-0.87369 17.68166,4.89603"
       inkscape:path-effect="#path-effect9516" />
    <ellipse
       id="circle9127"
       cx="-215.36862"
       cy="153.77928"
       style="display:inline;fill:#000000;stroke-width:0.0778031"
       inkscape:label="iris_fill_R"
       transform="scale(-1,1)"
       rx="2.2056758"
       ry="9.0186968" />
    <ellipse
       id="circle9127-6"
       cx="-163.23518"
       cy="153.05519"
       style="display:inline;fill:#000000;stroke-width:0.0778031"
       inkscape:label="iris_fill_R"
       transform="scale(-1,1)"
       rx="2.2056758"
       ry="9.0186968" />
    <g
       id="command_group1"
       inkscape:label="Ink/Stitch Command: Fill stitch starting position"
       transform="matrix(0.264583,0,0,0.264583,9.3905,-19.3905)">
      <path
         id="command_connector1"
         d="m 571.59866,580.66426 0.0815,35.92103"
         style="fill:none;stroke:#000000;stroke-width:1px;stroke-opacity:0.5"
         inkscape:connection-start="#command_use1"
         inkscape:connection-end="#ellipse136"
         inkscape:connector-type="polyline"
         inkscape:label="connector"
         inkscape:connector-curvature="0" />
      <use
         id="command_use1"
         xlink:href="#inkstitch_fill_start"
         height="100%"
         width="100%"
         x="571.59607"
         y="580.62836"
         inkscape:label="command marker" />
    </g>
    <g
       id="command_group2"
       inkscape:label="Ink/Stitch Command: Fill stitch ending position"
       transform="matrix(0.264583,0,0,0.264583,9.3905,-19.3905)">
      <path
         id="command_connector2"
         d="m 574.45122,740.57958 -1.03939,-30.04039"
         style="fill:none;stroke:#000000;stroke-width:1px;stroke-opacity:0.5"
         inkscape:connection-start="#command_use2"
         inkscape:connection-end="#ellipse136"
         inkscape:connector-type="polyline"
         inkscape:label="connector"
         inkscape:connector-curvature="0" />
      <use
         id="command_use2"
         xlink:href="#inkstitch_fill_end"
         height="100%"
         width="100%"
         x="574.47504"
         y="740.46472"
         inkscape:label="command marker" />
    </g>
    <g
       id="command_group3"
       inkscape:label="Ink/Stitch Command: Fill stitch starting position"
       transform="matrix(0.264583,0,0,0.264583,9.3905,-19.3905)">
      <path
         id="command_connector3"
         d="m 788.82736,580.64241 0.65206,35.92919"
         style="fill:none;stroke:#000000;stroke-width:1px;stroke-opacity:0.5"
         inkscape:connection-start="#command_use3"
         inkscape:connection-end="#path9123"
         inkscape:connector-type="polyline"
         inkscape:label="connector"
         inkscape:connector-curvature="0" />
      <use
         id="command_use3"
         xlink:href="#inkstitch_fill_start"
         height="100%"
         width="100%"
         x="788.82477"
         y="580.60651"
         inkscape:label="command marker" />
    </g>
    <g
       id="command_group4"
       inkscape:label="Ink/Stitch Command: Fill stitch ending position"
       transform="matrix(0.264583,0,0,0.264583,8.86133,23.2074)">
      <path
         id="command_connector4"
         d="m 788.80095,580.72136 1.41037,-31.22124"
         style="fill:none;stroke:#000000;stroke-width:1px;stroke-opacity:0.5"
         inkscape:connection-start="#command_use4"
         inkscape:connection-end="#path9123"
         inkscape:connector-type="polyline"
         inkscape:label="connector"
         inkscape:connector-curvature="0" />
      <use
         id="command_use4"
         xlink:href="#inkstitch_fill_end"
         height="100%"
         width="100%"
         x="788.82477"
         y="580.60651"
         inkscape:label="command marker" />
    </g>
    <g
       id="command_group5"
       inkscape:label="Ink/Stitch Command: Fill stitch starting position"
       transform="matrix(0.264583,0,0,0.264583,-10.9374,-2.72175)">
      <path
         id="command_connector5"
         d="m 553.6918,530.02674 42.99108,1.64404"
         style="fill:none;stroke:#000000;stroke-width:1px;stroke-opacity:0.5"
         inkscape:connection-start="#command_use5"
         inkscape:connection-end="#path542"
         inkscape:connector-type="polyline"
         inkscape:label="connector"
         inkscape:connector-curvature="0" />
      <use
         id="command_use5"
         xlink:href="#inkstitch_fill_start"
         height="100%"
         width="100%"
         x="553.68921"
         y="529.99084"
         inkscape:label="command marker" />
    </g>
    <g
       id="command_group6"
       inkscape:label="Ink/Stitch Command: Fill stitch ending position"
       transform="matrix(0.264583,0,0,0.264583,27.1176,-26.0051)">
      <path
         id="command_connector6"
         d="m 584.78777,610.17613 -44.06313,6.02397"
         style="fill:none;stroke:#000000;stroke-width:1px;stroke-opacity:0.5"
         inkscape:connection-start="#command_use6"
         inkscape:connection-end="#path542"
         inkscape:connector-type="polyline"
         inkscape:label="connector"
         inkscape:connector-curvature="0" />
      <use
         id="command_use6"
         xlink:href="#inkstitch_fill_end"
         height="100%"
         width="100%"
         x="584.81158"
         y="610.06128"
         inkscape:label="command marker" />
    </g>
    <g
       id="command_group7"
       inkscape:label="Ink/Stitch Command: Fill stitch starting position"
       transform="matrix(0.264583,0,0,0.264583,-9.30921,-4.57383)">
      <path
         id="command_connector7"
         d="m 786.62124,531.53266 37.36583,3.75822"
         style="fill:none;stroke:#000000;stroke-width:1px;stroke-opacity:0.5"
         inkscape:connection-start="#command_use7"
         inkscape:connection-end="#path9512"
         inkscape:connector-type="polyline"
         inkscape:label="connector"
         inkscape:connector-curvature="0" />
      <use
         id="command_use7"
         xlink:href="#inkstitch_fill_start"
         height="100%"
         width="100%"
         x="786.61865"
         y="531.49677"
         inkscape:label="command marker" />
    </g>
    <g
       id="command_group8"
       inkscape:label="Ink/Stitch Command: Fill stitch ending position"
       transform="matrix(0.264583,0,0,0.264583,50.6655,-9.29852)">
      <path
         id="command_connector8"
         d="m 716.66985,551.523 -31.97129,2.35834"
         style="fill:none;stroke:#000000;stroke-width:1px;stroke-opacity:0.5"
         inkscape:connection-start="#command_use8"
         inkscape:connection-end="#path9512"
         inkscape:connector-type="polyline"
         inkscape:label="connector"
         inkscape:connector-curvature="0" />
      <use
         id="command_use8"
         xlink:href="#inkstitch_fill_end"
         height="100%"
         width="100%"
         x="716.69366"
         y="551.40814"
         inkscape:label="command marker" />
    </g>
    <g
       id="command_group9"
       inkscape:label="Ink/Stitch Command: Fill stitch starting position"
       transform="matrix(0.264583,0,0,0.264583,-5.16158,-14.3634)">
      <path
         id="command_connector9"
         d="m 672.75698,693.02479 14.76591,5.64667"
         style="fill:none;stroke:#000000;stroke-width:1px;stroke-opacity:0.5"
         inkscape:connection-start="#command_use9"
         inkscape:connector-type="polyline"
         inkscape:label="connector"
         inkscape:connector-curvature="0" />
      <use
         id="command_use9"
         xlink:href="#inkstitch_fill_start"
         height="100%"
         width="100%"
         x="672.75439"
         y="692.98889"
         inkscape:label="command marker" />
    </g>
    <g
       id="command_group10"
       inkscape:label="Ink/Stitch Command: Fill stitch ending position"
       transform="matrix(0.264583,0,0,0.264583,38.4947,-13.3051)">
      <path
         id="command_connector10"
         d="m 641.17076,687.1173 -23.01567,9.76328"
         style="fill:none;stroke:#000000;stroke-width:1px;stroke-opacity:0.5"
         inkscape:connection-start="#command_use10"
         inkscape:connector-type="polyline"
         inkscape:label="connector"
         inkscape:connector-curvature="0" />
      <use
         id="command_use10"
         xlink:href="#inkstitch_fill_end"
         height="100%"
         width="100%"
         x="641.19458"
         y="687.00244"
         inkscape:label="command marker" />
    </g>
    <g
       id="command_group11"
       inkscape:label="Ink/Stitch Command: Fill stitch starting position"
       transform="matrix(0.264583,0,0,0.264583,9.3905,-19.3905)">
      <path
         id="command_connector11"
         d="m 569.88638,614.11329 0.8847,3.63241"
         style="fill:none;stroke:#000000;stroke-width:1px;stroke-opacity:0.5"
         inkscape:connection-start="#command_use11"
         inkscape:connector-type="polyline"
         inkscape:label="connector"
         inkscape:connector-curvature="0" />
      <use
         id="command_use11"
         xlink:href="#inkstitch_fill_start"
         height="100%"
         width="100%"
         x="569.88379"
         y="614.07739"
         inkscape:label="command marker" />
    </g>
    <g
       id="command_group12"
       inkscape:label="Ink/Stitch Command: Fill stitch ending position"
       transform="matrix(0.264583,0,0,0.264583,9.3905,-19.3905)">
      <path
         id="command_connector12"
         d="m 582.68211,738.98992 -2.6217,-56.5512"
         style="fill:none;stroke:#000000;stroke-width:1px;stroke-opacity:0.5"
         inkscape:connection-start="#command_use12"
         inkscape:connector-type="polyline"
         inkscape:label="connector"
         inkscape:connector-curvature="0" />
      <use
         id="command_use12"
         xlink:href="#inkstitch_fill_end"
         height="100%"
         width="100%"
         x="582.70593"
         y="738.87506"
         inkscape:label="command marker" />
    </g>
    <g
       id="command_group13"
       inkscape:label="Ink/Stitch Command: Fill stitch starting position"
       transform="matrix(0.264583,0,0,0.264583,9.3905,-19.3905)">
      <path
         id="command_connector13"
         d="m 778.83639,611.73463 0.58107,3.49556"
         style="fill:none;stroke:#000000;stroke-width:1px;stroke-opacity:0.5"
         inkscape:connection-start="#command_use13"
         inkscape:connector-type="polyline"
         inkscape:label="connector"
         inkscape:connector-curvature="0" />
      <use
         id="command_use13"
         xlink:href="#inkstitch_fill_start"
         height="100%"
         width="100%"
         x="778.8338"
         y="611.69873"
         inkscape:label="command marker" />
    </g>
    <g
       id="command_group14"
       inkscape:label="Ink/Stitch Command: Fill stitch ending position"
       transform="matrix(0.264583,0,0,0.264583,9.3905,-19.3905)">
      <path
         id="command_connector14"
         d="m 787.59215,739.50994 -1.61393,-56.58708"
         style="fill:none;stroke:#000000;stroke-width:1px;stroke-opacity:0.5"
         inkscape:connection-start="#command_use14"
         inkscape:connector-type="polyline"
         inkscape:label="connector"
         inkscape:connector-curvature="0" />
      <use
         id="command_use14"
         xlink:href="#inkstitch_fill_end"
         height="100%"
         width="100%"
         x="787.61597"
         y="739.39508"
         inkscape:label="command marker" />
    </g>
    <path
       style="fill:none;stroke:#000000;stroke-width:1.7446;stroke-linecap:round;stroke-linejoin:miter;stroke-miterlimit:4;stroke-dasharray:none;stroke-opacity:1"
       d="m 185.20613,166.17731 c 0,0 -3.66978,-5.83834 4.71355,-6.14033 8.38333,-0.30198 6.92812,3.97472 5.47292,6.31003"
       id="path2152"
       inkscape:label="nose"
       sodipodi:nodetypes="csc"
       inkstitch:repeats="2"
       inkstitch:running_stitch_length_mm="1.22" />
    <path
       style="display:none;fill:none;stroke:#000000;stroke-width:2;stroke-linecap:butt;stroke-linejoin:miter;stroke-miterlimit:4;stroke-dasharray:none;stroke-opacity:1"
       d="m 176.47488,179.57617 c 0,0 13.93348,-6.48229 29.10417,0.26458"
       id="path1364"
       sodipodi:nodetypes="cc"
       inkscape:label="frown" />
    <path
       style="fill:none;stroke:#000000;stroke-width:1.36898;stroke-linecap:round;stroke-linejoin:miter;stroke-miterlimit:4;stroke-dasharray:none;stroke-opacity:1"
       d="m 187.00729,163.38566 0.7633,1.16018"
       id="path5900" />
    <path
       style="fill:none;stroke:#000000;stroke-width:1.36898;stroke-linecap:round;stroke-linejoin:miter;stroke-miterlimit:4;stroke-dasharray:none;stroke-opacity:1"
       d="m 193.2683,163.38566 -0.7633,1.16018"
       id="path6000" />
  </g>
</svg>
