<?xml version="1.0" encoding="UTF-8" standalone="no"?>
<!-- Created with Inkscape (http://www.inkscape.org/) -->

<svg
   width="360mm"
   height="360mm"
   viewBox="0 0 360 360"
   version="1.1"
   id="svg8"
   inkscape:version="1.1.1 (c3084ef, 2021-09-22)"
   sodipodi:docname="face-baby-happy.svg"
   xmlns:inkscape="http://www.inkscape.org/namespaces/inkscape"
   xmlns:sodipodi="http://sodipodi.sourceforge.net/DTD/sodipodi-0.dtd"
   xmlns:xlink="http://www.w3.org/1999/xlink"
   xmlns="http://www.w3.org/2000/svg"
   xmlns:svg="http://www.w3.org/2000/svg"
   xmlns:rdf="http://www.w3.org/1999/02/22-rdf-syntax-ns#"
   xmlns:cc="http://creativecommons.org/ns#"
   xmlns:dc="http://purl.org/dc/elements/1.1/">
  <title
     id="title1023">inkStitch - Embroidery Hoops Template</title>
  <defs
     id="defs2">
    <inkscape:path-effect
       effect="taper_stroke"
       id="path-effect14309"
       is_visible="true"
       lpeversion="1"
       stroke_width="2.7900725"
       attach_start="0.41288553"
       end_offset="0.8"
       start_smoothing="0.5"
       end_smoothing="0.5"
       jointype="extrapolated"
       start_shape="center"
       end_shape="center"
       miter_limit="100" />
    <inkscape:path-effect
       effect="taper_stroke"
       id="path-effect13364"
       is_visible="true"
       lpeversion="1"
       stroke_width="2.2"
       attach_start="0.2"
       end_offset="0.2"
       start_smoothing="0.5"
       end_smoothing="0.5"
       jointype="extrapolated"
       start_shape="center"
       end_shape="center"
       miter_limit="100" />
    <inkscape:path-effect
       effect="taper_stroke"
       id="path-effect13362"
       is_visible="true"
       lpeversion="1"
       stroke_width="1.6394341"
       attach_start="0.47351904"
       end_offset="0.2"
       start_smoothing="0.5"
       end_smoothing="0.5"
       jointype="extrapolated"
       start_shape="center"
       end_shape="center"
       miter_limit="100" />
    <inkscape:path-effect
       effect="taper_stroke"
       id="path-effect12896"
       is_visible="true"
       lpeversion="1"
       stroke_width="1.0414905"
       attach_start="0.10126999"
       end_offset="0.2"
       start_smoothing="0.5"
       end_smoothing="0.5"
       jointype="extrapolated"
       start_shape="center"
       end_shape="center"
       miter_limit="100" />
    <inkscape:path-effect
       effect="taper_stroke"
       id="path-effect12308"
       is_visible="true"
       lpeversion="1"
       stroke_width="2.5"
       attach_start="0.2"
       end_offset="0.2"
       start_smoothing="0.5"
       end_smoothing="0.5"
       jointype="extrapolated"
       start_shape="center"
       end_shape="center"
       miter_limit="100" />
    <inkscape:path-effect
       effect="taper_stroke"
       id="path-effect12222"
       is_visible="true"
       lpeversion="1"
       stroke_width="2.5"
       attach_start="0.2"
       end_offset="0.2"
       start_smoothing="0.5"
       end_smoothing="0.5"
       jointype="extrapolated"
       start_shape="center"
       end_shape="center"
       miter_limit="100" />
    <inkscape:path-effect
       effect="join_type"
       id="path-effect9780"
       is_visible="true"
       lpeversion="1"
       linecap_type="square"
       line_width="2.5"
       linejoin_type="extrp_arc"
       miter_limit="100"
       attempt_force_join="true" />
    <inkscape:path-effect
       effect="taper_stroke"
       id="path-effect9528"
       is_visible="true"
       lpeversion="1"
       stroke_width="1.4580868"
       attach_start="0.2"
       end_offset="0.2"
       start_smoothing="0.8"
       end_smoothing="0.8"
       jointype="extrapolated"
       start_shape="center"
       end_shape="center"
       miter_limit="100" />
    <inkscape:path-effect
       effect="taper_stroke"
       id="path-effect9522"
       is_visible="true"
       lpeversion="1"
       stroke_width="1.0416183"
       attach_start="0.2"
       end_offset="0.2"
       start_smoothing="0.5"
       end_smoothing="0.5"
       jointype="extrapolated"
       start_shape="center"
       end_shape="center"
       miter_limit="100" />
    <inkscape:path-effect
       effect="taper_stroke"
       id="path-effect9516"
       is_visible="true"
       lpeversion="1"
       stroke_width="2.7900725"
       attach_start="0.41288553"
       end_offset="0.8"
       start_smoothing="0.5"
       end_smoothing="0.5"
       jointype="extrapolated"
       start_shape="center"
       end_shape="center"
       miter_limit="100" />
    <inkscape:path-effect
       effect="taper_stroke"
       id="path-effect9350"
       is_visible="true"
       lpeversion="1"
       stroke_width="4.887397"
       attach_start="0.2"
       end_offset="0.8"
       start_smoothing="0.5"
       end_smoothing="0.5"
       jointype="extrapolated"
       start_shape="center"
       end_shape="center"
       miter_limit="100" />
    <inkscape:path-effect
       effect="taper_stroke"
       id="path-effect6889"
       is_visible="true"
       lpeversion="1"
       stroke_width="8"
       attach_start="0.2"
       end_offset="0"
       start_smoothing="0.5"
       end_smoothing="0.5"
       jointype="extrapolated"
       start_shape="left"
       end_shape="center"
       miter_limit="100" />
    <inkscape:path-effect
       effect="taper_stroke"
       id="path-effect6883"
       is_visible="true"
       lpeversion="1"
       stroke_width="8"
       attach_start="0.2"
       end_offset="0"
       start_smoothing="0.5"
       end_smoothing="0.5"
       jointype="extrapolated"
       start_shape="left"
       end_shape="center"
       miter_limit="100" />
    <inkscape:path-effect
       effect="taper_stroke"
       id="path-effect5435"
       is_visible="true"
       lpeversion="1"
       stroke_width="2.59115"
       attach_start="0.2"
       end_offset="0.2"
       start_smoothing="0.5"
       end_smoothing="0.5"
       jointype="extrapolated"
       start_shape="center"
       end_shape="center"
       miter_limit="100" />
    <inkscape:path-effect
       effect="taper_stroke"
       id="path-effect5433"
       is_visible="true"
       lpeversion="1"
       stroke_width="1.0414905"
       attach_start="0.10126999"
       end_offset="0.2"
       start_smoothing="0.5"
       end_smoothing="0.5"
       jointype="extrapolated"
       start_shape="center"
       end_shape="center"
       miter_limit="100" />
    <inkscape:path-effect
       effect="taper_stroke"
       id="path-effect5431"
       is_visible="true"
       lpeversion="1"
       stroke_width="1.4580868"
       attach_start="0.2"
       end_offset="0.2"
       start_smoothing="0.8"
       end_smoothing="0.8"
       jointype="extrapolated"
       start_shape="center"
       end_shape="center"
       miter_limit="100" />
    <inkscape:path-effect
       effect="taper_stroke"
       id="path-effect1563"
       is_visible="true"
       lpeversion="1"
       stroke_width="2.8712699"
       attach_start="0.2"
       end_offset="0.2"
       start_smoothing="0.5"
       end_smoothing="0.5"
       jointype="extrapolated"
       start_shape="center"
       end_shape="center"
       miter_limit="100" />
    <inkscape:path-effect
       effect="taper_stroke"
       id="path-effect1398"
       is_visible="true"
       lpeversion="1"
       stroke_width="2.6818538"
       attach_start="0.42202371"
       end_offset="0.8"
       start_smoothing="0.5"
       end_smoothing="0.5"
       jointype="extrapolated"
       start_shape="center"
       end_shape="center"
       miter_limit="100" />
    <marker
       style="overflow:visible"
       id="Arrow1Lstart"
       refX="0.0"
       refY="0.0"
       orient="auto"
       inkscape:stockid="Arrow1Lstart"
       inkscape:isstock="true">
      <path
         transform="scale(0.8) translate(12.5,0)"
         style="fill-rule:evenodd;fill:context-stroke;stroke:context-stroke;stroke-width:1.0pt"
         d="M 0.0,0.0 L 5.0,-5.0 L -12.5,0.0 L 5.0,5.0 L 0.0,0.0 z "
         id="path1667" />
    </marker>
    <style
       id="style824"
       type="text/css"><![CDATA[
    .fil0 {fill:none}
    .fil1 {fill:#003399}
   ]]></style>
    <symbol
       id="inkstitch_fill_start">
      <title
         id="inkstitch_title9432">Fill stitch starting point</title>
      <path
         id="inkstitch_circle13166-6"
         d="m 9.2465269,-2.6e-6 c -1.9e-6,5.106729 -4.1398247,9.24655 -9.246554026709,9.24655 C -5.106756,9.2465474 -9.2465782,5.1067264 -9.2465801,-2.6e-6 c 2e-7,-5.10673 4.1398229,-9.246553 9.246552973291,-9.246553 2.452338526709,0 4.804235626709,0.974187 6.538300926709,2.708252 1.7340652,1.734066 2.708253,4.085963 2.7082531,6.538301 0,0 0,0 0,0"
         style="opacity:1;vector-effect:none;fill:#fafafa;fill-opacity:1;fill-rule:evenodd;stroke:#003399;stroke-width:1.06501234;stroke-linecap:round;stroke-linejoin:miter;stroke-miterlimit:4;stroke-dasharray:3.19503705, 3.19503705;stroke-dashoffset:0;stroke-opacity:1"
         inkscape:connector-curvature="0" />
      <path
         style="opacity:1;vector-effect:none;fill:#000000;fill-opacity:1;fill-rule:evenodd;stroke:none;stroke-width:2.74180555;stroke-linecap:butt;stroke-linejoin:miter;stroke-miterlimit:4;stroke-dasharray:none;stroke-dashoffset:0;stroke-opacity:1"
         d="m 6.5728129,0.0035574 c 0,0 -10.4514,6.03412 -10.4514,6.03412 0,0 0,-12.06823 0,-12.06823 0,0 10.4514,6.03411 10.4514,6.03411"
         id="inkstitch_path4183"
         inkscape:connector-curvature="0" />
    </symbol>
    <symbol
       id="inkstitch_fill_end">
      <title
         id="inkstitch_title9427">Fill stitch ending point</title>
      <path
         id="inkstitch_circle13166"
         d="m 9.220113,0.0792309 c -1.9e-6,5.106729 -4.1398241,9.24655 -9.246553,9.24655 -5.1067293,0 -9.2465521,-4.139821 -9.246554,-9.24655 1e-7,-2.452338 0.9741879,-4.804235 2.7082531,-6.538301 1.7340653,-1.734065 4.0859624,-2.708252 6.5383009,-2.708252 5.1067301,0 9.2465528,4.139823 9.246553,9.246553 0,0 0,0 0,0"
         style="opacity:1;vector-effect:none;fill:#fafafa;fill-opacity:1;fill-rule:evenodd;stroke:#003399;stroke-width:1.06500006;stroke-linecap:round;stroke-linejoin:miter;stroke-miterlimit:4;stroke-dasharray:3.19500017, 3.19500017;stroke-dashoffset:0;stroke-opacity:1"
         inkscape:connector-curvature="0" />
      <path
         style="opacity:1;fill:#000000;fill-opacity:1;fill-rule:nonzero;stroke:none;stroke-width:2.27154255;stroke-linecap:round;stroke-linejoin:round;stroke-miterlimit:4;stroke-dasharray:4.81866985, 4.81866985;stroke-dashoffset:0;stroke-opacity:1;paint-order:fill markers stroke"
         d="m -4.570439,-4.5704391 c 0,0 9.140878,0 9.140878,0 0,0 0,9.14087 0,9.14087 0,0 -9.140878,0 -9.140878,0 0,0 0,-9.14087 0,-9.14087"
         id="inkstitch_rect5371-2"
         inkscape:connector-curvature="0" />
    </symbol>
    <inkscape:path-effect
       effect="fill_between_many"
       method="bsplinespiro"
       linkedpaths="#path13263,0,1"
       id="path-effect13366" />
  </defs>
  <sodipodi:namedview
     id="base"
     pagecolor="#fafafa"
     bordercolor="#666666"
     borderopacity="1.0"
     inkscape:pageopacity="0.78431373"
     inkscape:pageshadow="2"
     inkscape:zoom="1.8688079"
     inkscape:cx="703.92467"
     inkscape:cy="646.13382"
     inkscape:document-units="cm"
     inkscape:current-layer="layer2"
     showgrid="true"
     inkscape:window-width="1462"
     inkscape:window-height="969"
     inkscape:window-x="73"
     inkscape:window-y="59"
     inkscape:window-maximized="0"
     objecttolerance="3"
     gridtolerance="3"
     guidetolerance="3"
     inkscape:snap-perpendicular="true"
     inkscape:snap-tangential="true"
     inkscape:showpageshadow="true"
     borderlayer="false"
     inkscape:snap-path-clip="false"
     inkscape:pagecheckerboard="false"
     fit-margin-top="10"
     fit-margin-left="10"
     fit-margin-right="10"
     fit-margin-bottom="10">
    <inkscape:grid
       type="xygrid"
       id="grid3702"
       units="mm"
       spacingx="0.50000002"
       spacingy="0.50000002"
       dotted="false"
       originx="0"
       originy="0"
       empspacing="20"
       color="#ff7300"
       opacity="0.09803922"
       empcolor="#0000ff"
       empopacity="0.09803922" />
  </sodipodi:namedview>
  <metadata
     id="metadata5">
    <rdf:RDF>
      <cc:Work
         rdf:about="">
        <dc:format>image/svg+xml</dc:format>
        <dc:type
           rdf:resource="http://purl.org/dc/dcmitype/StillImage" />
        <dc:title>inkStitch - Embroidery Hoops Template</dc:title>
        <cc:license
           rdf:resource="http://creativecommons.org/publicdomain/zero/1.0/" />
        <dc:date>180404</dc:date>
        <dc:creator>
          <cc:Agent>
            <dc:title>X3msnake</dc:title>
          </cc:Agent>
        </dc:creator>
        <dc:rights>
          <cc:Agent>
            <dc:title>CC0</dc:title>
          </cc:Agent>
        </dc:rights>
      </cc:Work>
      <cc:License
         rdf:about="http://creativecommons.org/publicdomain/zero/1.0/">
        <cc:permits
           rdf:resource="http://creativecommons.org/ns#Reproduction" />
        <cc:permits
           rdf:resource="http://creativecommons.org/ns#Distribution" />
        <cc:permits
           rdf:resource="http://creativecommons.org/ns#DerivativeWorks" />
      </cc:License>
    </rdf:RDF>
  </metadata>
  <g
     inkscape:label="HOOPS REF"
     inkscape:groupmode="layer"
     id="layer1"
     transform="translate(-9.3905029,72.390505)"
     style="display:inline;opacity:0.5"
     sodipodi:insensitive="true">
    <circle
       id="path3704-5-2"
       cx="189.3905"
       cy="107.6095"
       r="49.952381"
       style="opacity:0.335;fill:none;stroke:#000000;stroke-width:1;stroke-linecap:butt;stroke-linejoin:round;stroke-miterlimit:4;stroke-dasharray:0.5, 0.5;stroke-dashoffset:0"
       sodipodi:insensitive="true"
       inkscape:label="100x100" />
    <circle
       id="path3704-5"
       cx="189.3905"
       cy="107.6095"
       r="69.933334"
       style="opacity:0.335;fill:none;stroke:#000000;stroke-width:1;stroke-linecap:butt;stroke-linejoin:round;stroke-miterlimit:4;stroke-dasharray:0.5, 0.5;stroke-dashoffset:0"
       sodipodi:insensitive="true"
       inkscape:label="140x140" />
    <circle
       id="path3704-4"
       cx="189.3905"
       cy="107.6095"
       r="84.919044"
       style="opacity:0.335;fill:none;stroke:#000000;stroke-width:1;stroke-linecap:butt;stroke-linejoin:round;stroke-miterlimit:4;stroke-dasharray:0.5, 0.5;stroke-dashoffset:0"
       sodipodi:insensitive="true"
       inkscape:label="170x170" />
    <circle
       id="path3704"
       cx="189.3905"
       cy="107.6095"
       r="99.904762"
       style="opacity:0.335;fill:none;stroke:#000000;stroke-width:1;stroke-linecap:butt;stroke-linejoin:round;stroke-miterlimit:4;stroke-dasharray:0.5, 0.5;stroke-dashoffset:0"
       inkscape:label="200x200"
       sodipodi:insensitive="true" />
    <rect
       style="opacity:0.335;fill:none;stroke:#000000;stroke-width:1;stroke-linecap:butt;stroke-linejoin:round;stroke-miterlimit:4;stroke-dasharray:0.5, 0.5;stroke-dashoffset:0"
       id="rect3742"
       width="319.6095"
       height="319.6095"
       x="29.585754"
       y="-52.195255"
       ry="44.043102"
       sodipodi:insensitive="true"
       inkscape:label="320x320" />
    <g
       style="clip-rule:evenodd;fill:#f9f9f9;fill-opacity:1;fill-rule:evenodd;stroke:#999999;stroke-width:20.97;stroke-miterlimit:4;stroke-dasharray:none;stroke-opacity:1;image-rendering:optimizeQuality;shape-rendering:geometricPrecision;text-rendering:geometricPrecision"
       id="g845"
       transform="matrix(0,0.0056763,-0.0056763,0,341.03436,-359.15659)"
       inkscape:label="inkStitch-logo"
       sodipodi:insensitive="true">
      <path
         style="fill:#f9f9f9;fill-opacity:1;stroke:none;stroke-width:25.7694;stroke-miterlimit:4;stroke-dasharray:none;stroke-opacity:1"
         d="m 53158.869,23350.193 h 1826.028 266.315 c 998.46,0 1815.618,892.05 1815.618,1982.018 v 2766.111 c 0,1089.966 -817.159,1982.014 -1815.618,1982.014 h -242.024 -2001.257 -290.607 c -999.324,0 -1816.482,-892.048 -1816.482,-1982.014 v -2766.111 c 0,-1089.968 817.158,-1982.018 1816.482,-1982.018 z"
         id="path992"
         inkscape:connector-curvature="0"
         sodipodi:nodetypes="ccssssccssssc"
         inkscape:label="bkg" />
      <path
         id="path912"
         d="m 54083.958,25539.209 h -26.503 c -7.363,0 -13.988,-5.89 -13.988,-13.985 v -150.92 c 0,-7.362 6.625,-13.252 13.988,-13.252 h 26.503 c 7.36,0 13.989,5.89 13.989,13.252 v 150.92 c 0,8.095 -6.629,13.985 -13.989,13.985 z m -800.235,-1439.978 c 33.129,-5.153 58.895,-34.602 58.895,-69.2 v 0 c 0,-38.282 -30.919,-69.938 -69.2,-69.938 h -73.619 c -19.139,0 -35.337,-8.835 -44.907,-25.032 -10.308,-16.195 -10.308,-34.6 -1.474,-51.531 22.087,-41.963 64.05,-70.675 118.526,-70.675 h 1423.783 c 75.827,0 137.666,61.84 137.666,137.669 v 148.707 h 226.01 c 847.349,0 1540.835,693.488 1540.835,1540.837 v 2150.396 c 0,847.35 -693.487,1540.835 -1540.835,1540.835 h -205.396 v 146.502 c 0,77.299 -62.575,139.874 -139.876,139.874 h -1418.629 c -76.563,0 -139.874,-62.575 -139.874,-139.874 v -146.502 h -246.624 c -848.083,0 -1541.57,-693.485 -1541.57,-1540.835 v -2150.396 c 0,-847.349 693.487,-1540.837 1541.57,-1540.837 z m 861.339,5341.024 v -54.477 c 0,-22.087 10.305,-41.226 26.503,-54.479 h 86.868 c 16.195,13.253 26.503,32.392 26.503,54.479 v 54.477 c 0,38.281 -31.656,69.938 -69.938,69.938 v 0 c -38.282,0 -69.936,-31.657 -69.936,-69.938 z m 362.201,-27.239 c 0,-38.281 31.657,-69.938 69.938,-69.938 38.282,0 69.939,31.657 69.939,69.938 0,39.018 -31.657,69.938 -69.939,69.938 -38.281,0 -69.938,-30.92 -69.938,-69.938 z m -362.201,-5371.944 v -54.476 c 0,-38.282 31.654,-69.939 69.936,-69.939 v 0 c 38.282,0 69.938,31.657 69.938,69.939 v 54.476 c 0,24.295 -12.515,45.644 -30.921,58.159 h -78.034 c -18.404,-12.515 -30.919,-33.864 -30.919,-58.159 z m 362.939,-27.239 c 0,-38.282 30.919,-69.199 69.2,-69.199 38.282,0 69.203,30.917 69.203,69.199 0,38.282 -30.921,69.203 -69.203,69.203 -38.281,0 -69.2,-30.921 -69.2,-69.203 z m -427.724,999.74 c 78.036,345.27 84.66,396.805 37.544,800.233 l 9.572,943.79 c 1.471,191.407 58.893,336.438 58.893,525.637 v 1057.897 l -38.279,69.938 h -154.601 l -38.282,-69.938 v -1057.897 c 0,-189.199 57.424,-334.229 58.895,-525.637 l 9.57,-943.79 c -47.115,-403.428 -40.489,-454.963 37.547,-800.233 0.735,-4.416 5.153,-7.36 9.57,-7.36 4.418,0 8.098,2.944 9.571,7.36 z m -424.778,3231.118 h -1105.751 v -264.292 h 1105.751 z m 0,-798.761 h -1141.825 v -25.032 l 645.634,-688.332 h -609.56 v -243.678 h 1147.713 v 22.822 l -644.9,690.543 h 602.938 z m 0,-1462.8 h -1105.751 v -260.609 h 481.465 l -481.465,-365.149 v -314.351 l 525.636,416.68 580.115,-449.808 v 318.768 l -509.441,393.86 h 509.441 z m 1420.099,2455.914 c 26.503,-44.171 45.646,-80.982 56.686,-111.9 10.308,-30.921 16.198,-61.104 16.198,-90.552 0,-29.447 -6.625,-53.005 -19.878,-71.409 -12.515,-17.669 -29.447,-26.503 -50.061,-26.503 -28.711,0 -61.839,31.657 -98.647,95.703 -5.889,10.308 -10.308,18.404 -13.988,23.558 l -27.239,48.59 c -26.503,47.116 -56.688,81.714 -90.551,104.537 -33.128,22.822 -71.41,33.866 -114.11,33.866 -57.421,0 -104.537,-21.351 -141.347,-64.784 -37.544,-43.436 -55.951,-99.386 -55.951,-168.588 0,-25.03 3.681,-53.003 9.573,-82.45 5.889,-29.448 14.723,-62.578 27.238,-98.652 h 167.851 c -21.351,34.601 -38.282,66.994 -50.061,97.912 -11.779,31.657 -17.67,57.424 -17.67,79.509 0,24.294 5.153,42.699 15.461,56.686 10.305,13.989 24.294,20.613 41.962,20.613 12.514,0 24.293,-3.681 35.337,-11.779 11.043,-8.833 20.612,-20.613 29.447,-37.543 l 46.38,-83.927 c 39.018,-70.673 75.09,-117.79 108.22,-142.082 32.392,-24.294 71.409,-36.073 117.051,-36.073 69.939,0 125.889,23.558 169.326,71.409 42.696,47.85 64.045,110.428 64.045,189.199 0,26.502 -2.206,55.95 -8.096,87.607 -5.889,30.919 -14.724,65.52 -26.503,103.066 z m 202.452,-735.451 h -566.864 v 227.481 h -150.18 v -625.021 h 150.18 v 226.745 h 566.864 z m 0,-503.548 h -717.044 v -170.796 h 717.044 z m 0,-505.025 h -566.864 v 227.481 h -150.18 v -625.757 h 150.18 v 226.746 h 566.864 z m -490.3,-1013.725 c -31.655,31.654 -55.213,62.575 -70.674,94.229 -15.459,32.393 -22.821,65.522 -22.821,100.121 0,61.104 20.614,110.43 62.575,148.711 41.964,39.017 95.704,58.159 161.225,58.159 65.521,0 118.527,-19.142 159.018,-57.424 40.488,-38.282 61.1,-87.606 61.1,-149.446 0,-36.073 -7.36,-72.145 -22.819,-108.217 -15.462,-36.073 -37.547,-72.148 -68.466,-108.219 l 190.671,11.042 c 20.614,30.919 36.809,64.049 47.117,100.857 11.043,36.073 16.194,73.619 16.194,113.372 0,41.964 -6.625,82.453 -19.14,121.472 -13.251,38.282 -33.127,74.354 -58.893,106.746 -36.074,46.381 -80.245,81.718 -132.515,106.012 -52.269,24.293 -108.955,36.807 -170.795,36.807 -53.005,0 -103.065,-8.834 -149.446,-27.237 -46.378,-18.405 -87.605,-44.172 -122.941,-78.774 -35.338,-35.337 -62.575,-75.825 -81.717,-121.47 -19.14,-45.641 -28.713,-94.231 -28.713,-145.027 0,-39.756 5.89,-78.038 16.934,-114.846 11.042,-36.808 28.712,-71.409 51.533,-104.537 z m 490.3,-133.252 h -717.044 v -168.586 h 263.554 v -276.806 h -263.554 V 24934.8 h 717.044 v 167.851 h -301.099 v 276.806 h 301.099 z m -3648.533,2242.421 c 0,703.056 576.432,1279.491 1279.488,1279.491 h 2150.398 c 703.057,0 1279.489,-576.435 1279.489,-1279.491 v -2150.396 c 0,-703.058 -576.432,-1279.49 -1279.489,-1279.49 h -2150.398 c -703.056,0 -1279.488,576.432 -1279.488,1279.49 z"
         class="fil1"
         inkscape:connector-curvature="0"
         style="fill:#f9f9f9;fill-opacity:1;stroke:#999999;stroke-width:52.328;stroke-miterlimit:4;stroke-dasharray:none;stroke-opacity:1;paint-order:stroke fill markers"
         inkscape:label="logo" />
    </g>
    <path
       id="path1018"
       style="fill:#999999;stroke:#b3b3b3;stroke-width:0.1;stroke-linecap:butt;stroke-linejoin:miter;stroke-miterlimit:4;stroke-dasharray:none;stroke-opacity:1"
       d="m 192.92603,111.14502 -7.07107,-7.07106 m 7.07106,1e-5 -7.07106,7.07107"
       inkscape:connector-curvature="0"
       inkscape:label="default-origin"
       sodipodi:insensitive="true" />
  </g>
  <g
     id="layer2"
     inkscape:label="DESIGN LAYER"
     transform="translate(-9.3905,19.3905)">
    <path
       style="display:inline;fill:#dbdee3;fill-opacity:1;stroke:none;stroke-width:0.8;stroke-linecap:butt;stroke-linejoin:miter;stroke-miterlimit:4;stroke-dasharray:none;stroke-opacity:1"
       d="m 174.96398,150.60951 c 0,0 1.68379,9.69866 -1.21608,15.21778 -7.01582,-0.56127 -9.80273,0.15394 -13.47038,0.0935 -5.56937,-3.73647 -4.30304,-11.78658 -4.30304,-11.78658 0,0 4.77076,-6.36102 7.39,-6.45456 2.61924,-0.0935 4.77076,-2.18518 11.5995,2.92982 z"
       id="path11514"
       sodipodi:nodetypes="ccccssc"
       inkscape:label="sclera_fill_L" />
    <path
       style="display:inline;fill:#dbdee3;fill-opacity:1;stroke:none;stroke-width:0.8;stroke-linecap:butt;stroke-linejoin:miter;stroke-miterlimit:4;stroke-dasharray:none;stroke-opacity:1"
       d="m 203.77662,150.60951 c 0,0 -1.68379,9.69866 1.21608,15.21778 7.01582,-0.56127 9.80273,0.15394 13.47038,0.0935 5.56937,-3.73647 4.30304,-11.78658 4.30304,-11.78658 0,0 -4.77076,-6.36102 -7.39,-6.45456 -2.61924,-0.0935 -4.77076,-2.18518 -11.5995,2.92982 z"
       id="path14090"
       sodipodi:nodetypes="ccccssc"
       inkscape:label="sclera_fill_R" />
    <path
       id="path10944"
       style="display:inline;fill:none;stroke:#dedede;stroke-width:3.02362;stroke-linecap:butt;stroke-linejoin:miter;stroke-miterlimit:4;stroke-dasharray:none;stroke-opacity:1"
       inkscape:label="sclera_outline_L"
       d="m 623.68337,640.97381 c 0.68874,0.49481 1.39065,1.00981 2.10614,1.54574 v 1.5e-4 0 c 0,0 6.36393,36.65636 -4.5962,57.51602 -0.30851,-0.0247 -0.61484,-0.0487 -0.91905,-0.0721"
       transform="matrix(0.26458334,0,0,0.26458334,9.3905,-19.3905)" />
    <path
       id="path12090"
       style="display:none;fill:none;stroke:#dedede;stroke-width:3.02362;stroke-linecap:butt;stroke-linejoin:miter;stroke-miterlimit:4;stroke-dasharray:none;stroke-opacity:1"
       inkscape:label="sclera_outline_L"
       d="m 559.68651,648.86203 c 6.13204,-7.12864 15.88472,-17.18805 22.26237,-17.41581 9.62506,-0.34359 17.579,-7.82643 41.73449,9.52759"
       transform="matrix(0.26458334,0,0,0.26458334,9.3905,-19.3905)" />
    <path
       id="path12088"
       style="display:inline;fill:none;stroke:#dedede;stroke-width:3.02362;stroke-linecap:butt;stroke-linejoin:miter;stroke-miterlimit:4;stroke-dasharray:none;stroke-opacity:1"
       inkscape:label="sclera_outline_L_eye_L_side"
       d="m 569.61498,699.93039 c -20.28109,-14.3108 -15.5968,-44.08898 -15.5968,-44.08898 0,0 2.28212,-3.04284 5.66833,-6.97938"
       transform="matrix(0.26458334,0,0,0.26458334,9.3905,-19.3905)" />
    <path
       id="path13987"
       style="display:inline;fill:none;stroke:#dedede;stroke-width:0.799999;stroke-linecap:butt;stroke-linejoin:miter;stroke-miterlimit:4;stroke-dasharray:none;stroke-opacity:1"
       inkscape:label="sclera_outline_R_eye_R_side"
       d="m 218.02112,165.79942 c 5.36604,-3.7864 4.12665,-11.66521 4.12665,-11.66521 0,0 -0.60381,-0.80508 -1.49974,-1.84663" />
    <path
       id="path13825"
       style="display:inline;fill:none;stroke:#dedede;stroke-width:0.799999;stroke-linecap:butt;stroke-linejoin:miter;stroke-miterlimit:4;stroke-dasharray:none;stroke-opacity:1"
       inkscape:label="sclera_outline_R_eye_L_side"
       d="m 204.43412,150.20049 c -0.18223,0.13092 -0.36794,0.26718 -0.55725,0.40898 v 4e-5 0 c 0,0 -1.68379,9.69866 1.21608,15.21778 0.0816,-0.007 0.16267,-0.0129 0.24316,-0.0191" />
    <path
       id="path9908"
       style="display:none;fill:#ff2a2a;fill-opacity:1;stroke:none;stroke-width:1.3508;stroke-linecap:butt;stroke-linejoin:miter;stroke-miterlimit:4;stroke-dasharray:none;stroke-opacity:1"
       d="m 189.46144,171.89904 c -3.71255,-0.24393 -6.66881,-0.42538 -9.17534,0.7958 -3.05511,1.48847 -0.7544,4.26119 0.93404,4.89067 2.79902,1.04353 3.597,0.0719 6.67094,-0.3372 0,0 2.1989,-0.22734 3.23787,0.0378 3.50697,0.89488 3.78561,1.27117 6.59075,0.19308 1.68083,-0.64599 3.98915,-3.4022 0.93403,-4.89067 -3.1899,-1.44819 -6.66051,-0.88021 -9.19229,-0.68948 z"
       sodipodi:nodetypes="csssssccc"
       inkscape:label="mouth_fill" />
    <path
       style="display:none;fill:#b33434;fill-opacity:1;stroke:none;stroke-width:0.101605;stroke-linecap:butt;stroke-linejoin:miter;stroke-miterlimit:4;stroke-dasharray:none;stroke-opacity:1"
       d="m 189.39051,174.27849 c 0,0 -2.41077,0.0187 -3.76646,0.5604 -1.62878,0.65079 -2.73082,2.61206 -2.01394,2.94422 1.82054,0.84355 4.24752,-0.76465 5.9435,-0.72265 3.11554,0.0771 6.36717,0.96604 6.36717,0.96604 0,0 -1.13847,-1.95879 -2.18668,-2.78207 -1.04821,-0.82327 -2.82743,-1.04263 -4.34359,-0.96594 z"
       id="path7235"
       inkscape:label="tongue_fill"
       sodipodi:nodetypes="cssscsc" />
    <path
       style="display:inline;fill:#000000;fill-rule:nonzero;stroke:none;stroke-width:1.04149;stroke-linecap:butt;stroke-linejoin:miter;stroke-miterlimit:4;stroke-dasharray:none;stroke-opacity:1"
       d="m 174.35911,166.11645 c 0.0391,-0.003 0.0678,-0.1566 0.0858,-0.2978 0.0153,-0.12029 0.004,-0.23047 0.004,-0.23047 0,0 -0.004,-0.11072 -0.0357,-0.22769 -0.0373,-0.13729 -0.0866,-0.28574 -0.12545,-0.28305 -0.72119,0.0498 -4.39842,0.29542 -6.80518,0.29542 -2.12438,0 -5.81863,-0.41571 -7.21688,-0.58295 -0.23249,-0.092 -0.5543,0.35503 -0.6117,0.43446 -0.007,0.0168 -0.006,0.0145 -0.006,0.0145 0,0 -3.9e-4,-0.002 0.002,0.0155 0.0293,0.0747 0.23668,0.60481 0.49183,0.56961 1.40451,0.16799 5.14877,0.59033 7.34056,0.59033 2.44209,0 6.15174,-0.2478 6.87696,-0.29791 z"
       id="path5189"
       inkscape:path-effect="#path-effect5433"
       inkscape:original-d="m 174.44849,165.58818 c 0,0 -4.26873,0.30543 -6.96634,0.30543 -2.69761,0 -7.83454,-0.65473 -7.83454,-0.65473"
       inkscape:label="eye_bottom"
       sodipodi:nodetypes="csc" />
    <path
       style="display:inline;fill:#000000;fill-rule:nonzero;stroke:none;stroke-width:2.08298;stroke-linecap:butt;stroke-linejoin:miter;stroke-miterlimit:4;stroke-dasharray:none;stroke-opacity:1"
       d="m 174.81271,151.10099 c 0.1141,0.17993 0.35916,0.10167 0.54208,0.0151 0.18808,-0.0891 0.33161,-0.19746 0.33161,-0.19746 0,0 0.10751,-0.1448 0.17463,-0.34673 0.0647,-0.19481 0.093,-0.47304 -0.12358,-0.56895 l 0.007,-0.009 c -1.13853,-0.95879 -4.39707,-3.3559 -8.57389,-3.36353 -4.22365,-0.008 -6.43905,1.29095 -9.57685,4.73232 -2.09466,2.29816 -1.95678,3.40077 -1.95678,3.40077 0,0 0.99722,-0.18514 3.03422,-2.41837 2.92239,-3.20511 4.85773,-4.2633 8.49674,-4.25664 3.68581,0.007 6.6152,2.15997 7.63733,3.02074 z"
       id="path5074"
       inkscape:path-effect="#path-effect5431"
       inkscape:original-d="m 175.68939,150.9215 c 0,0 -3.60578,-3.55271 -8.51993,-3.56169 -4.91416,-0.009 -6.92838,1.83456 -11.53229,7.40405"
       inkscape:label="eye_top" />
    <path
       style="display:inline;fill:#000000;fill-rule:nonzero;stroke:none;stroke-width:3.33377;stroke-linecap:butt;stroke-linejoin:miter;stroke-miterlimit:2;stroke-dasharray:none;stroke-opacity:1"
       d="m 202.73276,150.00285 c -0.21662,0.0959 -0.1884,0.37416 -0.12369,0.56898 0.0671,0.20194 0.17457,0.34676 0.17457,0.34676 0,0 0.14352,0.10841 0.3316,0.19749 0.18291,0.0866 0.42797,0.16491 0.54213,-0.015 l 0.007,0.009 c 1.0224,-0.86078 3.95256,-3.01407 7.6394,-3.02081 3.64005,-0.007 5.57589,1.05158 8.49901,4.25671 2.0375,2.23322 3.03478,2.41831 3.03478,2.41831 0,0 0.13771,-1.1027 -1.95745,-3.40084 -3.13857,-3.44137 -5.35447,-4.74 -9.579,-4.73226 -4.17774,0.008 -7.43703,2.4047 -8.57583,3.36348 z"
       id="path9524"
       inkscape:path-effect="#path-effect9528"
       inkscape:original-d="m 202.78065,150.92151 c 0,0 3.60667,-3.55272 8.52203,-3.5617 4.91536,-0.009 6.93007,1.83456 11.53512,7.40406"
       inkscape:label="eye_top" />
    <path
       style="display:inline;fill:#000000;fill-opacity:1;fill-rule:nonzero;stroke:none;stroke-width:5.5334;stroke-linecap:butt;stroke-linejoin:miter;stroke-miterlimit:4;stroke-dasharray:none;stroke-opacity:1"
       d="m 204.65013,136.71668 c -1.16807,-0.14875 -2.51221,1.08514 -2.51221,1.08514 0,0 0.992,1.53138 2.16007,1.68013 l 0.0283,0.005 c 2.10746,0.22457 5.40848,0.47591 8.9907,0.3708 0.8525,-0.025 1.52946,0.002 2.1102,0.0943 1.0698,0.14486 2.14165,0.67766 3.07556,1.36641 0,0 0,0 0,0 1.3092,0.98447 2.73079,2.3636 3.54543,3.13103 0.91449,0.86151 1.50296,1.37508 1.50296,1.37508 0,0 -0.272,-0.7305 -0.79829,-1.87955 -0.5036,-1.09953 -1.34021,-2.78293 -2.64552,-4.3082 0,0 0,0 0,0 -1.00905,-1.16634 -2.46177,-2.13272 -4.24323,-2.44042 -0.81147,-0.12866 -1.68045,-0.15534 -2.62895,-0.12751 -3.42419,0.10048 -6.58177,-0.13982 -8.61323,-0.35629 z"
       id="path9512"
       sodipodi:nodetypes="csc"
       inkscape:label="eyebrow_R"
       inkscape:original-d="m 202.13699,137.80167 c 0,0 5.17223,0.83628 11.13904,0.66119 4.50251,-0.13212 5.81674,1.07022 10.27507,7.36124"
       inkscape:path-effect="#path-effect9516" />
    <path
       id="path6270"
       style="display:none;fill:none;stroke:#000000;stroke-width:1.3508;stroke-linecap:butt;stroke-linejoin:miter;stroke-miterlimit:4;stroke-dasharray:none;stroke-opacity:1"
       d="m 189.39051,172.89009 c -3.71255,-0.24393 -6.59788,-1.41643 -9.10441,-0.19525 -3.05511,1.48847 -0.7544,4.26119 0.93404,4.89067 2.79902,1.04353 3.597,0.0719 6.67094,-0.3372 0,0 2.1989,-0.22734 3.23787,0.0378 3.50697,0.89488 3.78561,1.27117 6.59075,0.19308 1.68083,-0.64599 3.98915,-3.4022 0.93403,-4.89067 -3.1899,-1.44819 -6.73144,0.11084 -9.26322,0.30157 z"
       sodipodi:nodetypes="cssssscc"
       inkscape:label="mouth_outline" />
    <path
       style="fill:none;stroke:#000000;stroke-width:1.61399;stroke-linecap:butt;stroke-linejoin:miter;stroke-miterlimit:4;stroke-dasharray:none;stroke-opacity:1"
       d="m 192.66873,163.0865 c 0,0 -3.97689,-2.24783 -6.1461,-0.67436 -2.16922,1.57348 0.12051,3.70892 0.84358,4.38327"
       id="path5994"
       inkscape:label="baby nose" />
    <ellipse
       id="circle9127-7"
       cx="-209.98622"
       cy="154.64265"
       style="display:inline;fill:#000000;stroke-width:0.0651305"
       inkscape:label="iris_fill_L"
       transform="scale(-1,1)"
       rx="1.9250429"
       ry="7.2413545" />
    <ellipse
       id="ellipse10487"
       cx="-168.85196"
       cy="154.45305"
       style="display:inline;fill:#000000;stroke-width:0.0651305"
       inkscape:label="iris_fill_L"
       transform="scale(-1,1)"
       rx="1.9250429"
       ry="7.2413545" />
    <g
       id="command_group1"
       inkscape:label="Ink/Stitch Command: Fill stitch starting position"
       transform="matrix(0.20121587,0,0,0.21712395,52.116875,14.785828)">
      <path
         id="command_connector1"
         d="m 571.59866,580.66426 0.0705,29.92712"
         style="fill:none;stroke:#000000;stroke-width:1px;stroke-opacity:0.5"
         inkscape:connection-start="#command_use1"
         inkscape:connector-type="polyline"
         inkscape:label="connector"
         inkscape:connector-curvature="0" />
      <use
         id="command_use1"
         xlink:href="#inkstitch_fill_start"
         height="100%"
         width="100%"
         x="571.59607"
         y="580.62836"
         inkscape:label="command marker" />
    </g>
    <g
       id="command_group2"
       inkscape:label="Ink/Stitch Command: Fill stitch ending position"
       transform="matrix(0.20121587,0,0,0.21712395,52.116875,14.785828)">
      <path
         id="command_connector2"
         d="m 574.45122,740.57958 -1.00058,-30.04371"
         style="fill:none;stroke:#000000;stroke-width:1px;stroke-opacity:0.5"
         inkscape:connection-start="#command_use2"
         inkscape:connector-type="polyline"
         inkscape:label="connector"
         inkscape:connector-curvature="0" />
      <use
         id="command_use2"
         xlink:href="#inkstitch_fill_end"
         height="100%"
         width="100%"
         x="574.47504"
         y="740.46472"
         inkscape:label="command marker" />
    </g>
    <g
       id="command_group3"
       inkscape:label="Ink/Stitch Command: Fill stitch starting position"
       transform="matrix(0.20121587,0,0,0.21712395,52.116875,14.785828)">
      <path
         id="command_connector3"
         d="m 788.82736,580.64241 0.56367,29.93552"
         style="fill:none;stroke:#000000;stroke-width:1px;stroke-opacity:0.5"
         inkscape:connection-start="#command_use3"
         inkscape:connector-type="polyline"
         inkscape:label="connector"
         inkscape:connector-curvature="0" />
      <use
         id="command_use3"
         xlink:href="#inkstitch_fill_start"
         height="100%"
         width="100%"
         x="788.82477"
         y="580.60651"
         inkscape:label="command marker" />
    </g>
    <g
       id="command_group4"
       inkscape:label="Ink/Stitch Command: Fill stitch ending position"
       transform="matrix(0.20121587,0,0,0.21712395,51.714441,49.742815)">
      <path
         id="command_connector4"
         d="m 788.80095,580.72136 1.35851,-31.22654"
         style="fill:none;stroke:#000000;stroke-width:1px;stroke-opacity:0.5"
         inkscape:connection-start="#command_use4"
         inkscape:connector-type="polyline"
         inkscape:label="connector"
         inkscape:connector-curvature="0" />
      <use
         id="command_use4"
         xlink:href="#inkstitch_fill_end"
         height="100%"
         width="100%"
         x="788.82477"
         y="580.60651"
         inkscape:label="command marker" />
    </g>
    <g
       id="command_group5"
       inkscape:label="Ink/Stitch Command: Fill stitch starting position"
       transform="matrix(0.264583,0,0,0.264583,-10.9374,-2.72175)">
      <path
         id="command_connector5"
         d="m 553.6918,530.02674 89.08732,10.8457"
         style="fill:none;stroke:#000000;stroke-width:1px;stroke-opacity:0.5"
         inkscape:connection-start="#command_use5"
         inkscape:connector-type="polyline"
         inkscape:label="connector"
         inkscape:connector-curvature="0" />
      <use
         id="command_use5"
         xlink:href="#inkstitch_fill_start"
         height="100%"
         width="100%"
         x="553.68921"
         y="529.99084"
         inkscape:label="command marker" />
    </g>
    <g
       id="command_group6"
       inkscape:label="Ink/Stitch Command: Fill stitch ending position"
       transform="matrix(0.20121587,0,0,0.21712395,65.598369,9.3577091)">
      <path
         id="command_connector6"
         d="M 584.78777,610.17613 500.9624,607.53836"
         style="fill:none;stroke:#000000;stroke-width:1px;stroke-opacity:0.5"
         inkscape:connection-start="#command_use6"
         inkscape:connector-type="polyline"
         inkscape:label="connector"
         inkscape:connector-curvature="0" />
      <use
         id="command_use6"
         xlink:href="#inkstitch_fill_end"
         height="100%"
         width="100%"
         x="584.81158"
         y="610.06128"
         inkscape:label="command marker" />
    </g>
    <g
       id="command_group7"
       inkscape:label="Ink/Stitch Command: Fill stitch starting position"
       transform="matrix(0.20121587,0,0,0.21712395,37.895711,26.944787)">
      <path
         id="command_connector7"
         d="m 786.62124,531.53266 82.83711,-5.0149"
         style="fill:none;stroke:#000000;stroke-width:1px;stroke-opacity:0.5"
         inkscape:connection-start="#command_use7"
         inkscape:connection-end="#path9512"
         inkscape:connector-type="polyline"
         inkscape:label="connector"
         inkscape:connector-curvature="0" />
      <use
         id="command_use7"
         xlink:href="#inkstitch_fill_start"
         height="100%"
         width="100%"
         x="786.61865"
         y="531.49677"
         inkscape:label="command marker" />
    </g>
    <g
       id="command_group8"
       inkscape:label="Ink/Stitch Command: Fill stitch ending position"
       transform="matrix(0.20121587,0,0,0.21712395,83.506591,23.067579)">
      <path
         id="command_connector8"
         d="m 716.66985,551.523 -28.99688,-2.80524"
         style="fill:none;stroke:#000000;stroke-width:1px;stroke-opacity:0.5"
         inkscape:connection-start="#command_use8"
         inkscape:connection-end="#path9512"
         inkscape:connector-type="polyline"
         inkscape:label="connector"
         inkscape:connector-curvature="0" />
      <use
         id="command_use8"
         xlink:href="#inkstitch_fill_end"
         height="100%"
         width="100%"
         x="716.69366"
         y="551.40814"
         inkscape:label="command marker" />
    </g>
    <g
       id="command_group11"
       inkscape:label="Ink/Stitch Command: Fill stitch starting position"
       transform="matrix(0.20121587,0,0,0.21712395,52.116875,14.785828)">
      <path
         id="command_connector11"
         d="m 569.88638,614.11329 4.60514,29.59049"
         style="fill:none;stroke:#000000;stroke-width:1px;stroke-opacity:0.5"
         inkscape:connection-start="#command_use11"
         inkscape:connector-type="polyline"
         inkscape:label="connector"
         inkscape:connector-curvature="0" />
      <use
         id="command_use11"
         xlink:href="#inkstitch_fill_start"
         height="100%"
         width="100%"
         x="569.88379"
         y="614.07739"
         inkscape:label="command marker" />
    </g>
    <g
       id="command_group12"
       inkscape:label="Ink/Stitch Command: Fill stitch ending position"
       transform="matrix(0.20121587,0,0,0.21712395,52.116875,14.785828)">
      <path
         id="command_connector12"
         d="m 582.68211,738.98992 -1.50269,-30.05659"
         style="fill:none;stroke:#000000;stroke-width:1px;stroke-opacity:0.5"
         inkscape:connection-start="#command_use12"
         inkscape:connector-type="polyline"
         inkscape:label="connector"
         inkscape:connector-curvature="0" />
      <use
         id="command_use12"
         xlink:href="#inkstitch_fill_end"
         height="100%"
         width="100%"
         x="582.70593"
         y="738.87506"
         inkscape:label="command marker" />
    </g>
    <g
       id="command_group13"
       inkscape:label="Ink/Stitch Command: Fill stitch starting position"
       transform="matrix(0.20121587,0,0,0.21712395,52.116875,14.785828)">
      <path
         id="command_connector13"
         d="m 778.83639,611.73463 3.35267,29.74695"
         style="fill:none;stroke:#000000;stroke-width:1px;stroke-opacity:0.5"
         inkscape:connection-start="#command_use13"
         inkscape:connector-type="polyline"
         inkscape:label="connector"
         inkscape:connector-curvature="0" />
      <use
         id="command_use13"
         xlink:href="#inkstitch_fill_start"
         height="100%"
         width="100%"
         x="778.8338"
         y="611.69873"
         inkscape:label="command marker" />
    </g>
    <g
       id="command_group14"
       inkscape:label="Ink/Stitch Command: Fill stitch ending position"
       transform="matrix(0.20121587,0,0,0.21712395,52.116875,14.785828)">
      <path
         id="command_connector14"
         d="M 787.59215,739.50994 786.8487,709.42847"
         style="fill:none;stroke:#000000;stroke-width:1px;stroke-opacity:0.5"
         inkscape:connection-start="#command_use14"
         inkscape:connector-type="polyline"
         inkscape:label="connector"
         inkscape:connector-curvature="0" />
      <use
         id="command_use14"
         xlink:href="#inkstitch_fill_end"
         height="100%"
         width="100%"
         x="787.61597"
         y="739.39508"
         inkscape:label="command marker" />
    </g>
    <path
       style="display:inline;fill:#000000;fill-rule:nonzero;stroke:none;stroke-width:1.04149;stroke-linecap:butt;stroke-linejoin:miter;stroke-miterlimit:4;stroke-dasharray:none;stroke-opacity:1"
       d="m 205.15603,165.07744 c -0.0384,-0.008 -0.0877,0.14053 -0.12526,0.28033 -0.032,0.11919 -0.0359,0.23041 -0.0359,0.23041 0,0 -0.0118,0.11067 0.003,0.2332 0.0178,0.14371 0.0464,0.29791 0.086,0.29507 0.72522,0.0501 4.43487,0.29791 6.87696,0.29791 2.19179,0 5.93605,-0.42234 7.34056,-0.59033 0.25515,0.0352 0.46255,-0.49491 0.49183,-0.56961 0.003,-0.018 0.002,-0.0155 0.002,-0.0155 0,0 9.8e-4,0.002 -0.006,-0.0145 -0.0574,-0.0794 -0.37921,-0.52645 -0.6117,-0.43446 -1.39825,0.16724 -5.0925,0.58295 -7.21688,0.58295 -2.40676,0 -6.08399,-0.2456 -6.80518,-0.29542 z"
       id="path12892"
       inkscape:path-effect="#path-effect12896"
       inkscape:original-d="m 204.99487,165.58818 c 0,0 4.26873,0.30543 6.96634,0.30543 2.69761,0 7.83454,-0.65473 7.83454,-0.65473"
       inkscape:label="eye_bottom"
       sodipodi:nodetypes="csc" />
    <path
       style="fill:#000000;fill-rule:nonzero;stroke:#000000;stroke-width:0.477143;stroke-linecap:butt;stroke-linejoin:miter;stroke-miterlimit:4;stroke-dasharray:none;stroke-opacity:1"
       d="m 186.52856,172.99499 c -1.87994,1.2929 -3.29886,3.25614 -3.29886,3.25614 0,0 2.34095,-0.62256 4.22089,-1.91547 l -0.15117,0.0886 c 1.45008,-0.59203 3.28775,-0.88457 5.32097,-0.20006 2.21018,0.72972 4.65716,2.02725 4.65716,2.02725 0,0 -1.25737,-2.59686 -4.13406,-3.58099 -2.49892,-0.8413 -4.70943,-0.48025 -6.46376,0.236 z"
       id="path13263"
       inkscape:label="sad mouth"
       inkscape:path-effect="#path-effect13362"
       inkscape:original-d="m 183.22945,176.25142 c 0,0 6.40589,-7.30239 14.0481,0"
       inkscape:linked-fill="path13368" />
    <path
       style="display:inline;fill:#000000;fill-opacity:1;fill-rule:nonzero;stroke:none;stroke-width:5.5334;stroke-linecap:butt;stroke-linejoin:miter;stroke-miterlimit:4;stroke-dasharray:none;stroke-opacity:1"
       d="m 175.04361,139.48195 c 1.16807,-0.14875 2.16007,-1.68013 2.16007,-1.68013 0,0 -1.34414,-1.23389 -2.51221,-1.08514 l 0.0282,-0.005 c -2.03146,0.21647 -5.18904,0.45677 -8.61323,0.35629 -0.9485,-0.0278 -1.81748,-0.001 -2.62895,0.12751 -1.78146,0.3077 -3.23418,1.27408 -4.24323,2.44042 0,0 0,0 0,0 -1.30531,1.52527 -2.14192,3.20867 -2.64552,4.3082 -0.52629,1.14905 -0.79829,1.87955 -0.79829,1.87955 0,0 0.58847,-0.51357 1.50296,-1.37508 0.81464,-0.76743 2.23623,-2.14656 3.54543,-3.13103 0,0 0,0 0,0 0.93391,-0.68875 2.00576,-1.22155 3.07556,-1.36641 0.58074,-0.0921 1.2577,-0.1193 2.1102,-0.0943 3.58222,0.10511 6.88324,-0.14623 8.9907,-0.3708 z"
       id="path14305"
       sodipodi:nodetypes="csc"
       inkscape:label="eyebrow_L"
       inkscape:original-d="m 177.20461,137.80167 c 0,0 -5.17223,0.83628 -11.13904,0.66119 -4.50251,-0.13212 -5.81674,1.07022 -10.27507,7.36124"
       inkscape:path-effect="#path-effect14309" />
  </g>
</svg>
