<?xml version="1.0" encoding="UTF-8" standalone="no"?>
<!-- Created with Inkscape (http://www.inkscape.org/) -->

<svg
   width="360mm"
   height="360mm"
   viewBox="0 0 360 360"
   version="1.1"
   id="svg8"
   inkscape:version="1.1.1 (c3084ef, 2021-09-22)"
   sodipodi:docname="face-baby-crying.svg"
   xmlns:inkscape="http://www.inkscape.org/namespaces/inkscape"
   xmlns:sodipodi="http://sodipodi.sourceforge.net/DTD/sodipodi-0.dtd"
   xmlns:xlink="http://www.w3.org/1999/xlink"
   xmlns="http://www.w3.org/2000/svg"
   xmlns:svg="http://www.w3.org/2000/svg"
   xmlns:rdf="http://www.w3.org/1999/02/22-rdf-syntax-ns#"
   xmlns:cc="http://creativecommons.org/ns#"
   xmlns:dc="http://purl.org/dc/elements/1.1/">
  <title
     id="title1023">inkStitch - Embroidery Hoops Template</title>
  <defs
     id="defs2">
    <inkscape:path-effect
       effect="taper_stroke"
       id="path-effect12308"
       is_visible="true"
       lpeversion="1"
       stroke_width="2.5"
       attach_start="0.2"
       end_offset="0.2"
       start_smoothing="0.5"
       end_smoothing="0.5"
       jointype="extrapolated"
       start_shape="center"
       end_shape="center"
       miter_limit="100" />
    <inkscape:path-effect
       effect="taper_stroke"
       id="path-effect12222"
       is_visible="true"
       lpeversion="1"
       stroke_width="2.5"
       attach_start="0.2"
       end_offset="0.2"
       start_smoothing="0.5"
       end_smoothing="0.5"
       jointype="extrapolated"
       start_shape="center"
       end_shape="center"
       miter_limit="100" />
    <inkscape:path-effect
       effect="join_type"
       id="path-effect9780"
       is_visible="true"
       lpeversion="1"
       linecap_type="square"
       line_width="2.5"
       linejoin_type="extrp_arc"
       miter_limit="100"
       attempt_force_join="true" />
    <inkscape:path-effect
       effect="taper_stroke"
       id="path-effect9528"
       is_visible="true"
       lpeversion="1"
       stroke_width="1.4580868"
       attach_start="0.2"
       end_offset="0.2"
       start_smoothing="0.8"
       end_smoothing="0.8"
       jointype="extrapolated"
       start_shape="center"
       end_shape="center"
       miter_limit="100" />
    <inkscape:path-effect
       effect="taper_stroke"
       id="path-effect9522"
       is_visible="true"
       lpeversion="1"
       stroke_width="1.0416183"
       attach_start="0.2"
       end_offset="0.2"
       start_smoothing="0.5"
       end_smoothing="0.5"
       jointype="extrapolated"
       start_shape="center"
       end_shape="center"
       miter_limit="100" />
    <inkscape:path-effect
       effect="taper_stroke"
       id="path-effect9516"
       is_visible="true"
       lpeversion="1"
       stroke_width="2.7900725"
       attach_start="0.2"
       end_offset="0.8"
       start_smoothing="0.5"
       end_smoothing="0.5"
       jointype="extrapolated"
       start_shape="center"
       end_shape="center"
       miter_limit="100" />
    <inkscape:path-effect
       effect="taper_stroke"
       id="path-effect9350"
       is_visible="true"
       lpeversion="1"
       stroke_width="4.887397"
       attach_start="0.2"
       end_offset="0.8"
       start_smoothing="0.5"
       end_smoothing="0.5"
       jointype="extrapolated"
       start_shape="center"
       end_shape="center"
       miter_limit="100" />
    <inkscape:path-effect
       effect="taper_stroke"
       id="path-effect6889"
       is_visible="true"
       lpeversion="1"
       stroke_width="8"
       attach_start="0.2"
       end_offset="0"
       start_smoothing="0.5"
       end_smoothing="0.5"
       jointype="extrapolated"
       start_shape="left"
       end_shape="center"
       miter_limit="100" />
    <inkscape:path-effect
       effect="taper_stroke"
       id="path-effect6883"
       is_visible="true"
       lpeversion="1"
       stroke_width="8"
       attach_start="0.2"
       end_offset="0"
       start_smoothing="0.5"
       end_smoothing="0.5"
       jointype="extrapolated"
       start_shape="left"
       end_shape="center"
       miter_limit="100" />
    <inkscape:path-effect
       effect="taper_stroke"
       id="path-effect5435"
       is_visible="true"
       lpeversion="1"
       stroke_width="2.59115"
       attach_start="0.2"
       end_offset="0.2"
       start_smoothing="0.5"
       end_smoothing="0.5"
       jointype="extrapolated"
       start_shape="center"
       end_shape="center"
       miter_limit="100" />
    <inkscape:path-effect
       effect="taper_stroke"
       id="path-effect5433"
       is_visible="true"
       lpeversion="1"
       stroke_width="1.0414905"
       attach_start="0.2"
       end_offset="0.2"
       start_smoothing="0.5"
       end_smoothing="0.5"
       jointype="extrapolated"
       start_shape="center"
       end_shape="center"
       miter_limit="100" />
    <inkscape:path-effect
       effect="taper_stroke"
       id="path-effect5431"
       is_visible="true"
       lpeversion="1"
       stroke_width="1.4580868"
       attach_start="0.2"
       end_offset="0.2"
       start_smoothing="0.8"
       end_smoothing="0.8"
       jointype="extrapolated"
       start_shape="center"
       end_shape="center"
       miter_limit="100" />
    <inkscape:path-effect
       effect="taper_stroke"
       id="path-effect1563"
       is_visible="true"
       lpeversion="1"
       stroke_width="2.8712699"
       attach_start="0.2"
       end_offset="0.2"
       start_smoothing="0.5"
       end_smoothing="0.5"
       jointype="extrapolated"
       start_shape="center"
       end_shape="center"
       miter_limit="100" />
    <inkscape:path-effect
       effect="taper_stroke"
       id="path-effect1398"
       is_visible="true"
       lpeversion="1"
       stroke_width="2.6818538"
       attach_start="0.2"
       end_offset="0.8"
       start_smoothing="0.5"
       end_smoothing="0.5"
       jointype="extrapolated"
       start_shape="center"
       end_shape="center"
       miter_limit="100" />
    <marker
       style="overflow:visible"
       id="Arrow1Lstart"
       refX="0.0"
       refY="0.0"
       orient="auto"
       inkscape:stockid="Arrow1Lstart"
       inkscape:isstock="true">
      <path
         transform="scale(0.8) translate(12.5,0)"
         style="fill-rule:evenodd;fill:context-stroke;stroke:context-stroke;stroke-width:1.0pt"
         d="M 0.0,0.0 L 5.0,-5.0 L -12.5,0.0 L 5.0,5.0 L 0.0,0.0 z "
         id="path1667" />
    </marker>
    <style
       id="style824"
       type="text/css"><![CDATA[
    .fil0 {fill:none}
    .fil1 {fill:#003399}
   ]]></style>
    <symbol
       id="inkstitch_fill_start">
      <title
         id="inkstitch_title9432">Fill stitch starting point</title>
      <path
         id="inkstitch_circle13166-6"
         d="m 9.2465269,-2.6e-6 c -1.9e-6,5.106729 -4.1398247,9.24655 -9.246554026709,9.24655 C -5.106756,9.2465474 -9.2465782,5.1067264 -9.2465801,-2.6e-6 c 2e-7,-5.10673 4.1398229,-9.246553 9.246552973291,-9.246553 2.452338526709,0 4.804235626709,0.974187 6.538300926709,2.708252 1.7340652,1.734066 2.708253,4.085963 2.7082531,6.538301 0,0 0,0 0,0"
         style="opacity:1;vector-effect:none;fill:#fafafa;fill-opacity:1;fill-rule:evenodd;stroke:#003399;stroke-width:1.06501234;stroke-linecap:round;stroke-linejoin:miter;stroke-miterlimit:4;stroke-dasharray:3.19503705, 3.19503705;stroke-dashoffset:0;stroke-opacity:1"
         inkscape:connector-curvature="0" />
      <path
         style="opacity:1;vector-effect:none;fill:#000000;fill-opacity:1;fill-rule:evenodd;stroke:none;stroke-width:2.74180555;stroke-linecap:butt;stroke-linejoin:miter;stroke-miterlimit:4;stroke-dasharray:none;stroke-dashoffset:0;stroke-opacity:1"
         d="m 6.5728129,0.0035574 c 0,0 -10.4514,6.03412 -10.4514,6.03412 0,0 0,-12.06823 0,-12.06823 0,0 10.4514,6.03411 10.4514,6.03411"
         id="inkstitch_path4183"
         inkscape:connector-curvature="0" />
    </symbol>
    <symbol
       id="inkstitch_fill_end">
      <title
         id="inkstitch_title9427">Fill stitch ending point</title>
      <path
         id="inkstitch_circle13166"
         d="m 9.220113,0.0792309 c -1.9e-6,5.106729 -4.1398241,9.24655 -9.246553,9.24655 -5.1067293,0 -9.2465521,-4.139821 -9.246554,-9.24655 1e-7,-2.452338 0.9741879,-4.804235 2.7082531,-6.538301 1.7340653,-1.734065 4.0859624,-2.708252 6.5383009,-2.708252 5.1067301,0 9.2465528,4.139823 9.246553,9.246553 0,0 0,0 0,0"
         style="opacity:1;vector-effect:none;fill:#fafafa;fill-opacity:1;fill-rule:evenodd;stroke:#003399;stroke-width:1.06500006;stroke-linecap:round;stroke-linejoin:miter;stroke-miterlimit:4;stroke-dasharray:3.19500017, 3.19500017;stroke-dashoffset:0;stroke-opacity:1"
         inkscape:connector-curvature="0" />
      <path
         style="opacity:1;fill:#000000;fill-opacity:1;fill-rule:nonzero;stroke:none;stroke-width:2.27154255;stroke-linecap:round;stroke-linejoin:round;stroke-miterlimit:4;stroke-dasharray:4.81866985, 4.81866985;stroke-dashoffset:0;stroke-opacity:1;paint-order:fill markers stroke"
         d="m -4.570439,-4.5704391 c 0,0 9.140878,0 9.140878,0 0,0 0,9.14087 0,9.14087 0,0 -9.140878,0 -9.140878,0 0,0 0,-9.14087 0,-9.14087"
         id="inkstitch_rect5371-2"
         inkscape:connector-curvature="0" />
    </symbol>
  </defs>
  <sodipodi:namedview
     id="base"
     pagecolor="#fafafa"
     bordercolor="#666666"
     borderopacity="1.0"
     inkscape:pageopacity="0.78431373"
     inkscape:pageshadow="2"
     inkscape:zoom="1.8688079"
     inkscape:cx="706.06507"
     inkscape:cy="648.27422"
     inkscape:document-units="cm"
     inkscape:current-layer="layer2"
     showgrid="true"
     inkscape:window-width="1462"
     inkscape:window-height="969"
     inkscape:window-x="83"
     inkscape:window-y="59"
     inkscape:window-maximized="0"
     objecttolerance="3"
     gridtolerance="3"
     guidetolerance="3"
     inkscape:snap-perpendicular="true"
     inkscape:snap-tangential="true"
     inkscape:showpageshadow="true"
     borderlayer="false"
     inkscape:snap-path-clip="false"
     inkscape:pagecheckerboard="false"
     fit-margin-top="10"
     fit-margin-left="10"
     fit-margin-right="10"
     fit-margin-bottom="10">
    <inkscape:grid
       type="xygrid"
       id="grid3702"
       units="mm"
       spacingx="0.50000002"
       spacingy="0.50000002"
       dotted="false"
       originx="0"
       originy="0"
       empspacing="20"
       color="#ff7300"
       opacity="0.09803922"
       empcolor="#0000ff"
       empopacity="0.09803922" />
  </sodipodi:namedview>
  <metadata
     id="metadata5">
    <rdf:RDF>
      <cc:Work
         rdf:about="">
        <dc:format>image/svg+xml</dc:format>
        <dc:type
           rdf:resource="http://purl.org/dc/dcmitype/StillImage" />
        <dc:title>inkStitch - Embroidery Hoops Template</dc:title>
        <cc:license
           rdf:resource="http://creativecommons.org/publicdomain/zero/1.0/" />
        <dc:date>180404</dc:date>
        <dc:creator>
          <cc:Agent>
            <dc:title>X3msnake</dc:title>
          </cc:Agent>
        </dc:creator>
        <dc:rights>
          <cc:Agent>
            <dc:title>CC0</dc:title>
          </cc:Agent>
        </dc:rights>
      </cc:Work>
      <cc:License
         rdf:about="http://creativecommons.org/publicdomain/zero/1.0/">
        <cc:permits
           rdf:resource="http://creativecommons.org/ns#Reproduction" />
        <cc:permits
           rdf:resource="http://creativecommons.org/ns#Distribution" />
        <cc:permits
           rdf:resource="http://creativecommons.org/ns#DerivativeWorks" />
      </cc:License>
    </rdf:RDF>
  </metadata>
  <g
     inkscape:label="HOOPS REF"
     inkscape:groupmode="layer"
     id="layer1"
     transform="translate(-9.3905029,72.390505)"
     style="display:inline;opacity:0.5"
     sodipodi:insensitive="true">
    <circle
       id="path3704-5-2"
       cx="189.3905"
       cy="107.6095"
       r="49.952381"
       style="opacity:0.335;fill:none;stroke:#000000;stroke-width:1;stroke-linecap:butt;stroke-linejoin:round;stroke-miterlimit:4;stroke-dasharray:0.5, 0.5;stroke-dashoffset:0"
       sodipodi:insensitive="true"
       inkscape:label="100x100" />
    <circle
       id="path3704-5"
       cx="189.3905"
       cy="107.6095"
       r="69.933334"
       style="opacity:0.335;fill:none;stroke:#000000;stroke-width:1;stroke-linecap:butt;stroke-linejoin:round;stroke-miterlimit:4;stroke-dasharray:0.5, 0.5;stroke-dashoffset:0"
       sodipodi:insensitive="true"
       inkscape:label="140x140" />
    <circle
       id="path3704-4"
       cx="189.3905"
       cy="107.6095"
       r="84.919044"
       style="opacity:0.335;fill:none;stroke:#000000;stroke-width:1;stroke-linecap:butt;stroke-linejoin:round;stroke-miterlimit:4;stroke-dasharray:0.5, 0.5;stroke-dashoffset:0"
       sodipodi:insensitive="true"
       inkscape:label="170x170" />
    <circle
       id="path3704"
       cx="189.3905"
       cy="107.6095"
       r="99.904762"
       style="opacity:0.335;fill:none;stroke:#000000;stroke-width:1;stroke-linecap:butt;stroke-linejoin:round;stroke-miterlimit:4;stroke-dasharray:0.5, 0.5;stroke-dashoffset:0"
       inkscape:label="200x200"
       sodipodi:insensitive="true" />
    <rect
       style="opacity:0.335;fill:none;stroke:#000000;stroke-width:1;stroke-linecap:butt;stroke-linejoin:round;stroke-miterlimit:4;stroke-dasharray:0.5, 0.5;stroke-dashoffset:0"
       id="rect3742"
       width="319.6095"
       height="319.6095"
       x="29.585754"
       y="-52.195255"
       ry="44.043102"
       sodipodi:insensitive="true"
       inkscape:label="320x320" />
    <g
       style="clip-rule:evenodd;fill:#f9f9f9;fill-opacity:1;fill-rule:evenodd;stroke:#999999;stroke-width:20.97;stroke-miterlimit:4;stroke-dasharray:none;stroke-opacity:1;image-rendering:optimizeQuality;shape-rendering:geometricPrecision;text-rendering:geometricPrecision"
       id="g845"
       transform="matrix(0,0.0056763,-0.0056763,0,341.03436,-359.15659)"
       inkscape:label="inkStitch-logo"
       sodipodi:insensitive="true">
      <path
         style="fill:#f9f9f9;fill-opacity:1;stroke:none;stroke-width:25.7694;stroke-miterlimit:4;stroke-dasharray:none;stroke-opacity:1"
         d="m 53158.869,23350.193 h 1826.028 266.315 c 998.46,0 1815.618,892.05 1815.618,1982.018 v 2766.111 c 0,1089.966 -817.159,1982.014 -1815.618,1982.014 h -242.024 -2001.257 -290.607 c -999.324,0 -1816.482,-892.048 -1816.482,-1982.014 v -2766.111 c 0,-1089.968 817.158,-1982.018 1816.482,-1982.018 z"
         id="path992"
         inkscape:connector-curvature="0"
         sodipodi:nodetypes="ccssssccssssc"
         inkscape:label="bkg" />
      <path
         id="path912"
         d="m 54083.958,25539.209 h -26.503 c -7.363,0 -13.988,-5.89 -13.988,-13.985 v -150.92 c 0,-7.362 6.625,-13.252 13.988,-13.252 h 26.503 c 7.36,0 13.989,5.89 13.989,13.252 v 150.92 c 0,8.095 -6.629,13.985 -13.989,13.985 z m -800.235,-1439.978 c 33.129,-5.153 58.895,-34.602 58.895,-69.2 v 0 c 0,-38.282 -30.919,-69.938 -69.2,-69.938 h -73.619 c -19.139,0 -35.337,-8.835 -44.907,-25.032 -10.308,-16.195 -10.308,-34.6 -1.474,-51.531 22.087,-41.963 64.05,-70.675 118.526,-70.675 h 1423.783 c 75.827,0 137.666,61.84 137.666,137.669 v 148.707 h 226.01 c 847.349,0 1540.835,693.488 1540.835,1540.837 v 2150.396 c 0,847.35 -693.487,1540.835 -1540.835,1540.835 h -205.396 v 146.502 c 0,77.299 -62.575,139.874 -139.876,139.874 h -1418.629 c -76.563,0 -139.874,-62.575 -139.874,-139.874 v -146.502 h -246.624 c -848.083,0 -1541.57,-693.485 -1541.57,-1540.835 v -2150.396 c 0,-847.349 693.487,-1540.837 1541.57,-1540.837 z m 861.339,5341.024 v -54.477 c 0,-22.087 10.305,-41.226 26.503,-54.479 h 86.868 c 16.195,13.253 26.503,32.392 26.503,54.479 v 54.477 c 0,38.281 -31.656,69.938 -69.938,69.938 v 0 c -38.282,0 -69.936,-31.657 -69.936,-69.938 z m 362.201,-27.239 c 0,-38.281 31.657,-69.938 69.938,-69.938 38.282,0 69.939,31.657 69.939,69.938 0,39.018 -31.657,69.938 -69.939,69.938 -38.281,0 -69.938,-30.92 -69.938,-69.938 z m -362.201,-5371.944 v -54.476 c 0,-38.282 31.654,-69.939 69.936,-69.939 v 0 c 38.282,0 69.938,31.657 69.938,69.939 v 54.476 c 0,24.295 -12.515,45.644 -30.921,58.159 h -78.034 c -18.404,-12.515 -30.919,-33.864 -30.919,-58.159 z m 362.939,-27.239 c 0,-38.282 30.919,-69.199 69.2,-69.199 38.282,0 69.203,30.917 69.203,69.199 0,38.282 -30.921,69.203 -69.203,69.203 -38.281,0 -69.2,-30.921 -69.2,-69.203 z m -427.724,999.74 c 78.036,345.27 84.66,396.805 37.544,800.233 l 9.572,943.79 c 1.471,191.407 58.893,336.438 58.893,525.637 v 1057.897 l -38.279,69.938 h -154.601 l -38.282,-69.938 v -1057.897 c 0,-189.199 57.424,-334.229 58.895,-525.637 l 9.57,-943.79 c -47.115,-403.428 -40.489,-454.963 37.547,-800.233 0.735,-4.416 5.153,-7.36 9.57,-7.36 4.418,0 8.098,2.944 9.571,7.36 z m -424.778,3231.118 h -1105.751 v -264.292 h 1105.751 z m 0,-798.761 h -1141.825 v -25.032 l 645.634,-688.332 h -609.56 v -243.678 h 1147.713 v 22.822 l -644.9,690.543 h 602.938 z m 0,-1462.8 h -1105.751 v -260.609 h 481.465 l -481.465,-365.149 v -314.351 l 525.636,416.68 580.115,-449.808 v 318.768 l -509.441,393.86 h 509.441 z m 1420.099,2455.914 c 26.503,-44.171 45.646,-80.982 56.686,-111.9 10.308,-30.921 16.198,-61.104 16.198,-90.552 0,-29.447 -6.625,-53.005 -19.878,-71.409 -12.515,-17.669 -29.447,-26.503 -50.061,-26.503 -28.711,0 -61.839,31.657 -98.647,95.703 -5.889,10.308 -10.308,18.404 -13.988,23.558 l -27.239,48.59 c -26.503,47.116 -56.688,81.714 -90.551,104.537 -33.128,22.822 -71.41,33.866 -114.11,33.866 -57.421,0 -104.537,-21.351 -141.347,-64.784 -37.544,-43.436 -55.951,-99.386 -55.951,-168.588 0,-25.03 3.681,-53.003 9.573,-82.45 5.889,-29.448 14.723,-62.578 27.238,-98.652 h 167.851 c -21.351,34.601 -38.282,66.994 -50.061,97.912 -11.779,31.657 -17.67,57.424 -17.67,79.509 0,24.294 5.153,42.699 15.461,56.686 10.305,13.989 24.294,20.613 41.962,20.613 12.514,0 24.293,-3.681 35.337,-11.779 11.043,-8.833 20.612,-20.613 29.447,-37.543 l 46.38,-83.927 c 39.018,-70.673 75.09,-117.79 108.22,-142.082 32.392,-24.294 71.409,-36.073 117.051,-36.073 69.939,0 125.889,23.558 169.326,71.409 42.696,47.85 64.045,110.428 64.045,189.199 0,26.502 -2.206,55.95 -8.096,87.607 -5.889,30.919 -14.724,65.52 -26.503,103.066 z m 202.452,-735.451 h -566.864 v 227.481 h -150.18 v -625.021 h 150.18 v 226.745 h 566.864 z m 0,-503.548 h -717.044 v -170.796 h 717.044 z m 0,-505.025 h -566.864 v 227.481 h -150.18 v -625.757 h 150.18 v 226.746 h 566.864 z m -490.3,-1013.725 c -31.655,31.654 -55.213,62.575 -70.674,94.229 -15.459,32.393 -22.821,65.522 -22.821,100.121 0,61.104 20.614,110.43 62.575,148.711 41.964,39.017 95.704,58.159 161.225,58.159 65.521,0 118.527,-19.142 159.018,-57.424 40.488,-38.282 61.1,-87.606 61.1,-149.446 0,-36.073 -7.36,-72.145 -22.819,-108.217 -15.462,-36.073 -37.547,-72.148 -68.466,-108.219 l 190.671,11.042 c 20.614,30.919 36.809,64.049 47.117,100.857 11.043,36.073 16.194,73.619 16.194,113.372 0,41.964 -6.625,82.453 -19.14,121.472 -13.251,38.282 -33.127,74.354 -58.893,106.746 -36.074,46.381 -80.245,81.718 -132.515,106.012 -52.269,24.293 -108.955,36.807 -170.795,36.807 -53.005,0 -103.065,-8.834 -149.446,-27.237 -46.378,-18.405 -87.605,-44.172 -122.941,-78.774 -35.338,-35.337 -62.575,-75.825 -81.717,-121.47 -19.14,-45.641 -28.713,-94.231 -28.713,-145.027 0,-39.756 5.89,-78.038 16.934,-114.846 11.042,-36.808 28.712,-71.409 51.533,-104.537 z m 490.3,-133.252 h -717.044 v -168.586 h 263.554 v -276.806 h -263.554 V 24934.8 h 717.044 v 167.851 h -301.099 v 276.806 h 301.099 z m -3648.533,2242.421 c 0,703.056 576.432,1279.491 1279.488,1279.491 h 2150.398 c 703.057,0 1279.489,-576.435 1279.489,-1279.491 v -2150.396 c 0,-703.058 -576.432,-1279.49 -1279.489,-1279.49 h -2150.398 c -703.056,0 -1279.488,576.432 -1279.488,1279.49 z"
         class="fil1"
         inkscape:connector-curvature="0"
         style="fill:#f9f9f9;fill-opacity:1;stroke:#999999;stroke-width:52.328;stroke-miterlimit:4;stroke-dasharray:none;stroke-opacity:1;paint-order:stroke fill markers"
         inkscape:label="logo" />
    </g>
    <path
       id="path1018"
       style="fill:#999999;stroke:#b3b3b3;stroke-width:0.1;stroke-linecap:butt;stroke-linejoin:miter;stroke-miterlimit:4;stroke-dasharray:none;stroke-opacity:1"
       d="m 192.92603,111.14502 -7.07107,-7.07106 m 7.07106,1e-5 -7.07106,7.07107"
       inkscape:connector-curvature="0"
       inkscape:label="default-origin"
       sodipodi:insensitive="true" />
  </g>
  <g
     id="layer2"
     inkscape:label="DESIGN LAYER"
     transform="translate(-9.3905,19.3905)">
    <path
       style="display:none;fill:#dbdee3;fill-opacity:1;stroke:none;stroke-width:0.8;stroke-linecap:butt;stroke-linejoin:miter;stroke-miterlimit:4;stroke-dasharray:none;stroke-opacity:1"
       d="m 174.96398,150.60951 c 0,0 1.68379,9.69866 -1.21608,15.21778 -7.01582,-0.56127 -9.80273,0.15394 -13.47038,0.0935 -5.56937,-3.73647 -4.30304,-11.78658 -4.30304,-11.78658 0,0 4.77076,-6.36102 7.39,-6.45456 2.61924,-0.0935 4.77076,-2.18518 11.5995,2.92982 z"
       id="path11514"
       sodipodi:nodetypes="ccccssc"
       inkscape:label="sclera_fill_L" />
    <path
       id="path10944"
       style="display:none;fill:none;stroke:#dedede;stroke-width:3.02362;stroke-linecap:butt;stroke-linejoin:miter;stroke-miterlimit:4;stroke-dasharray:none;stroke-opacity:1"
       inkscape:label="sclera_outline_L"
       d="m 623.68337,640.97381 c 0.68874,0.49481 1.39065,1.00981 2.10614,1.54574 v 1.5e-4 0 c 0,0 6.36393,36.65636 -4.5962,57.51602 -0.30851,-0.0247 -0.61484,-0.0487 -0.91905,-0.0721"
       transform="matrix(0.26458334,0,0,0.26458334,9.3905,-19.3905)" />
    <path
       id="path12090"
       style="display:none;fill:none;stroke:#dedede;stroke-width:3.02362;stroke-linecap:butt;stroke-linejoin:miter;stroke-miterlimit:4;stroke-dasharray:none;stroke-opacity:1"
       inkscape:label="sclera_outline_L"
       d="m 559.68651,648.86203 c 6.13204,-7.12864 15.88472,-17.18805 22.26237,-17.41581 9.62506,-0.34359 17.579,-7.82643 41.73449,9.52759"
       transform="matrix(0.26458334,0,0,0.26458334,9.3905,-19.3905)" />
    <path
       id="path12088"
       style="display:none;fill:none;stroke:#dedede;stroke-width:3.02362;stroke-linecap:butt;stroke-linejoin:miter;stroke-miterlimit:4;stroke-dasharray:none;stroke-opacity:1"
       inkscape:label="sclera_outline_L"
       d="m 569.61498,699.93039 c -20.28109,-14.3108 -15.5968,-44.08898 -15.5968,-44.08898 0,0 2.28212,-3.04284 5.66833,-6.97938"
       transform="matrix(0.26458334,0,0,0.26458334,9.3905,-19.3905)" />
    <path
       id="path12086"
       style="display:none;fill:none;stroke:#dedede;stroke-width:3.02362;stroke-linecap:butt;stroke-linejoin:miter;stroke-miterlimit:4;stroke-dasharray:none;stroke-opacity:1"
       inkscape:label="sclera_outline_L"
       d="m 620.27426,699.96363 c -25.84298,-1.98674 -36.29192,0.65125 -49.99263,0.42548 -0.22516,-0.15106 -0.44736,-0.30399 -0.66665,-0.45872"
       transform="matrix(0.26458334,0,0,0.26458334,9.3905,-19.3905)" />
    <path
       id="path9908"
       style="display:inline;fill:#ff2a2a;fill-opacity:1;stroke:none;stroke-width:1.6;stroke-linecap:butt;stroke-linejoin:miter;stroke-miterlimit:4;stroke-dasharray:none;stroke-opacity:1"
       d="m 189.73612,171.10013 c -4.18609,-0.30353 -7.51943,-0.5293 -10.34566,0.99021 -3.4448,1.85209 -0.85063,5.30216 1.05317,6.08542 3.15604,1.29846 4.0558,0.0894 7.52182,-0.41957 0,0 2.47937,-0.28288 3.65087,0.047 3.95428,1.1135 4.26846,1.58172 7.4314,0.24025 1.89522,-0.8038 4.49797,-4.23333 1.05317,-6.08542 -3.59678,-1.80198 -7.51006,-1.09524 -10.36477,-0.85792 z"
       sodipodi:nodetypes="csssssccc"
       inkscape:label="mouth_fill" />
    <path
       style="display:inline;fill:#b33434;fill-opacity:1;stroke:none;stroke-width:0.12035;stroke-linecap:butt;stroke-linejoin:miter;stroke-miterlimit:4;stroke-dasharray:none;stroke-opacity:1"
       d="m 189.65614,174.06086 c 0,0 -2.71827,0.0233 -4.24688,0.6973 -1.83653,0.80977 -3.07913,3.25017 -2.27082,3.66348 2.05276,1.04962 4.7893,-0.95145 6.7016,-0.8992 3.51293,0.096 7.17931,1.20204 7.17931,1.20204 0,0 -1.28368,-2.43731 -2.46559,-3.46171 -1.18191,-1.02439 -3.18808,-1.29733 -4.89762,-1.20191 z"
       id="path7235"
       inkscape:label="tongue_fill"
       sodipodi:nodetypes="cssscsc" />
    <path
       style="display:none;fill:#000000;fill-rule:nonzero;stroke:none;stroke-width:1.04149;stroke-linecap:butt;stroke-linejoin:miter;stroke-miterlimit:4;stroke-dasharray:none;stroke-opacity:1"
       d="m 173.96637,166.63005 c 0.167,0.0294 0.40609,-0.31662 0.47103,-0.41461 0,0 0,0 0,0 0.0106,-0.0161 0.0111,-0.027 0.0111,-0.027 0,0 0.004,-0.0103 -4.2e-4,-0.0292 0,0 0,0 0,0 -0.0248,-0.11608 -0.12682,-0.52435 -0.30128,-0.55502 -1.00421,-0.17663 -3.76337,-0.62219 -5.95675,-0.62219 -2.1754,0 -6.3574,0.21595 -7.94128,0.30212 -0.28957,0.0157 -0.55376,0.46401 -0.5982,0.5433 -0.003,0.0135 -0.003,0.0117 -0.003,0.0117 0,0 -7.1e-4,-0.002 0.004,0.0112 0.053,0.0733 0.36588,0.48941 0.65347,0.47376 1.58132,-0.086 5.74392,-0.30057 7.8847,-0.30057 2.12279,0 4.78474,0.43203 5.77633,0.60644 z"
       id="path5189"
       inkscape:path-effect="#path-effect5433"
       inkscape:original-d="m 174.44849,166.18848 c 0,0 -3.56084,-0.68562 -6.25845,-0.68562 -2.69761,0 -8.54243,0.33632 -8.54243,0.33632"
       inkscape:label="eye_bottom"
       sodipodi:nodetypes="csc" />
    <path
       style="display:none;fill:#000000;fill-rule:nonzero;stroke:none;stroke-width:2.08298;stroke-linecap:butt;stroke-linejoin:miter;stroke-miterlimit:4;stroke-dasharray:none;stroke-opacity:1"
       d="m 174.81271,151.10099 c 0.1141,0.17993 0.35916,0.10167 0.54208,0.0151 0.18808,-0.0891 0.33161,-0.19746 0.33161,-0.19746 0,0 0.10751,-0.1448 0.17463,-0.34673 0.0647,-0.19481 0.093,-0.47304 -0.12358,-0.56895 l 0.007,-0.009 c -1.13853,-0.95879 -4.39707,-3.3559 -8.57389,-3.36353 -4.22365,-0.008 -6.43905,1.29095 -9.57685,4.73232 -2.09466,2.29816 -1.95678,3.40077 -1.95678,3.40077 0,0 0.99722,-0.18514 3.03422,-2.41837 2.92239,-3.20511 4.85773,-4.2633 8.49674,-4.25664 3.68581,0.007 6.6152,2.15997 7.63733,3.02074 z"
       id="path5074"
       inkscape:path-effect="#path-effect5431"
       inkscape:original-d="m 175.68939,150.9215 c 0,0 -3.60578,-3.55271 -8.51993,-3.56169 -4.91416,-0.009 -6.92838,1.83456 -11.53229,7.40405"
       inkscape:label="eye_top" />
    <path
       style="display:inline;fill:#000000;fill-opacity:1;fill-rule:nonzero;stroke:none;stroke-width:5.31641;stroke-linecap:butt;stroke-linejoin:miter;stroke-miterlimit:4;stroke-dasharray:none;stroke-opacity:1"
       d="m 174.14091,141.92086 c 0.30931,0.007 0.65563,-1.31013 0.65563,-1.31013 0,0 -0.27902,-1.33318 -0.59511,-1.3404 l 3.5e-4,-0.0153 c -1.58789,-0.0362 -5.81037,-0.11906 -8.1736,-0.0309 -0.86451,0.0323 -1.66571,0.0989 -2.40231,0.24637 -1.64232,0.34841 -2.98201,1.27549 -3.9122,2.39553 0,0 0,0 0,0 -1.22623,1.50013 -1.97803,3.14249 -2.42711,4.22079 -0.4682,1.1242 -0.70183,1.83855 -0.70183,1.83855 0,0 0.54946,-0.51516 1.40226,-1.37197 0.76839,-0.772 2.0756,-2.12031 3.31537,-3.09709 0,0 0,0 0,0 0.85302,-0.66252 1.84264,-1.17374 2.84998,-1.35614 0.54961,-0.11003 1.17658,-0.16623 1.97582,-0.19605 2.27156,-0.0848 6.43237,-0.004 8.0124,0.0321 z"
       id="path542"
       sodipodi:nodetypes="csc"
       inkscape:label="eyebrow_L"
       inkscape:original-d="m 174.80017,140.61083 c 0,0 -5.82525,-0.15478 -8.72201,-0.0467 -4.15932,0.15514 -5.37425,1.07022 -9.49343,7.36124"
       inkscape:path-effect="#path-effect1398" />
    <path
       style="display:none;fill:#000000;fill-rule:nonzero;stroke:none;stroke-width:1.04161;stroke-linecap:butt;stroke-linejoin:miter;stroke-miterlimit:4;stroke-dasharray:none;stroke-opacity:1"
       d="m 204.45216,165.60196 c -0.26319,-0.0272 -0.42591,0.58579 -0.42591,0.58579 0,0 0.34772,0.52831 0.58278,0.42518 l 0.001,0.009 c 1.28115,-0.19879 4.67541,-0.69198 6.79393,-0.69198 2.13649,0 5.57187,0.27345 6.86506,0.38329 0.22881,0.0194 0.49555,-0.37238 0.55093,-0.45753 0.007,-0.0193 0.006,-0.0167 0.006,-0.0167 0,0 5.2e-4,0.003 -0.003,-0.0175 -0.0394,-0.0943 -0.23366,-0.52642 -0.46588,-0.54614 -1.29804,-0.11025 -4.77247,-0.38703 -6.95321,-0.38703 -2.19873,0 -5.66376,0.50415 -6.95364,0.7043 z"
       id="path9518"
       inkscape:path-effect="#path-effect9522"
       inkscape:original-d="m 204.02185,166.18848 c 0,0 4.68425,-0.77917 7.38253,-0.77917 2.69827,0 7.42199,0.42987 7.42199,0.42987"
       inkscape:label="eye_bottom"
       sodipodi:nodetypes="csc" />
    <path
       style="display:none;fill:#000000;fill-rule:nonzero;stroke:none;stroke-width:3.33377;stroke-linecap:butt;stroke-linejoin:miter;stroke-miterlimit:2;stroke-dasharray:none;stroke-opacity:1"
       d="m 202.73276,150.00285 c -0.21662,0.0959 -0.1884,0.37416 -0.12369,0.56898 0.0671,0.20194 0.17457,0.34676 0.17457,0.34676 0,0 0.14352,0.10841 0.3316,0.19749 0.18291,0.0866 0.42797,0.16491 0.54213,-0.015 l 0.007,0.009 c 1.0224,-0.86078 3.95256,-3.01407 7.6394,-3.02081 3.64005,-0.007 5.57589,1.05158 8.49901,4.25671 2.0375,2.23322 3.03478,2.41831 3.03478,2.41831 0,0 0.13771,-1.1027 -1.95745,-3.40084 -3.13857,-3.44137 -5.35447,-4.74 -9.579,-4.73226 -4.17774,0.008 -7.43703,2.4047 -8.57583,3.36348 z"
       id="path9524"
       inkscape:path-effect="#path-effect9528"
       inkscape:original-d="m 202.78065,150.92151 c 0,0 3.60667,-3.55272 8.52203,-3.5617 4.91536,-0.009 6.93007,1.83456 11.53512,7.40406"
       inkscape:label="eye_top" />
    <path
       style="display:inline;fill:#000000;fill-opacity:1;fill-rule:nonzero;stroke:none;stroke-width:5.5334;stroke-linecap:butt;stroke-linejoin:miter;stroke-miterlimit:4;stroke-dasharray:none;stroke-opacity:1"
       d="m 204.48759,139.21323 c -0.342,0.007 -0.6483,1.39628 -0.6483,1.39628 0,0 0.37111,1.37305 0.70657,1.36597 l 2.9e-4,0.0136 c 1.71059,-0.0361 6.2177,-0.11692 8.68183,-0.032 0.86897,0.03 1.55818,0.0868 2.1636,0.19876 1.10952,0.19117 2.19158,0.68715 3.12569,1.3573 0,0 0,0 0,0 1.32121,0.95539 2.71798,2.28897 3.53968,3.05419 0.91064,0.84806 1.49415,1.35678 1.49415,1.35678 0,0 -0.26708,-0.72482 -0.7924,-1.86348 -0.50364,-1.09165 -1.3422,-2.75457 -2.66639,-4.25393 0,0 0,0 0,0 -1.03195,-1.14563 -2.47496,-2.06227 -4.19325,-2.39439 -0.78668,-0.14551 -1.64324,-0.21154 -2.57497,-0.24365 -2.55227,-0.088 -7.11864,-0.005 -8.83678,0.031 z"
       id="path9512"
       sodipodi:nodetypes="csc"
       inkscape:label="eyebrow_R"
       inkscape:original-d="m 203.83594,140.60959 c 0,0 6.30485,-0.15477 9.44009,-0.0467 4.50178,0.15515 5.81674,1.07022 10.27507,7.36124"
       inkscape:path-effect="#path-effect9516" />
    <path
       id="path6270"
       style="display:inline;fill:none;stroke:#000000;stroke-width:1.6;stroke-linecap:butt;stroke-linejoin:miter;stroke-miterlimit:4;stroke-dasharray:none;stroke-opacity:1"
       d="m 189.73612,171.10013 c -4.18609,-0.30353 -7.51943,-0.5293 -10.34566,0.99021 -3.4448,1.85209 -0.85063,5.30216 1.05317,6.08542 3.15604,1.29846 4.0558,0.0894 7.52182,-0.41957 0,0 2.47937,-0.28288 3.65087,0.047 3.95428,1.1135 4.26846,1.58172 7.4314,0.24025 1.89522,-0.8038 4.49797,-4.23333 1.05317,-6.08542 -3.59678,-1.80198 -7.51006,-1.09524 -10.36477,-0.85792 z"
       sodipodi:nodetypes="csssssccc"
       inkscape:label="mouth_outline" />
    <path
       style="fill:none;stroke:#000000;stroke-width:1.2;stroke-linecap:butt;stroke-linejoin:miter;stroke-miterlimit:4;stroke-dasharray:none;stroke-opacity:1"
       d="m 191.44244,163.6602 c 0,0 -3.34883,-2.00848 -5.17547,-0.60255 -1.82664,1.40594 0.10148,3.314 0.71036,3.91655"
       id="path5994"
       inkscape:label="baby nose" />
    <ellipse
       id="circle9127-7"
       cx="-211.11885"
       cy="158.60686"
       style="display:none;fill:#000000;stroke-width:0.0651305"
       inkscape:label="iris_fill_L"
       transform="scale(-1,1)"
       rx="1.9250429"
       ry="7.2413545" />
    <ellipse
       id="ellipse10487"
       cx="-167.15302"
       cy="158.70041"
       style="display:none;fill:#000000;stroke-width:0.0651305"
       inkscape:label="iris_fill_L"
       transform="scale(-1,1)"
       rx="1.9250429"
       ry="7.2413545" />
    <path
       style="fill:#000000;fill-rule:nonzero;stroke:none;stroke-width:2.5;stroke-linecap:butt;stroke-linejoin:miter;stroke-miterlimit:4;stroke-dasharray:none;stroke-opacity:1"
       d="m 175.58177,160.03018 c 0.51909,0.22248 1.64862,-0.60764 1.64862,-0.60764 0,0 -0.0115,-1.40723 -0.67245,-1.68653 l 0.001,-0.003 c -2.30276,-0.97983 -7.68423,-2.81976 -12.85274,-1.47653 -1.45131,0.377 -2.58841,1.26516 -3.31918,2.09816 -0.71734,0.81768 -0.99433,1.49357 -0.99433,1.49357 0,0 0.70118,-0.20591 1.65574,-0.43357 0.9554,-0.22787 2.15004,-0.44299 3.2866,-0.73854 4.45431,-1.15761 9.1238,0.45472 11.24509,1.35732 z"
       id="path12304"
       inkscape:path-effect="#path-effect12308"
       inkscape:original-d="m 177.23193,159.42336 c 0,0 -10.61841,-5.66315 -17.83892,0.42473"
       inkscape:label="closed eye R" />
    <path
       style="fill:#000000;fill-rule:nonzero;stroke:none;stroke-width:2.5;stroke-linecap:butt;stroke-linejoin:miter;stroke-miterlimit:4;stroke-dasharray:none;stroke-opacity:1"
       d="m 204.16884,157.73601 c -0.66096,0.2793 -0.67245,1.68653 -0.67245,1.68653 0,0 1.12953,0.83012 1.64862,0.60764 l 0.001,0.003 c 2.12129,-0.9026 6.79078,-2.51493 11.24509,-1.35732 1.13656,0.29555 2.3312,0.51067 3.2866,0.73854 0.95456,0.22766 1.65574,0.43357 1.65574,0.43357 0,0 -0.27699,-0.67589 -0.99433,-1.49357 -0.73077,-0.833 -1.86787,-1.72116 -3.31918,-2.09816 -5.16851,-1.34323 -10.54998,0.4967 -12.85274,1.47653 z"
       id="path12220"
       inkscape:path-effect="#path-effect12222"
       inkscape:original-d="m 203.49485,159.42336 c 0,0 10.61841,-5.66315 17.83892,0.42473"
       inkscape:label="closed eye R" />
    <g
       id="command_group1"
       inkscape:label="Ink/Stitch Command: Fill stitch starting position"
       transform="matrix(0.20121587,0,0,0.21712395,52.116875,14.785828)">
      <path
         id="command_connector1"
         d="m 571.59866,580.66426 0.0705,29.92712"
         style="fill:none;stroke:#000000;stroke-width:1px;stroke-opacity:0.5"
         inkscape:connection-start="#command_use1"
         inkscape:connector-type="polyline"
         inkscape:label="connector"
         inkscape:connector-curvature="0" />
      <use
         id="command_use1"
         xlink:href="#inkstitch_fill_start"
         height="100%"
         width="100%"
         x="571.59607"
         y="580.62836"
         inkscape:label="command marker" />
    </g>
    <g
       id="command_group2"
       inkscape:label="Ink/Stitch Command: Fill stitch ending position"
       transform="matrix(0.20121587,0,0,0.21712395,52.116875,14.785828)">
      <path
         id="command_connector2"
         d="m 574.45122,740.57958 -1.00058,-30.04371"
         style="fill:none;stroke:#000000;stroke-width:1px;stroke-opacity:0.5"
         inkscape:connection-start="#command_use2"
         inkscape:connector-type="polyline"
         inkscape:label="connector"
         inkscape:connector-curvature="0" />
      <use
         id="command_use2"
         xlink:href="#inkstitch_fill_end"
         height="100%"
         width="100%"
         x="574.47504"
         y="740.46472"
         inkscape:label="command marker" />
    </g>
    <g
       id="command_group3"
       inkscape:label="Ink/Stitch Command: Fill stitch starting position"
       transform="matrix(0.20121587,0,0,0.21712395,52.116875,14.785828)">
      <path
         id="command_connector3"
         d="m 788.82736,580.64241 0.56367,29.93552"
         style="fill:none;stroke:#000000;stroke-width:1px;stroke-opacity:0.5"
         inkscape:connection-start="#command_use3"
         inkscape:connector-type="polyline"
         inkscape:label="connector"
         inkscape:connector-curvature="0" />
      <use
         id="command_use3"
         xlink:href="#inkstitch_fill_start"
         height="100%"
         width="100%"
         x="788.82477"
         y="580.60651"
         inkscape:label="command marker" />
    </g>
    <g
       id="command_group4"
       inkscape:label="Ink/Stitch Command: Fill stitch ending position"
       transform="matrix(0.20121587,0,0,0.21712395,51.714441,49.742815)">
      <path
         id="command_connector4"
         d="m 788.80095,580.72136 1.35851,-31.22654"
         style="fill:none;stroke:#000000;stroke-width:1px;stroke-opacity:0.5"
         inkscape:connection-start="#command_use4"
         inkscape:connector-type="polyline"
         inkscape:label="connector"
         inkscape:connector-curvature="0" />
      <use
         id="command_use4"
         xlink:href="#inkstitch_fill_end"
         height="100%"
         width="100%"
         x="788.82477"
         y="580.60651"
         inkscape:label="command marker" />
    </g>
    <g
       id="command_group5"
       inkscape:label="Ink/Stitch Command: Fill stitch starting position"
       transform="matrix(0.264583,0,0,0.264583,-10.9374,-2.72175)">
      <path
         id="command_connector5"
         d="m 553.6918,530.02674 90.03507,18.05091"
         style="fill:none;stroke:#000000;stroke-width:1px;stroke-opacity:0.5"
         inkscape:connection-start="#command_use5"
         inkscape:connection-end="#path542"
         inkscape:connector-type="polyline"
         inkscape:label="connector"
         inkscape:connector-curvature="0" />
      <use
         id="command_use5"
         xlink:href="#inkstitch_fill_start"
         height="100%"
         width="100%"
         x="553.68921"
         y="529.99084"
         inkscape:label="command marker" />
    </g>
    <g
       id="command_group6"
       inkscape:label="Ink/Stitch Command: Fill stitch ending position"
       transform="matrix(0.20121587,0,0,0.21712395,65.598369,9.3577091)">
      <path
         id="command_connector6"
         d="m 584.78777,610.17613 -87.35053,7.89209"
         style="fill:none;stroke:#000000;stroke-width:1px;stroke-opacity:0.5"
         inkscape:connection-start="#command_use6"
         inkscape:connection-end="#path542"
         inkscape:connector-type="polyline"
         inkscape:label="connector"
         inkscape:connector-curvature="0" />
      <use
         id="command_use6"
         xlink:href="#inkstitch_fill_end"
         height="100%"
         width="100%"
         x="584.81158"
         y="610.06128"
         inkscape:label="command marker" />
    </g>
    <g
       id="command_group7"
       inkscape:label="Ink/Stitch Command: Fill stitch starting position"
       transform="matrix(0.20121587,0,0,0.21712395,37.895711,26.944787)">
      <path
         id="command_connector7"
         d="m 786.62124,531.53266 87.06473,5.40508"
         style="fill:none;stroke:#000000;stroke-width:1px;stroke-opacity:0.5"
         inkscape:connection-start="#command_use7"
         inkscape:connection-end="#path9512"
         inkscape:connector-type="polyline"
         inkscape:label="connector"
         inkscape:connector-curvature="0" />
      <use
         id="command_use7"
         xlink:href="#inkstitch_fill_start"
         height="100%"
         width="100%"
         x="786.61865"
         y="531.49677"
         inkscape:label="command marker" />
    </g>
    <g
       id="command_group8"
       inkscape:label="Ink/Stitch Command: Fill stitch ending position"
       transform="matrix(0.20121587,0,0,0.21712395,83.506591,23.067579)">
      <path
         id="command_connector8"
         d="m 716.66985,551.523 -32.68118,1.53499"
         style="fill:none;stroke:#000000;stroke-width:1px;stroke-opacity:0.5"
         inkscape:connection-start="#command_use8"
         inkscape:connection-end="#path9512"
         inkscape:connector-type="polyline"
         inkscape:label="connector"
         inkscape:connector-curvature="0" />
      <use
         id="command_use8"
         xlink:href="#inkstitch_fill_end"
         height="100%"
         width="100%"
         x="716.69366"
         y="551.40814"
         inkscape:label="command marker" />
    </g>
    <g
       id="command_group11"
       inkscape:label="Ink/Stitch Command: Fill stitch starting position"
       transform="matrix(0.20121587,0,0,0.21712395,52.116875,14.785828)">
      <path
         id="command_connector11"
         d="m 569.88638,614.11329 4.60514,29.59049"
         style="fill:none;stroke:#000000;stroke-width:1px;stroke-opacity:0.5"
         inkscape:connection-start="#command_use11"
         inkscape:connector-type="polyline"
         inkscape:label="connector"
         inkscape:connector-curvature="0" />
      <use
         id="command_use11"
         xlink:href="#inkstitch_fill_start"
         height="100%"
         width="100%"
         x="569.88379"
         y="614.07739"
         inkscape:label="command marker" />
    </g>
    <g
       id="command_group12"
       inkscape:label="Ink/Stitch Command: Fill stitch ending position"
       transform="matrix(0.20121587,0,0,0.21712395,52.116875,14.785828)">
      <path
         id="command_connector12"
         d="m 582.68211,738.98992 -1.50269,-30.05659"
         style="fill:none;stroke:#000000;stroke-width:1px;stroke-opacity:0.5"
         inkscape:connection-start="#command_use12"
         inkscape:connector-type="polyline"
         inkscape:label="connector"
         inkscape:connector-curvature="0" />
      <use
         id="command_use12"
         xlink:href="#inkstitch_fill_end"
         height="100%"
         width="100%"
         x="582.70593"
         y="738.87506"
         inkscape:label="command marker" />
    </g>
    <g
       id="command_group13"
       inkscape:label="Ink/Stitch Command: Fill stitch starting position"
       transform="matrix(0.20121587,0,0,0.21712395,52.116875,14.785828)">
      <path
         id="command_connector13"
         d="m 778.83639,611.73463 3.35267,29.74695"
         style="fill:none;stroke:#000000;stroke-width:1px;stroke-opacity:0.5"
         inkscape:connection-start="#command_use13"
         inkscape:connector-type="polyline"
         inkscape:label="connector"
         inkscape:connector-curvature="0" />
      <use
         id="command_use13"
         xlink:href="#inkstitch_fill_start"
         height="100%"
         width="100%"
         x="778.8338"
         y="611.69873"
         inkscape:label="command marker" />
    </g>
    <g
       id="command_group14"
       inkscape:label="Ink/Stitch Command: Fill stitch ending position"
       transform="matrix(0.20121587,0,0,0.21712395,52.116875,14.785828)">
      <path
         id="command_connector14"
         d="M 787.59215,739.50994 786.8487,709.42847"
         style="fill:none;stroke:#000000;stroke-width:1px;stroke-opacity:0.5"
         inkscape:connection-start="#command_use14"
         inkscape:connector-type="polyline"
         inkscape:label="connector"
         inkscape:connector-curvature="0" />
      <use
         id="command_use14"
         xlink:href="#inkstitch_fill_end"
         height="100%"
         width="100%"
         x="787.61597"
         y="739.39508"
         inkscape:label="command marker" />
    </g>
  </g>
</svg>
