<?xml version="1.0" encoding="UTF-8" standalone="no"?>
<!-- Created with Inkscape (http://www.inkscape.org/) -->

<svg
   width="360mm"
   height="360mm"
   viewBox="0 0 360 360"
   version="1.1"
   id="svg8"
   inkscape:version="1.1.2 (b8e25be8, 2022-02-05)"
   sodipodi:docname="face-vince-d.svg"
   xmlns:inkscape="http://www.inkscape.org/namespaces/inkscape"
   xmlns:sodipodi="http://sodipodi.sourceforge.net/DTD/sodipodi-0.dtd"
   xmlns:xlink="http://www.w3.org/1999/xlink"
   xmlns="http://www.w3.org/2000/svg"
   xmlns:svg="http://www.w3.org/2000/svg"
   xmlns:rdf="http://www.w3.org/1999/02/22-rdf-syntax-ns#"
   xmlns:cc="http://creativecommons.org/ns#"
   xmlns:dc="http://purl.org/dc/elements/1.1/">
  <title
     id="title1023">inkStitch - Embroidery Hoops Template</title>
  <defs
     id="defs2">
    <inkscape:path-effect
       effect="taper_stroke"
       id="path-effect2668"
       is_visible="true"
       lpeversion="1"
       stroke_width="3.34"
       attach_start="0.2"
       end_offset="0.7"
       start_smoothing="0.5"
       end_smoothing="0.5"
       jointype="extrapolated"
       start_shape="center"
       end_shape="center"
       miter_limit="100" />
    <inkscape:path-effect
       effect="taper_stroke"
       id="path-effect2662"
       is_visible="true"
       lpeversion="1"
       stroke_width="3.34"
       attach_start="0.2"
       end_offset="0.7"
       start_smoothing="0.5"
       end_smoothing="0.5"
       jointype="extrapolated"
       start_shape="center"
       end_shape="center"
       miter_limit="100" />
    <inkscape:path-effect
       effect="join_type"
       id="path-effect9780"
       is_visible="true"
       lpeversion="1"
       linecap_type="square"
       line_width="2.5"
       linejoin_type="extrp_arc"
       miter_limit="100"
       attempt_force_join="true" />
    <inkscape:path-effect
       effect="taper_stroke"
       id="path-effect9528"
       is_visible="true"
       lpeversion="1"
       stroke_width="1.8456967"
       attach_start="0.2"
       end_offset="0.2"
       start_smoothing="0.8"
       end_smoothing="0.8"
       jointype="extrapolated"
       start_shape="center"
       end_shape="center"
       miter_limit="100" />
    <inkscape:path-effect
       effect="taper_stroke"
       id="path-effect9522"
       is_visible="true"
       lpeversion="1"
       stroke_width="1.3185165"
       attach_start="0.2"
       end_offset="0.2"
       start_smoothing="0.5"
       end_smoothing="0.5"
       jointype="extrapolated"
       start_shape="center"
       end_shape="center"
       miter_limit="100" />
    <inkscape:path-effect
       effect="taper_stroke"
       id="path-effect9516"
       is_visible="true"
       lpeversion="1"
       stroke_width="4.1315683"
       attach_start="0.2"
       end_offset="0.8"
       start_smoothing="0.5"
       end_smoothing="0.5"
       jointype="extrapolated"
       start_shape="center"
       end_shape="center"
       miter_limit="100" />
    <inkscape:path-effect
       effect="taper_stroke"
       id="path-effect9350"
       is_visible="true"
       lpeversion="1"
       stroke_width="4.887397"
       attach_start="0.2"
       end_offset="0.8"
       start_smoothing="0.5"
       end_smoothing="0.5"
       jointype="extrapolated"
       start_shape="center"
       end_shape="center"
       miter_limit="100" />
    <inkscape:path-effect
       effect="taper_stroke"
       id="path-effect6889"
       is_visible="true"
       lpeversion="1"
       stroke_width="8"
       attach_start="0.2"
       end_offset="0"
       start_smoothing="0.5"
       end_smoothing="0.5"
       jointype="extrapolated"
       start_shape="left"
       end_shape="center"
       miter_limit="100" />
    <inkscape:path-effect
       effect="taper_stroke"
       id="path-effect6883"
       is_visible="true"
       lpeversion="1"
       stroke_width="8"
       attach_start="0.2"
       end_offset="0"
       start_smoothing="0.5"
       end_smoothing="0.5"
       jointype="extrapolated"
       start_shape="left"
       end_shape="center"
       miter_limit="100" />
    <inkscape:path-effect
       effect="taper_stroke"
       id="path-effect5435"
       is_visible="true"
       lpeversion="1"
       stroke_width="2.59115"
       attach_start="0.2"
       end_offset="0.2"
       start_smoothing="0.5"
       end_smoothing="0.5"
       jointype="extrapolated"
       start_shape="center"
       end_shape="center"
       miter_limit="100" />
    <inkscape:path-effect
       effect="taper_stroke"
       id="path-effect5433"
       is_visible="true"
       lpeversion="1"
       stroke_width="1.3183547"
       attach_start="0.2"
       end_offset="0.2"
       start_smoothing="0.5"
       end_smoothing="0.5"
       jointype="extrapolated"
       start_shape="center"
       end_shape="center"
       miter_limit="100" />
    <inkscape:path-effect
       effect="taper_stroke"
       id="path-effect5431"
       is_visible="true"
       lpeversion="1"
       stroke_width="1.8456967"
       attach_start="0.2"
       end_offset="0.2"
       start_smoothing="0.8"
       end_smoothing="0.8"
       jointype="extrapolated"
       start_shape="center"
       end_shape="center"
       miter_limit="100" />
    <inkscape:path-effect
       effect="taper_stroke"
       id="path-effect1563"
       is_visible="true"
       lpeversion="1"
       stroke_width="2.8712699"
       attach_start="0.2"
       end_offset="0.2"
       start_smoothing="0.5"
       end_smoothing="0.5"
       jointype="extrapolated"
       start_shape="center"
       end_shape="center"
       miter_limit="100" />
    <inkscape:path-effect
       effect="taper_stroke"
       id="path-effect1398"
       is_visible="true"
       lpeversion="1"
       stroke_width="3.8085804"
       attach_start="0.2"
       end_offset="0.8"
       start_smoothing="0.5"
       end_smoothing="0.5"
       jointype="extrapolated"
       start_shape="center"
       end_shape="center"
       miter_limit="100" />
    <marker
       style="overflow:visible"
       id="Arrow1Lstart"
       refX="0.0"
       refY="0.0"
       orient="auto"
       inkscape:stockid="Arrow1Lstart"
       inkscape:isstock="true">
      <path
         transform="scale(0.8) translate(12.5,0)"
         style="fill-rule:evenodd;fill:context-stroke;stroke:context-stroke;stroke-width:1.0pt"
         d="M 0.0,0.0 L 5.0,-5.0 L -12.5,0.0 L 5.0,5.0 L 0.0,0.0 z "
         id="path1667" />
    </marker>
    <style
       id="style824"
       type="text/css"><![CDATA[
    .fil0 {fill:none}
    .fil1 {fill:#003399}
   ]]></style>
    <symbol
       id="inkstitch_fill_start">
      <title
         id="inkstitch_title9432">Fill stitch starting point</title>
      <path
         id="inkstitch_circle13166-6"
         d="m 9.2465269,-2.6e-6 c -1.9e-6,5.106729 -4.1398247,9.24655 -9.246554026709,9.24655 C -5.106756,9.2465474 -9.2465782,5.1067264 -9.2465801,-2.6e-6 c 2e-7,-5.10673 4.1398229,-9.246553 9.246552973291,-9.246553 2.452338526709,0 4.804235626709,0.974187 6.538300926709,2.708252 1.7340652,1.734066 2.708253,4.085963 2.7082531,6.538301 0,0 0,0 0,0"
         style="opacity:1;vector-effect:none;fill:#fafafa;fill-opacity:1;fill-rule:evenodd;stroke:#003399;stroke-width:1.06501234;stroke-linecap:round;stroke-linejoin:miter;stroke-miterlimit:4;stroke-dasharray:3.19503705, 3.19503705;stroke-dashoffset:0;stroke-opacity:1"
         inkscape:connector-curvature="0" />
      <path
         style="opacity:1;vector-effect:none;fill:#000000;fill-opacity:1;fill-rule:evenodd;stroke:none;stroke-width:2.74180555;stroke-linecap:butt;stroke-linejoin:miter;stroke-miterlimit:4;stroke-dasharray:none;stroke-dashoffset:0;stroke-opacity:1"
         d="m 6.5728129,0.0035574 c 0,0 -10.4514,6.03412 -10.4514,6.03412 0,0 0,-12.06823 0,-12.06823 0,0 10.4514,6.03411 10.4514,6.03411"
         id="inkstitch_path4183"
         inkscape:connector-curvature="0" />
    </symbol>
    <symbol
       id="inkstitch_fill_end">
      <title
         id="inkstitch_title9427">Fill stitch ending point</title>
      <path
         id="inkstitch_circle13166"
         d="m 9.220113,0.0792309 c -1.9e-6,5.106729 -4.1398241,9.24655 -9.246553,9.24655 -5.1067293,0 -9.2465521,-4.139821 -9.246554,-9.24655 1e-7,-2.452338 0.9741879,-4.804235 2.7082531,-6.538301 1.7340653,-1.734065 4.0859624,-2.708252 6.5383009,-2.708252 5.1067301,0 9.2465528,4.139823 9.246553,9.246553 0,0 0,0 0,0"
         style="opacity:1;vector-effect:none;fill:#fafafa;fill-opacity:1;fill-rule:evenodd;stroke:#003399;stroke-width:1.06500006;stroke-linecap:round;stroke-linejoin:miter;stroke-miterlimit:4;stroke-dasharray:3.19500017, 3.19500017;stroke-dashoffset:0;stroke-opacity:1"
         inkscape:connector-curvature="0" />
      <path
         style="opacity:1;fill:#000000;fill-opacity:1;fill-rule:nonzero;stroke:none;stroke-width:2.27154255;stroke-linecap:round;stroke-linejoin:round;stroke-miterlimit:4;stroke-dasharray:4.81866985, 4.81866985;stroke-dashoffset:0;stroke-opacity:1;paint-order:fill markers stroke"
         d="m -4.570439,-4.5704391 c 0,0 9.140878,0 9.140878,0 0,0 0,9.14087 0,9.14087 0,0 -9.140878,0 -9.140878,0 0,0 0,-9.14087 0,-9.14087"
         id="inkstitch_rect5371-2"
         inkscape:connector-curvature="0" />
    </symbol>
  </defs>
  <sodipodi:namedview
     id="base"
     pagecolor="#fafafa"
     bordercolor="#666666"
     borderopacity="1.0"
     inkscape:pageopacity="0.78431373"
     inkscape:pageshadow="2"
     inkscape:zoom="2"
     inkscape:cx="665.75"
     inkscape:cy="665.75"
     inkscape:document-units="cm"
     inkscape:current-layer="layer2"
     showgrid="true"
     inkscape:window-width="1440"
     inkscape:window-height="783"
     inkscape:window-x="0"
     inkscape:window-y="27"
     inkscape:window-maximized="0"
     objecttolerance="3"
     gridtolerance="3"
     guidetolerance="3"
     inkscape:snap-perpendicular="true"
     inkscape:snap-tangential="true"
     inkscape:showpageshadow="true"
     borderlayer="false"
     inkscape:snap-path-clip="false"
     inkscape:pagecheckerboard="false"
     fit-margin-top="10"
     fit-margin-left="10"
     fit-margin-right="10"
     fit-margin-bottom="10">
    <inkscape:grid
       type="xygrid"
       id="grid3702"
       units="mm"
       spacingx="0.50000002"
       spacingy="0.50000002"
       dotted="false"
       originx="0"
       originy="0"
       empspacing="20"
       color="#ff7300"
       opacity="0.09803922"
       empcolor="#0000ff"
       empopacity="0.09803922" />
  </sodipodi:namedview>
  <metadata
     id="metadata5">
    <rdf:RDF>
      <cc:Work
         rdf:about="">
        <dc:format>image/svg+xml</dc:format>
        <dc:type
           rdf:resource="http://purl.org/dc/dcmitype/StillImage" />
        <dc:title>inkStitch - Embroidery Hoops Template</dc:title>
        <cc:license
           rdf:resource="http://creativecommons.org/publicdomain/zero/1.0/" />
        <dc:date>180404</dc:date>
        <dc:creator>
          <cc:Agent>
            <dc:title>X3msnake</dc:title>
          </cc:Agent>
        </dc:creator>
        <dc:rights>
          <cc:Agent>
            <dc:title>CC0</dc:title>
          </cc:Agent>
        </dc:rights>
      </cc:Work>
      <cc:License
         rdf:about="http://creativecommons.org/publicdomain/zero/1.0/">
        <cc:permits
           rdf:resource="http://creativecommons.org/ns#Reproduction" />
        <cc:permits
           rdf:resource="http://creativecommons.org/ns#Distribution" />
        <cc:permits
           rdf:resource="http://creativecommons.org/ns#DerivativeWorks" />
      </cc:License>
    </rdf:RDF>
  </metadata>
  <g
     inkscape:label="HOOPS REF"
     inkscape:groupmode="layer"
     id="layer1"
     transform="translate(-9.3905029,72.390505)"
     style="display:none;opacity:0.5"
     sodipodi:insensitive="true">
    <circle
       id="path3704-5-2"
       cx="189.3905"
       cy="107.6095"
       r="49.952381"
       style="opacity:0.335;fill:none;stroke:#000000;stroke-width:1;stroke-linecap:butt;stroke-linejoin:round;stroke-miterlimit:4;stroke-dasharray:0.5, 0.5;stroke-dashoffset:0"
       sodipodi:insensitive="true"
       inkscape:label="100x100" />
    <circle
       id="path3704-5"
       cx="189.3905"
       cy="107.6095"
       r="69.933334"
       style="opacity:0.335;fill:none;stroke:#000000;stroke-width:1;stroke-linecap:butt;stroke-linejoin:round;stroke-miterlimit:4;stroke-dasharray:0.5, 0.5;stroke-dashoffset:0"
       sodipodi:insensitive="true"
       inkscape:label="140x140" />
    <circle
       id="path3704-4"
       cx="189.3905"
       cy="107.6095"
       r="84.919044"
       style="opacity:0.335;fill:none;stroke:#000000;stroke-width:1;stroke-linecap:butt;stroke-linejoin:round;stroke-miterlimit:4;stroke-dasharray:0.5, 0.5;stroke-dashoffset:0"
       sodipodi:insensitive="true"
       inkscape:label="170x170" />
    <circle
       id="path3704"
       cx="189.3905"
       cy="107.6095"
       r="99.904762"
       style="opacity:0.335;fill:none;stroke:#000000;stroke-width:1;stroke-linecap:butt;stroke-linejoin:round;stroke-miterlimit:4;stroke-dasharray:0.5, 0.5;stroke-dashoffset:0"
       inkscape:label="200x200"
       sodipodi:insensitive="true" />
    <rect
       style="opacity:0.335;fill:none;stroke:#000000;stroke-width:1;stroke-linecap:butt;stroke-linejoin:round;stroke-miterlimit:4;stroke-dasharray:0.5, 0.5;stroke-dashoffset:0"
       id="rect3742"
       width="319.6095"
       height="319.6095"
       x="29.585754"
       y="-52.195255"
       ry="44.043102"
       sodipodi:insensitive="true"
       inkscape:label="320x320" />
    <g
       style="clip-rule:evenodd;fill:#f9f9f9;fill-opacity:1;fill-rule:evenodd;stroke:#999999;stroke-width:20.97;stroke-miterlimit:4;stroke-dasharray:none;stroke-opacity:1;image-rendering:optimizeQuality;shape-rendering:geometricPrecision;text-rendering:geometricPrecision"
       id="g845"
       transform="matrix(0,0.0056763,-0.0056763,0,341.03436,-359.15659)"
       inkscape:label="inkStitch-logo"
       sodipodi:insensitive="true">
      <path
         style="fill:#f9f9f9;fill-opacity:1;stroke:none;stroke-width:25.7694;stroke-miterlimit:4;stroke-dasharray:none;stroke-opacity:1"
         d="m 53158.869,23350.193 h 1826.028 266.315 c 998.46,0 1815.618,892.05 1815.618,1982.018 v 2766.111 c 0,1089.966 -817.159,1982.014 -1815.618,1982.014 h -242.024 -2001.257 -290.607 c -999.324,0 -1816.482,-892.048 -1816.482,-1982.014 v -2766.111 c 0,-1089.968 817.158,-1982.018 1816.482,-1982.018 z"
         id="path992"
         inkscape:connector-curvature="0"
         sodipodi:nodetypes="ccssssccssssc"
         inkscape:label="bkg" />
      <path
         id="path912"
         d="m 54083.958,25539.209 h -26.503 c -7.363,0 -13.988,-5.89 -13.988,-13.985 v -150.92 c 0,-7.362 6.625,-13.252 13.988,-13.252 h 26.503 c 7.36,0 13.989,5.89 13.989,13.252 v 150.92 c 0,8.095 -6.629,13.985 -13.989,13.985 z m -800.235,-1439.978 c 33.129,-5.153 58.895,-34.602 58.895,-69.2 v 0 c 0,-38.282 -30.919,-69.938 -69.2,-69.938 h -73.619 c -19.139,0 -35.337,-8.835 -44.907,-25.032 -10.308,-16.195 -10.308,-34.6 -1.474,-51.531 22.087,-41.963 64.05,-70.675 118.526,-70.675 h 1423.783 c 75.827,0 137.666,61.84 137.666,137.669 v 148.707 h 226.01 c 847.349,0 1540.835,693.488 1540.835,1540.837 v 2150.396 c 0,847.35 -693.487,1540.835 -1540.835,1540.835 h -205.396 v 146.502 c 0,77.299 -62.575,139.874 -139.876,139.874 h -1418.629 c -76.563,0 -139.874,-62.575 -139.874,-139.874 v -146.502 h -246.624 c -848.083,0 -1541.57,-693.485 -1541.57,-1540.835 v -2150.396 c 0,-847.349 693.487,-1540.837 1541.57,-1540.837 z m 861.339,5341.024 v -54.477 c 0,-22.087 10.305,-41.226 26.503,-54.479 h 86.868 c 16.195,13.253 26.503,32.392 26.503,54.479 v 54.477 c 0,38.281 -31.656,69.938 -69.938,69.938 v 0 c -38.282,0 -69.936,-31.657 -69.936,-69.938 z m 362.201,-27.239 c 0,-38.281 31.657,-69.938 69.938,-69.938 38.282,0 69.939,31.657 69.939,69.938 0,39.018 -31.657,69.938 -69.939,69.938 -38.281,0 -69.938,-30.92 -69.938,-69.938 z m -362.201,-5371.944 v -54.476 c 0,-38.282 31.654,-69.939 69.936,-69.939 v 0 c 38.282,0 69.938,31.657 69.938,69.939 v 54.476 c 0,24.295 -12.515,45.644 -30.921,58.159 h -78.034 c -18.404,-12.515 -30.919,-33.864 -30.919,-58.159 z m 362.939,-27.239 c 0,-38.282 30.919,-69.199 69.2,-69.199 38.282,0 69.203,30.917 69.203,69.199 0,38.282 -30.921,69.203 -69.203,69.203 -38.281,0 -69.2,-30.921 -69.2,-69.203 z m -427.724,999.74 c 78.036,345.27 84.66,396.805 37.544,800.233 l 9.572,943.79 c 1.471,191.407 58.893,336.438 58.893,525.637 v 1057.897 l -38.279,69.938 h -154.601 l -38.282,-69.938 v -1057.897 c 0,-189.199 57.424,-334.229 58.895,-525.637 l 9.57,-943.79 c -47.115,-403.428 -40.489,-454.963 37.547,-800.233 0.735,-4.416 5.153,-7.36 9.57,-7.36 4.418,0 8.098,2.944 9.571,7.36 z m -424.778,3231.118 h -1105.751 v -264.292 h 1105.751 z m 0,-798.761 h -1141.825 v -25.032 l 645.634,-688.332 h -609.56 v -243.678 h 1147.713 v 22.822 l -644.9,690.543 h 602.938 z m 0,-1462.8 h -1105.751 v -260.609 h 481.465 l -481.465,-365.149 v -314.351 l 525.636,416.68 580.115,-449.808 v 318.768 l -509.441,393.86 h 509.441 z m 1420.099,2455.914 c 26.503,-44.171 45.646,-80.982 56.686,-111.9 10.308,-30.921 16.198,-61.104 16.198,-90.552 0,-29.447 -6.625,-53.005 -19.878,-71.409 -12.515,-17.669 -29.447,-26.503 -50.061,-26.503 -28.711,0 -61.839,31.657 -98.647,95.703 -5.889,10.308 -10.308,18.404 -13.988,23.558 l -27.239,48.59 c -26.503,47.116 -56.688,81.714 -90.551,104.537 -33.128,22.822 -71.41,33.866 -114.11,33.866 -57.421,0 -104.537,-21.351 -141.347,-64.784 -37.544,-43.436 -55.951,-99.386 -55.951,-168.588 0,-25.03 3.681,-53.003 9.573,-82.45 5.889,-29.448 14.723,-62.578 27.238,-98.652 h 167.851 c -21.351,34.601 -38.282,66.994 -50.061,97.912 -11.779,31.657 -17.67,57.424 -17.67,79.509 0,24.294 5.153,42.699 15.461,56.686 10.305,13.989 24.294,20.613 41.962,20.613 12.514,0 24.293,-3.681 35.337,-11.779 11.043,-8.833 20.612,-20.613 29.447,-37.543 l 46.38,-83.927 c 39.018,-70.673 75.09,-117.79 108.22,-142.082 32.392,-24.294 71.409,-36.073 117.051,-36.073 69.939,0 125.889,23.558 169.326,71.409 42.696,47.85 64.045,110.428 64.045,189.199 0,26.502 -2.206,55.95 -8.096,87.607 -5.889,30.919 -14.724,65.52 -26.503,103.066 z m 202.452,-735.451 h -566.864 v 227.481 h -150.18 v -625.021 h 150.18 v 226.745 h 566.864 z m 0,-503.548 h -717.044 v -170.796 h 717.044 z m 0,-505.025 h -566.864 v 227.481 h -150.18 v -625.757 h 150.18 v 226.746 h 566.864 z m -490.3,-1013.725 c -31.655,31.654 -55.213,62.575 -70.674,94.229 -15.459,32.393 -22.821,65.522 -22.821,100.121 0,61.104 20.614,110.43 62.575,148.711 41.964,39.017 95.704,58.159 161.225,58.159 65.521,0 118.527,-19.142 159.018,-57.424 40.488,-38.282 61.1,-87.606 61.1,-149.446 0,-36.073 -7.36,-72.145 -22.819,-108.217 -15.462,-36.073 -37.547,-72.148 -68.466,-108.219 l 190.671,11.042 c 20.614,30.919 36.809,64.049 47.117,100.857 11.043,36.073 16.194,73.619 16.194,113.372 0,41.964 -6.625,82.453 -19.14,121.472 -13.251,38.282 -33.127,74.354 -58.893,106.746 -36.074,46.381 -80.245,81.718 -132.515,106.012 -52.269,24.293 -108.955,36.807 -170.795,36.807 -53.005,0 -103.065,-8.834 -149.446,-27.237 -46.378,-18.405 -87.605,-44.172 -122.941,-78.774 -35.338,-35.337 -62.575,-75.825 -81.717,-121.47 -19.14,-45.641 -28.713,-94.231 -28.713,-145.027 0,-39.756 5.89,-78.038 16.934,-114.846 11.042,-36.808 28.712,-71.409 51.533,-104.537 z m 490.3,-133.252 h -717.044 v -168.586 h 263.554 v -276.806 h -263.554 V 24934.8 h 717.044 v 167.851 h -301.099 v 276.806 h 301.099 z m -3648.533,2242.421 c 0,703.056 576.432,1279.491 1279.488,1279.491 h 2150.398 c 703.057,0 1279.489,-576.435 1279.489,-1279.491 v -2150.396 c 0,-703.058 -576.432,-1279.49 -1279.489,-1279.49 h -2150.398 c -703.056,0 -1279.488,576.432 -1279.488,1279.49 z"
         class="fil1"
         inkscape:connector-curvature="0"
         style="fill:#f9f9f9;fill-opacity:1;stroke:#999999;stroke-width:52.328;stroke-miterlimit:4;stroke-dasharray:none;stroke-opacity:1;paint-order:stroke fill markers"
         inkscape:label="logo" />
    </g>
    <path
       id="path1018"
       style="fill:#999999;stroke:#b3b3b3;stroke-width:0.1;stroke-linecap:butt;stroke-linejoin:miter;stroke-miterlimit:4;stroke-dasharray:none;stroke-opacity:1"
       d="m 192.92603,111.14502 -7.07107,-7.07106 m 7.07106,1e-5 -7.07106,7.07107"
       inkscape:connector-curvature="0"
       inkscape:label="default-origin"
       sodipodi:insensitive="true" />
  </g>
  <g
     id="layer2"
     inkscape:label="DESIGN LAYER"
     transform="translate(-9.3905,19.3905)">
    <path
       id="ellipse136"
       style="display:inline;fill:#ffffff;fill-opacity:1;stroke:none;stroke-width:6.4577;stroke-miterlimit:4;stroke-dasharray:none;stroke-opacity:1"
       inkscape:label="sclera_fill_L"
       d="m 571.78516,610.58984 c -27.72877,8e-5 -50.20561,22.37995 -50.20508,49.98633 4e-5,27.60605 22.47672,49.98629 50.20508,49.98633 5.90359,-10e-6 11.56872,-1.01751 16.83007,-2.88086 a 35.25,36.000001 0 0 0 13.14844,-7.00586 c 12.27779,-9.11243 20.2285,-23.68098 20.22852,-40.09961 4.9e-4,-27.60638 -22.4783,-49.98625 -50.20703,-49.98633 z"
       transform="matrix(0.26458334,0,0,0.26458334,9.3905,-19.3905)" />
    <path
       id="path9123"
       style="display:inline;fill:#ffffff;fill-opacity:1;stroke:none;stroke-width:6.4577;stroke-miterlimit:4;stroke-dasharray:none;stroke-opacity:1"
       inkscape:label="sclera_fill_R"
       d="m 790.33008,610.56836 c -27.72877,7e-5 -50.20561,22.37987 -50.20508,49.98633 4e-5,27.60604 22.47673,49.98433 50.20508,49.98437 27.72831,-4e-5 50.20695,-22.37833 50.20703,-49.98437 4.9e-4,-27.60646 -22.4783,-49.98626 -50.20703,-49.98633 z"
       transform="matrix(0.26458334,0,0,0.26458334,9.3905,-19.3905)" />
    <path
       id="path1549"
       style="display:inline;fill:none;fill-opacity:1;stroke:#ffffff;stroke-width:1.05468;stroke-miterlimit:4;stroke-dasharray:none;stroke-opacity:1"
       d="m 173.95951,155.38695 a 13.283876,13.225286 0 0 1 -13.28387,13.22529 13.283876,13.225286 0 0 1 -13.28388,-13.22529 13.283876,13.225286 0 0 1 13.28388,-13.22528 13.283876,13.225286 0 0 1 13.28387,13.22528 z"
       inkscape:label="sclera_outline_L" />
    <path
       id="path9125"
       style="display:inline;fill:none;fill-opacity:1;stroke:#ffffff;stroke-width:3.98619;stroke-miterlimit:4;stroke-dasharray:none;stroke-opacity:1"
       inkscape:label="sclera_outline_R"
       transform="matrix(0.26458334,0,0,0.26458334,9.3905,-19.3905)"
       d="m 790.33008,610.56836 a 50.206774,49.985332 0 0 0 -50.20508,49.98633 50.206774,49.985332 0 0 0 50.20508,49.98437 50.206774,49.985332 0 0 0 50.20703,-49.98437 50.206774,49.985332 0 0 0 -50.20703,-49.98633 z" />
    <ellipse
       id="circle9127"
       cx="-217.42061"
       cy="159.164"
       style="display:inline;fill:#000000;stroke-width:0.0778031"
       inkscape:label="iris_fill_R"
       transform="scale(-1,1)"
       rx="2.2056758"
       ry="9.0186968" />
    <ellipse
       id="circle9127-7"
       cx="-161.92279"
       cy="158.93867"
       style="display:inline;fill:#000000;stroke-width:0.0778031"
       inkscape:label="iris_fill_L"
       transform="scale(-1,1)"
       rx="2.2056758"
       ry="9.0186968" />
    <path
       id="path851"
       style="display:inline;fill:#ff2a2a;stroke:none;stroke-width:1.19307;stroke-linecap:butt;stroke-linejoin:miter;stroke-miterlimit:4;stroke-dasharray:none;stroke-opacity:1"
       d="m 176.89928,170.02228 c -1.16933,0.0231 3.94137,12.08559 13.87734,11.6628 10.59838,0.45098 15.70681,-13.30376 13.55946,-11.49988 -2.14735,1.80389 -13.55946,1.80401 -13.55946,1.80401 0,0 -11.41209,-1.2e-4 -13.55946,-1.80401 -0.13421,-0.11274 -0.23992,-0.16446 -0.31788,-0.16292 z"
       inkscape:label="mouth_fill" />
    <path
       style="fill:#b33434;fill-opacity:1;stroke:none;stroke-width:0.152343;stroke-linecap:butt;stroke-linejoin:miter;stroke-miterlimit:4;stroke-dasharray:none;stroke-opacity:1"
       d="m 190.41773,177.46818 c 0,0 -8.69129,1.24755 -6.74376,2.1704 7.65778,3.62863 13.64255,0.85266 13.64255,0.85266 0,0 -2.40295,-3.2556 -6.89879,-3.02306 z"
       id="path7235"
       inkscape:label="tongue_fill"
       sodipodi:nodetypes="cscc" />
    <path
       style="fill:none;stroke:#b33434;stroke-width:1.17187;stroke-linecap:butt;stroke-linejoin:miter;stroke-miterlimit:4;stroke-dasharray:none;stroke-opacity:1"
       d="m 183.57646,179.85529 c 0,0 5.85288,-5.8235 13.73297,0.27405"
       id="path7084"
       inkscape:label="tongue_outline"
       sodipodi:nodetypes="cc" />
    <path
       style="fill:none;stroke:#ffffff;stroke-width:3.5;stroke-linecap:butt;stroke-linejoin:miter;stroke-miterlimit:4;stroke-dasharray:none;stroke-opacity:1"
       d="m 185.92189,172.11968 0.15503,2.48047"
       id="path8512"
       inkscape:label="tooth1"
       sodipodi:nodetypes="cc" />
    <path
       style="fill:none;stroke:#ffffff;stroke-width:3.5;stroke-linecap:butt;stroke-linejoin:miter;stroke-miterlimit:4;stroke-dasharray:none;stroke-opacity:1"
       d="m 189.38136,172.11968 0.0776,2.63549"
       id="path8703"
       inkscape:label="tooth2"
       sodipodi:nodetypes="cc" />
    <path
       style="fill:none;stroke:#ffffff;stroke-width:3.5;stroke-linecap:butt;stroke-linejoin:miter;stroke-miterlimit:4;stroke-dasharray:none;stroke-opacity:1"
       d="m 193.02452,172.19719 -0.31005,2.55798"
       id="path8785"
       inkscape:label="tooth3"
       sodipodi:nodetypes="cc" />
    <path
       style="fill:none;stroke:#ffffff;stroke-width:3.5;stroke-linecap:butt;stroke-linejoin:miter;stroke-miterlimit:4;stroke-dasharray:none;stroke-opacity:1"
       d="m 196.09337,172.11968 0.0776,2.55797"
       id="path8787"
       inkscape:label="tooth4"
       sodipodi:nodetypes="cc" />
    <path
       style="fill:#ffffff;fill-rule:nonzero;stroke:none;stroke-width:4.94365;stroke-linecap:butt;stroke-linejoin:miter;stroke-miterlimit:4;stroke-dasharray:none;stroke-opacity:1"
       d="m 200.49356,172.14321 c 0.0604,-0.69445 -1.54282,-1.5337 -1.54282,-1.5337 0,0 -1.72416,0.54963 -1.7846,1.24407 l -0.0605,0.69444 c -0.21156,2.43054 1.24059,5.0059 1.24059,5.0059 0,0 1.87527,-2.28573 2.08683,-4.71627 z"
       id="path2565"
       inkscape:label="fang"
       sodipodi:nodetypes="cc"
       inkscape:path-effect="#path-effect2662"
       inkscape:original-d="m 198.95074,170.60951 -0.60446,6.94441" />
    <path
       style="fill:#ffffff;fill-rule:nonzero;stroke:none;stroke-width:4.94365;stroke-linecap:butt;stroke-linejoin:miter;stroke-miterlimit:4;stroke-dasharray:none;stroke-opacity:1"
       d="m 184.40643,171.85358 c -0.0604,-0.69444 -1.7846,-1.24407 -1.7846,-1.24407 0,0 -1.60326,0.83925 -1.54282,1.5337 l 0.0605,0.69444 c 0.21156,2.43054 2.08683,4.71627 2.08683,4.71627 0,0 1.45215,-2.57536 1.24059,-5.0059 z"
       id="path2664"
       inkscape:label="fang_L"
       sodipodi:nodetypes="cc"
       inkscape:path-effect="#path-effect2668"
       inkscape:original-d="m 182.62183,170.60951 0.60446,6.94441" />
    <path
       style="fill:#000000;fill-rule:nonzero;stroke:none;stroke-width:1.31835;stroke-linecap:butt;stroke-linejoin:miter;stroke-miterlimit:4;stroke-dasharray:none;stroke-opacity:1"
       d="m 169.98071,167.75461 c 0.27061,-0.11225 0.26246,-0.8196 0.26246,-0.8196 0,0 -0.51699,-0.48161 -0.76069,-0.38031 l -0.004,-0.009 c -1.29661,0.53839 -4.72901,1.85655 -7.46126,1.85655 -2.71115,0 -8.13456,-1.60678 -10.20737,-2.25802 -0.38243,-0.12018 -0.95089,0.30386 -1.02037,0.35679 -0.006,0.007 -0.005,0.006 -0.005,0.006 0,0 -3e-5,-0.001 5e-5,0.008 0.0251,0.0873 0.23374,0.7619 0.63004,0.88638 2.08916,0.65638 7.63826,2.31864 10.60253,2.31864 2.94319,0 6.63912,-1.40605 7.96682,-1.95735 z"
       id="path5189"
       inkscape:path-effect="#path-effect5433"
       inkscape:original-d="m 170.24692,166.93331 c 0,0 -4.68222,2.12829 -8.22937,2.12829 -3.54714,0 -11.23262,-2.55394 -11.23262,-2.55394"
       inkscape:label="eye_bottom" />
    <path
       style="fill:#000000;fill-rule:nonzero;stroke:none;stroke-width:2.63671;stroke-linecap:butt;stroke-linejoin:miter;stroke-miterlimit:4;stroke-dasharray:none;stroke-opacity:1"
       d="m 170.77127,146.77225 c 0.39509,0.30999 1.10491,-0.27268 1.10491,-0.27268 0,0 0.51314,-0.78617 0.0202,-1.16894 l 0.005,-0.007 c -1.49529,-1.16697 -5.76708,-4.07596 -11.22445,-4.08521 -5.51231,-0.009 -8.41523,1.55803 -12.54207,5.75252 -2.74843,2.79452 -2.62355,4.19277 -2.62355,4.19277 0,0 1.26737,-0.18372 3.93922,-2.89832 3.84184,-3.90481 6.3968,-5.20949 11.22327,-5.20127 4.88137,0.008 8.74622,2.64423 10.09203,3.69455 z"
       id="path5074"
       inkscape:path-effect="#path-effect5431"
       inkscape:original-d="m 171.87861,146.50177 c 0,0 -4.74132,-4.32926 -11.20304,-4.34021 -6.46173,-0.011 -9.11027,2.23557 -15.16405,9.02244"
       inkscape:label="eye_top" />
    <path
       style="display:inline;fill:#000000;fill-opacity:1;fill-rule:nonzero;stroke:none;stroke-width:7.55;stroke-linecap:butt;stroke-linejoin:miter;stroke-miterlimit:4;stroke-dasharray:none;stroke-opacity:1"
       d="m 174.02009,136.38292 c 0.26205,0.0644 0.66082,-0.3784 0.97803,-0.80723 0.29738,-0.36104 0.51045,-0.76582 0.51045,-0.76582 0,0 0.0184,-0.45704 -0.059,-0.91871 -0.061,-0.53024 -0.18769,-1.11345 -0.44893,-1.18844 -2.52386,-0.67242 -9.22829,-2.44125 -13.00958,-3.26978 -1.37403,-0.30107 -2.62618,-0.53038 -3.7989,-0.64388 -2.45245,-0.23216 -4.82169,0.29868 -6.80758,1.31606 0,0 0,0 0,0 -2.43014,1.2778 -4.33975,2.9771 -5.53302,4.11364 -1.24507,1.18587 -1.94973,1.97039 -1.94973,1.97039 0,0 0.99069,-0.36756 2.5727,-1.00574 1.42817,-0.57611 3.87934,-1.59502 6.07136,-2.18796 0,1e-5 0,0 0,0 1.68028,-0.45626 3.47906,-0.59492 5.27938,-0.41553 0.97107,0.094 2.04385,0.28701 3.35061,0.57334 3.68685,0.80784 10.32844,2.55938 12.84426,3.22966 z"
       id="path542"
       sodipodi:nodetypes="csc"
       inkscape:label="eyebrow_L"
       inkscape:original-d="m 175.51069,134.81044 c 0,0 -9.25968,-2.49461 -13.92727,-3.51734 -6.70198,-1.4685 -8.95563,-0.87368 -17.68164,4.89605"
       inkscape:path-effect="#path-effect1398" />
    <path
       id="path2163"
       style="display:inline;fill:none;fill-rule:nonzero;stroke:#000000;stroke-width:2.5;stroke-linecap:butt;stroke-linejoin:miter;stroke-miterlimit:2;stroke-dasharray:none;stroke-dashoffset:0;stroke-opacity:1"
       d="m 177.33777,170.24153 c -1.16934,0.0231 3.50288,11.86634 13.43885,11.44355 10.59838,0.45098 15.70681,-13.30376 13.55946,-11.49988 -2.14735,1.80389 -13.55946,1.80401 -13.55946,1.80401 0,0 -11.4669,-0.10978 -13.61427,-1.91364 -0.1342,-0.11274 0.25337,0.16441 0.17542,0.16594 z"
       inkscape:label="mouth_outline"
       sodipodi:nodetypes="scscsss" />
    <path
       style="fill:#000000;fill-rule:nonzero;stroke:none;stroke-width:1.31851;stroke-linecap:butt;stroke-linejoin:miter;stroke-miterlimit:4;stroke-dasharray:none;stroke-opacity:1"
       d="m 209.89797,166.55495 c -0.20842,-0.17048 -0.76066,0.38006 -0.76066,0.38006 0,0 -0.0349,0.78641 0.26276,0.81934 l -0.004,0.009 c 1.32802,0.5513 5.02483,1.95733 7.9687,1.95733 2.96495,0 8.51539,-1.66225 10.60506,-2.31863 0.21715,-0.0682 0.37953,-0.30746 0.48411,-0.52142 0.0828,-0.13772 0.14248,-0.35199 0.14616,-0.365 0,0 0,0 0,0 7e-5,-0.009 4e-5,-0.008 4e-5,-0.008 0,0 8e-4,0.001 -0.005,-0.007 0,0 0,0 0,0 -0.007,-0.005 -0.18962,-0.14775 -0.3317,-0.20899 -0.20825,-0.11256 -0.47564,-0.21482 -0.68883,-0.14785 -2.07333,0.65124 -7.49808,2.25803 -10.20994,2.25803 -2.73296,0 -6.16624,-1.31818 -7.46318,-1.85657 z"
       id="path9518"
       inkscape:path-effect="#path-effect9522"
       inkscape:original-d="m 209.13356,166.93331 c 0,0 4.68338,2.12829 8.2314,2.12829 3.54801,0 11.23537,-2.55394 11.23537,-2.55394"
       inkscape:label="eye_bottom" />
    <path
       style="fill:#000000;fill-rule:nonzero;stroke:none;stroke-width:4.22;stroke-linecap:butt;stroke-linejoin:miter;stroke-miterlimit:2;stroke-dasharray:none;stroke-opacity:1"
       d="m 207.48395,145.33057 c -0.49307,0.38276 0.02,1.16901 0.02,1.16901 0,0 0.70977,0.58274 1.10496,0.27275 l 0.005,0.007 c 1.34617,-1.05032 5.21204,-3.68635 10.09476,-3.69462 4.8278,-0.008 7.38345,1.29652 11.22625,5.20135 2.6725,2.7146 3.93995,2.89825 3.93995,2.89825 0,0 0.12464,-1.39836 -2.62444,-4.19286 -4.12785,-4.19447 -7.03142,-5.76182 -12.54489,-5.75244 -5.45858,0.009 -9.73136,2.91819 -11.227,4.08515 z"
       id="path9524"
       inkscape:path-effect="#path-effect9528"
       inkscape:original-d="m 207.50148,146.50178 c 0,0 4.74249,-4.32927 11.2058,-4.34022 6.4633,-0.011 9.11249,2.23557 15.16777,9.02245"
       inkscape:label="eye_top"
       sodipodi:insensitive="true" />
    <path
       style="display:inline;fill:#000000;fill-opacity:1;fill-rule:nonzero;stroke:none;stroke-width:8.19391;stroke-linecap:butt;stroke-linejoin:miter;stroke-miterlimit:4;stroke-dasharray:none;stroke-opacity:1"
       d="m 203.83579,133.59696 c -0.26131,0.0877 -0.35243,0.72049 -0.38002,1.29416 -0.049,0.50021 -2.5e-4,0.9913 -2.5e-4,0.9913 0,0 0.24238,0.4299 0.56877,0.81152 0.35069,0.45432 0.78523,0.92183 1.04753,0.84537 2.51491,-0.7885 9.14936,-2.84739 12.8247,-3.79508 1.29857,-0.33484 2.34886,-0.55655 3.29274,-0.66405 1.70625,-0.2068 3.46567,-0.0217 5.08067,0.50822 0,0 1e-5,0 1e-5,0 2.22936,0.73239 4.70621,1.97117 6.16507,2.67956 1.61158,0.78256 2.62737,1.23758 2.62737,1.23758 0,0 -0.66461,-0.88965 -1.86048,-2.24403 -1.14545,-1.29729 -2.99706,-3.24899 -5.47389,-4.75685 0,0 0,0 0,0 -1.98702,-1.17456 -4.44448,-1.80867 -7.0063,-1.52951 -1.19992,0.13667 -2.47456,0.41196 -3.85678,0.76838 -3.79279,0.97797 -10.50436,3.06184 -13.02914,3.85343 z"
       id="path9512"
       sodipodi:nodetypes="csc"
       inkscape:label="eyebrow_R"
       inkscape:original-d="m 203.45346,135.88307 c 0,0 9.25969,-2.93565 13.92726,-4.13919 6.702,-1.72814 8.95564,-1.02816 17.68166,5.76166"
       inkscape:path-effect="#path-effect9516" />
    <path
       style="fill:none;fill-opacity:1;stroke:#000000;stroke-width:2.5;stroke-linecap:butt;stroke-linejoin:miter;stroke-miterlimit:4;stroke-dasharray:none;stroke-opacity:1"
       d="m 191.71941,155.79906 c 0,0 -6.87188,5.749 -9.89248,6.32583 -3.0206,0.57684 10.39313,6.20095 10.39313,6.20095"
       id="path11271"
       inkscape:label="nose" />
    <g
       id="command_group1"
       inkscape:label="Ink/Stitch Command: Fill stitch starting position"
       transform="matrix(0.264583,0,0,0.264583,9.3905,-19.3905)">
      <path
         id="command_connector1"
         d="m 571.59866,580.66426 0.0705,29.9265"
         style="fill:none;stroke:#000000;stroke-width:1px;stroke-opacity:0.5"
         inkscape:connection-start="#command_use1"
         inkscape:connection-end="#ellipse136"
         inkscape:connector-type="polyline"
         inkscape:label="connector"
         inkscape:connector-curvature="0" />
      <use
         id="command_use1"
         xlink:href="#inkstitch_fill_start"
         height="100%"
         width="100%"
         x="571.59607"
         y="580.62836"
         inkscape:label="command marker" />
    </g>
    <g
       id="command_group2"
       inkscape:label="Ink/Stitch Command: Fill stitch ending position"
       transform="matrix(0.264583,0,0,0.264583,9.3905,-19.3905)">
      <path
         id="command_connector2"
         d="m 574.45122,740.57958 -1.00054,-30.04321"
         style="fill:none;stroke:#000000;stroke-width:1px;stroke-opacity:0.5"
         inkscape:connection-start="#command_use2"
         inkscape:connection-end="#ellipse136"
         inkscape:connector-type="polyline"
         inkscape:label="connector"
         inkscape:connector-curvature="0" />
      <use
         id="command_use2"
         xlink:href="#inkstitch_fill_end"
         height="100%"
         width="100%"
         x="574.47504"
         y="740.46472"
         inkscape:label="command marker" />
    </g>
    <g
       id="command_group3"
       inkscape:label="Ink/Stitch Command: Fill stitch starting position"
       transform="matrix(0.264583,0,0,0.264583,9.3905,-19.3905)">
      <path
         id="command_connector3"
         d="m 788.82736,580.64241 0.56367,29.93532"
         style="fill:none;stroke:#000000;stroke-width:1px;stroke-opacity:0.5"
         inkscape:connection-start="#command_use3"
         inkscape:connection-end="#path9123"
         inkscape:connector-type="polyline"
         inkscape:label="connector"
         inkscape:connector-curvature="0" />
      <use
         id="command_use3"
         xlink:href="#inkstitch_fill_start"
         height="100%"
         width="100%"
         x="788.82477"
         y="580.60651"
         inkscape:label="command marker" />
    </g>
    <g
       id="command_group4"
       inkscape:label="Ink/Stitch Command: Fill stitch ending position"
       transform="matrix(0.264583,0,0,0.264583,8.86133,23.2074)">
      <path
         id="command_connector4"
         d="m 788.80095,580.72136 1.35854,-31.22745"
         style="fill:none;stroke:#000000;stroke-width:1px;stroke-opacity:0.5"
         inkscape:connection-start="#command_use4"
         inkscape:connection-end="#path9123"
         inkscape:connector-type="polyline"
         inkscape:label="connector"
         inkscape:connector-curvature="0" />
      <use
         id="command_use4"
         xlink:href="#inkstitch_fill_end"
         height="100%"
         width="100%"
         x="788.82477"
         y="580.60651"
         inkscape:label="command marker" />
    </g>
    <g
       id="command_group5"
       inkscape:label="Ink/Stitch Command: Fill stitch starting position"
       transform="matrix(0.264583,0,0,0.264583,-10.9374,-2.72175)">
      <path
         id="command_connector5"
         d="m 553.6918,530.02674 33.21855,-6.81288"
         style="fill:none;stroke:#000000;stroke-width:1px;stroke-opacity:0.5"
         inkscape:connection-start="#command_use5"
         inkscape:connection-end="#path542"
         inkscape:connector-type="polyline"
         inkscape:label="connector"
         inkscape:connector-curvature="0" />
      <use
         id="command_use5"
         xlink:href="#inkstitch_fill_start"
         height="100%"
         width="100%"
         x="553.68921"
         y="529.99084"
         inkscape:label="command marker" />
    </g>
    <g
       id="command_group6"
       inkscape:label="Ink/Stitch Command: Fill stitch ending position"
       transform="matrix(0.264583,0,0,0.264583,27.1176,-26.0051)">
      <path
         id="command_connector6"
         d="m 584.78777,610.17613 -23.93375,-3.10844"
         style="fill:none;stroke:#000000;stroke-width:1px;stroke-opacity:0.5"
         inkscape:connection-start="#command_use6"
         inkscape:connection-end="#path542"
         inkscape:connector-type="polyline"
         inkscape:label="connector"
         inkscape:connector-curvature="0" />
      <use
         id="command_use6"
         xlink:href="#inkstitch_fill_end"
         height="100%"
         width="100%"
         x="584.81158"
         y="610.06128"
         inkscape:label="command marker" />
    </g>
    <g
       id="command_group7"
       inkscape:label="Ink/Stitch Command: Fill stitch starting position"
       transform="matrix(0.264583,0,0,0.264583,-9.30921,-4.57383)">
      <path
         id="command_connector7"
         d="m 786.62124,531.53266 17.44913,-2.41871"
         style="fill:none;stroke:#000000;stroke-width:1px;stroke-opacity:0.5"
         inkscape:connection-start="#command_use7"
         inkscape:connection-end="#path9512"
         inkscape:connector-type="polyline"
         inkscape:label="connector"
         inkscape:connector-curvature="0" />
      <use
         id="command_use7"
         xlink:href="#inkstitch_fill_start"
         height="100%"
         width="100%"
         x="786.61865"
         y="531.49677"
         inkscape:label="command marker" />
    </g>
    <g
       id="command_group8"
       inkscape:label="Ink/Stitch Command: Fill stitch ending position"
       transform="matrix(0.264583,0,0,0.264583,50.6655,-9.29852)">
      <path
         id="command_connector8"
         d="m 716.66985,551.523 -25.91737,-4.18456"
         style="fill:none;stroke:#000000;stroke-width:1px;stroke-opacity:0.5"
         inkscape:connection-start="#command_use8"
         inkscape:connection-end="#path9512"
         inkscape:connector-type="polyline"
         inkscape:label="connector"
         inkscape:connector-curvature="0" />
      <use
         id="command_use8"
         xlink:href="#inkstitch_fill_end"
         height="100%"
         width="100%"
         x="716.69366"
         y="551.40814"
         inkscape:label="command marker" />
    </g>
    <g
       id="command_group9"
       inkscape:label="Ink/Stitch Command: Fill stitch starting position"
       transform="matrix(0.264583,0,0,0.264583,-5.16158,-14.3634)">
      <path
         id="command_connector9"
         d="m 672.75698,693.02479 14.76591,5.64667"
         style="fill:none;stroke:#000000;stroke-width:1px;stroke-opacity:0.5"
         inkscape:connection-start="#command_use9"
         inkscape:connection-end="#path851"
         inkscape:connector-type="polyline"
         inkscape:label="connector"
         inkscape:connector-curvature="0" />
      <use
         id="command_use9"
         xlink:href="#inkstitch_fill_start"
         height="100%"
         width="100%"
         x="672.75439"
         y="692.98889"
         inkscape:label="command marker" />
    </g>
    <g
       id="command_group10"
       inkscape:label="Ink/Stitch Command: Fill stitch ending position"
       transform="matrix(0.264583,0,0,0.264583,38.4947,-13.3051)">
      <path
         id="command_connector10"
         d="m 641.17076,687.1173 -23.01567,9.76328"
         style="fill:none;stroke:#000000;stroke-width:1px;stroke-opacity:0.5"
         inkscape:connection-start="#command_use10"
         inkscape:connection-end="#path851"
         inkscape:connector-type="polyline"
         inkscape:label="connector"
         inkscape:connector-curvature="0" />
      <use
         id="command_use10"
         xlink:href="#inkstitch_fill_end"
         height="100%"
         width="100%"
         x="641.19458"
         y="687.00244"
         inkscape:label="command marker" />
    </g>
    <g
       id="command_group11"
       inkscape:label="Ink/Stitch Command: Fill stitch starting position"
       transform="matrix(0.264583,0,0,0.264583,9.3905,-19.3905)">
      <path
         id="command_connector11"
         d="m 569.88638,614.11329 9.40366,62.53025"
         style="fill:none;stroke:#000000;stroke-width:1px;stroke-opacity:0.5"
         inkscape:connection-start="#command_use11"
         inkscape:connector-type="polyline"
         inkscape:label="connector"
         inkscape:connector-curvature="0" />
      <use
         id="command_use11"
         xlink:href="#inkstitch_fill_start"
         height="100%"
         width="100%"
         x="569.88379"
         y="614.07739"
         inkscape:label="command marker" />
    </g>
    <g
       id="command_group12"
       inkscape:label="Ink/Stitch Command: Fill stitch ending position"
       transform="matrix(0.264583,0,0,0.264583,9.3905,-19.3905)">
      <path
         id="command_connector12"
         d="m 582.68211,738.98992 -3.39207,-62.34638"
         style="fill:none;stroke:#000000;stroke-width:1px;stroke-opacity:0.5"
         inkscape:connection-start="#command_use12"
         inkscape:connector-type="polyline"
         inkscape:label="connector"
         inkscape:connector-curvature="0" />
      <use
         id="command_use12"
         xlink:href="#inkstitch_fill_end"
         height="100%"
         width="100%"
         x="582.70593"
         y="738.87506"
         inkscape:label="command marker" />
    </g>
    <g
       id="command_group13"
       inkscape:label="Ink/Stitch Command: Fill stitch starting position"
       transform="matrix(0.264583,0,0,0.264583,9.3905,-19.3905)">
      <path
         id="command_connector13"
         d="m 778.83639,611.73463 3.80885,32.39921"
         style="fill:none;stroke:#000000;stroke-width:1px;stroke-opacity:0.5"
         inkscape:connection-start="#command_use13"
         inkscape:connection-end="#circle9127"
         inkscape:connector-type="polyline"
         inkscape:label="connector"
         inkscape:connector-curvature="0" />
      <use
         id="command_use13"
         xlink:href="#inkstitch_fill_start"
         height="100%"
         width="100%"
         x="778.8338"
         y="611.69873"
         inkscape:label="command marker" />
    </g>
    <g
       id="command_group14"
       inkscape:label="Ink/Stitch Command: Fill stitch ending position"
       transform="matrix(0.264583,0,0,0.264583,9.3905,-19.3905)">
      <path
         id="command_connector14"
         d="m 787.59215,739.50994 -0.63403,-30.6929"
         style="fill:none;stroke:#000000;stroke-width:1px;stroke-opacity:0.5"
         inkscape:connection-start="#command_use14"
         inkscape:connection-end="#circle9127"
         inkscape:connector-type="polyline"
         inkscape:label="connector"
         inkscape:connector-curvature="0" />
      <use
         id="command_use14"
         xlink:href="#inkstitch_fill_end"
         height="100%"
         width="100%"
         x="787.61597"
         y="739.39508"
         inkscape:label="command marker" />
    </g>
  </g>
</svg>
